<svg width="49" height="48" viewBox="0 0 49 48" fill="none" xmlns="http://www.w3.org/2000/svg">
<path fill-rule="evenodd" clip-rule="evenodd" d="M24.742 8.12221C25.8525 8.12221 26.7527 9.00147 26.7527 10.0861V21.8694H38.8172C39.9277 21.8694 40.828 22.7487 40.828 23.8333C40.828 24.918 39.9277 25.7972 38.8172 25.7972H26.7527V37.5805C26.7527 38.6652 25.8525 39.5444 24.742 39.5444C23.6315 39.5444 22.7312 38.6652 22.7312 37.5805V25.7972H10.6667C9.55619 25.7972 8.65594 24.918 8.65594 23.8333C8.65594 22.7487 9.55619 21.8694 10.6667 21.8694H22.7312V10.0861C22.7312 9.00147 23.6315 8.12221 24.742 8.12221Z" fill="#3FC0BC"/>
</svg>
