<svg width="21" height="21" viewBox="0 0 21 21" fill="none" xmlns="http://www.w3.org/2000/svg">
<path d="M10 8H12V5H15V3H12V0H10V3H7V5H10V8ZM6 17C4.9 17 4 17.9 4 19C4 20.1 4.9 21 6 21C7.1 21 8 20.1 8 19C8 17.9 7.1 17 6 17ZM16 17C14.9 17 14 17.9 14 19C14 20.1 14.9 21 16 21C17.1 21 18 20.1 18 19C18 17.9 17.1 17 16 17ZM6.2 13.8V13.7L7.1 12H14.5C15.2 12 15.9 11.6 16.2 11L20.1 4L18.4 3L14.5 10H7.5L3.3 1H0V3H2L5.6 10.6L4.2 13C4.1 13.3 4 13.6 4 14C4 15.1 4.9 16 6 16H18V14H6.4C6.3 14 6.2 13.9 6.2 13.8Z" fill="white"/>
</svg>
