<svg width="28" height="29" viewBox="0 0 28 29" fill="none" xmlns="http://www.w3.org/2000/svg">
<path d="M27.4754 24.4238L27.4758 24.4269C27.5916 25.3802 27.2887 26.3447 26.6451 27.0687C26.0032 27.7909 25.0737 28.2028 24.1075 28.2028H3.89252C2.92628 28.2028 1.99684 27.7909 1.35494 27.0687C0.711316 26.3446 0.408428 25.3802 0.524254 24.4269L0.524612 24.4238L2.93359 3.50155C2.93359 3.50154 2.9336 3.50153 2.9336 3.50153C3.13012 1.79546 4.57755 0.5 6.3015 0.5H21.6985C23.4225 0.5 24.8699 1.79547 25.0664 3.50153L27.4754 24.4238ZM1.56102 24.544C1.56099 24.5441 1.56097 24.5443 1.56095 24.5445C1.48269 25.2111 1.6932 25.8646 2.14441 26.3689C2.59165 26.8802 3.2222 27.1526 3.89252 27.1526H24.1075C24.7778 27.1526 25.4083 26.8803 25.8556 26.3689C26.3069 25.8645 26.5174 25.2108 26.439 24.5441C26.439 24.544 26.439 24.544 26.439 24.544L24.0202 3.62549C24.0201 3.62494 24.0201 3.62438 24.02 3.62383C23.8886 2.43541 22.8828 1.5502 21.6985 1.5502H6.3015C5.11711 1.5502 4.11134 2.4355 3.97998 3.62401C3.97993 3.6245 3.97987 3.625 3.97982 3.62549L1.56102 24.544Z" fill="#3FC0BC" stroke="#3FC0BC"/>
<path d="M19.6506 6.1506C19.6506 9.2661 17.1155 11.8012 14 11.8012C10.8845 11.8012 8.3494 9.2661 8.3494 6.1506V5.1255C8.3494 4.83558 8.58459 4.6004 8.8745 4.6004C9.16442 4.6004 9.3996 4.83558 9.3996 5.1255V6.1506C9.3996 8.6877 11.4629 10.751 14 10.751C16.5371 10.751 18.6004 8.6877 18.6004 6.1506V5.1255C18.6004 4.83558 18.8356 4.6004 19.1255 4.6004C19.4154 4.6004 19.6506 4.83558 19.6506 5.1255V6.1506Z" fill="#3FC0BC" stroke="#3FC0BC"/>
</svg>
