<svg width="24" height="24" viewBox="0 0 24 24" fill="none" xmlns="http://www.w3.org/2000/svg">
<g clip-path="url(#clip0_19_46)">
<path fill-rule="evenodd" clip-rule="evenodd" d="M10.6756 0.202667C8.56429 0.203335 6.50061 0.830015 4.74547 2.00347C2.99032 3.17692 1.62253 4.84445 0.815038 6.79522C0.00754671 8.74599 -0.203384 10.8924 0.208917 12.963C0.621218 15.0337 1.63823 16.9355 3.13138 18.4282C4.62452 19.9209 6.52673 20.9373 8.5975 21.3489C10.6683 21.7606 12.8146 21.549 14.7651 20.7409C16.7156 19.9328 18.3827 18.5644 19.5556 16.8089C20.7285 15.0534 21.3545 12.9895 21.3545 10.8782C21.3532 8.04673 20.2276 5.33163 18.2251 3.32976C16.2226 1.3279 13.5071 0.203115 10.6756 0.202667ZM10.6756 1.89144C12.453 1.89144 14.1905 2.41851 15.6684 3.40599C17.1463 4.39347 18.2981 5.79702 18.9783 7.43914C19.6585 9.08127 19.8365 10.8882 19.4897 12.6315C19.143 14.3748 18.287 15.9761 17.0302 17.2329C15.7734 18.4897 14.1721 19.3456 12.4288 19.6924C10.6855 20.0391 8.8786 19.8612 7.23648 19.181C5.59435 18.5008 4.19081 17.3489 3.20332 15.871C2.21584 14.3932 1.68877 12.6557 1.68877 10.8782C1.68989 8.49514 2.63707 6.20996 4.32218 4.52485C6.00729 2.83974 8.29247 1.89256 10.6756 1.89144Z" fill="#A8A8A8"/>
<path fill-rule="evenodd" clip-rule="evenodd" d="M23.7534 22.361L18.4541 17.0617C18.3762 16.981 18.283 16.9167 18.18 16.8724C18.077 16.8282 17.9662 16.8049 17.854 16.8039C17.7419 16.803 17.6307 16.8243 17.527 16.8668C17.4232 16.9092 17.3289 16.9719 17.2496 17.0512C17.1704 17.1305 17.1077 17.2248 17.0652 17.3285C17.0227 17.4323 17.0014 17.5435 17.0024 17.6556C17.0033 17.7677 17.0266 17.8785 17.0709 17.9816C17.1151 18.0846 17.1795 18.1777 17.2601 18.2556L22.5595 23.5525C22.6374 23.6331 22.7305 23.6974 22.8336 23.7417C22.9366 23.786 23.0474 23.8093 23.1595 23.8102C23.2716 23.8112 23.3828 23.7898 23.4866 23.7474C23.5903 23.7049 23.6846 23.6422 23.7639 23.5629C23.8432 23.4837 23.9059 23.3894 23.9483 23.2856C23.9908 23.1818 24.0122 23.0706 24.0112 22.9585C24.0102 22.8464 23.9869 22.7356 23.9427 22.6326C23.8984 22.5296 23.8341 22.4364 23.7534 22.3585V22.361Z" fill="#A8A8A8"/>
</g>
<defs>
<clipPath id="clip0_19_46">
<rect width="24" height="24" fill="white"/>
</clipPath>
</defs>
</svg>
