<svg width="21" height="21" viewBox="0 0 21 21" fill="none" xmlns="http://www.w3.org/2000/svg">
<path d="M16.4405 16.6574C16.9709 16.6574 17.4797 16.8681 17.8547 17.2432C18.2298 17.6182 18.4405 18.1269 18.4405 18.6574C18.4405 19.1878 18.2298 19.6965 17.8547 20.0716C17.4797 20.4467 16.9709 20.6574 16.4405 20.6574C15.3305 20.6574 14.4405 19.7574 14.4405 18.6574C14.4405 17.5474 15.3305 16.6574 16.4405 16.6574ZM0.440512 0.657372H3.71051L4.65051 2.65737H19.4405C19.7057 2.65737 19.9601 2.76273 20.1476 2.95026C20.3352 3.1378 20.4405 3.39216 20.4405 3.65737C20.4405 3.82737 20.3905 3.99737 20.3205 4.15737L16.7405 10.6274C16.4005 11.2374 15.7405 11.6574 14.9905 11.6574H7.54051L6.64051 13.2874L6.61051 13.4074C6.61051 13.4737 6.63685 13.5373 6.68373 13.5841C6.73062 13.631 6.79421 13.6574 6.86051 13.6574H18.4405V15.6574H6.44051C5.33051 15.6574 4.44051 14.7574 4.44051 13.6574C4.44051 13.3074 4.53051 12.9774 4.68051 12.6974L6.04051 10.2474L2.44051 2.65737H0.440512V0.657372ZM6.44051 16.6574C6.97094 16.6574 7.47965 16.8681 7.85472 17.2432C8.2298 17.6182 8.44051 18.1269 8.44051 18.6574C8.44051 19.1878 8.2298 19.6965 7.85472 20.0716C7.47965 20.4467 6.97094 20.6574 6.44051 20.6574C5.33051 20.6574 4.44051 19.7574 4.44051 18.6574C4.44051 17.5474 5.33051 16.6574 6.44051 16.6574ZM15.4405 9.65737L18.2205 4.65737H5.58051L7.94051 9.65737H15.4405Z" fill="#02A3AF"/>
</svg>
