<svg width="38" height="39" viewBox="0 0 38 39" fill="none" xmlns="http://www.w3.org/2000/svg">
<g filter="url(#filter0_d_502_682)">
<g filter="url(#filter1_d_502_682)">
<path d="M9.61516 18.6291H9.68374C9.78299 18.6287 9.87891 18.5933 9.95465 18.5291C10.0304 18.465 10.0811 18.3762 10.0978 18.2783L10.3616 16.6536H11.3533C11.4156 16.6533 11.4774 16.6652 11.5352 16.6888C11.5929 16.7123 11.6454 16.747 11.6898 16.7908C11.7341 16.8347 11.7693 16.8868 11.7935 16.9443C11.8177 17.0017 11.8303 17.0634 11.8307 17.1258V20.4754C11.8456 20.805 11.9871 21.1161 12.2256 21.344C12.4641 21.5719 12.7813 21.6991 13.1112 21.6991C13.4411 21.6991 13.7583 21.5719 13.9968 21.344C14.2353 21.1161 14.3767 20.805 14.3917 20.4754V18.8375C14.3915 18.6339 14.4697 18.438 14.6102 18.2907C14.7507 18.1433 14.9426 18.0557 15.146 18.0462C15.2514 18.0421 15.3566 18.0592 15.4554 18.0963C15.5541 18.1335 15.6444 18.19 15.721 18.2625C15.797 18.3344 15.8575 18.4211 15.8988 18.5173C15.9401 18.6135 15.9612 18.717 15.961 18.8217V19.1988C15.961 19.6032 16.1216 19.9909 16.4075 20.2768C16.6934 20.5627 17.0812 20.7233 17.4855 20.7233C17.8898 20.7233 18.2776 20.5627 18.5635 20.2768C18.8494 19.9909 19.01 19.6032 19.01 19.1988V17.1416C19.0107 17.0161 19.061 16.896 19.15 16.8076C19.2389 16.7191 19.3593 16.6695 19.4847 16.6695H22.5759C22.6382 16.6691 22.7 16.6811 22.7578 16.7046C22.8155 16.7281 22.868 16.7628 22.9124 16.8067C22.9567 16.8505 22.992 16.9026 23.0161 16.9601C23.0403 17.0176 23.0529 17.0792 23.0533 17.1416V21.2165C23.0533 21.5845 23.1994 21.9374 23.4596 22.1975C23.7198 22.4577 24.0727 22.6039 24.4406 22.6039C24.8086 22.6039 25.1614 22.4577 25.4216 22.1975C25.6818 21.9374 25.8279 21.5845 25.8279 21.2165V20.1061C25.8279 19.9949 25.7838 19.8883 25.7051 19.8096C25.6265 19.731 25.5198 19.6868 25.4086 19.6868C25.2974 19.6868 25.1907 19.731 25.112 19.8096C25.0334 19.8883 24.9892 19.9949 24.9892 20.1061V21.2165C24.9892 21.362 24.9314 21.5016 24.8285 21.6045C24.7257 21.7073 24.5861 21.7651 24.4406 21.7651C24.2951 21.7651 24.1556 21.7073 24.0527 21.6045C23.9498 21.5016 23.892 21.362 23.892 21.2165V17.1416C23.8878 16.7946 23.7471 16.4632 23.5002 16.2193C23.2533 15.9754 22.9203 15.8386 22.5733 15.8386H19.4768C19.1298 15.8386 18.7967 15.9754 18.5499 16.2193C18.303 16.4632 18.1622 16.7946 18.1581 17.1416V19.1857C18.1581 19.3675 18.0858 19.5419 17.9572 19.6706C17.8286 19.7992 17.6542 19.8714 17.4723 19.8714C17.2904 19.8714 17.116 19.7992 16.9874 19.6706C16.8588 19.5419 16.7866 19.3675 16.7866 19.1857V18.8085C16.7872 18.5923 16.7435 18.3782 16.6583 18.1795C16.573 17.9808 16.4479 17.8017 16.2907 17.6533C16.1335 17.502 15.9473 17.3841 15.7433 17.3066C15.5394 17.2291 15.3218 17.1936 15.1038 17.2022C14.6833 17.2225 14.2865 17.4035 13.9955 17.7078C13.7044 18.012 13.5413 18.4164 13.5398 18.8375V20.4754C13.5191 20.5752 13.4646 20.6648 13.3856 20.7291C13.3066 20.7934 13.2078 20.8285 13.1059 20.8285C13.004 20.8285 12.9052 20.7934 12.8262 20.7291C12.7472 20.6648 12.6927 20.5752 12.672 20.4754V17.1416C12.6679 16.7946 12.5271 16.4632 12.2802 16.2193C12.0334 15.9754 11.7003 15.8386 11.3533 15.8386H10.4935L10.7018 14.5568C10.7879 14.0272 11.0602 13.5457 11.4698 13.199C11.8793 12.8523 12.3992 12.6632 12.9358 12.6657H14.3864C14.4438 12.6703 14.5014 12.6629 14.5558 12.6441C14.6101 12.6253 14.66 12.5955 14.7023 12.5565C14.7445 12.5175 14.7782 12.4701 14.8013 12.4174C14.8244 12.3647 14.8363 12.3078 14.8363 12.2503C14.8363 12.1928 14.8244 12.1359 14.8013 12.0832C14.7782 12.0305 14.7445 11.9832 14.7023 11.9442C14.66 11.9051 14.6101 11.8753 14.5558 11.8565C14.5014 11.8377 14.4438 11.8303 14.3864 11.8349H12.9358C12.1995 11.8292 11.4854 12.0872 10.9228 12.5623C10.3602 13.0373 9.98613 13.6981 9.86836 14.4249L9.26173 18.1649C9.24886 18.2731 9.27854 18.3819 9.34449 18.4686C9.41045 18.5552 9.50751 18.6128 9.61516 18.6291V18.6291Z" fill="black"/>
<path d="M32.6277 27.1536C32.5113 26.9814 32.354 26.8409 32.1698 26.7447C31.9857 26.6484 31.7805 26.5995 31.5727 26.6023H29.9612L27.9936 14.4249C27.8752 13.6978 27.5007 13.0371 26.9376 12.5621C26.3746 12.087 25.6602 11.8291 24.9235 11.8349H23.465C23.4076 11.8303 23.35 11.8377 23.2956 11.8565C23.2413 11.8753 23.1914 11.9051 23.1491 11.9442C23.1069 11.9832 23.0732 12.0305 23.0501 12.0832C23.027 12.1359 23.0151 12.1928 23.0151 12.2503C23.0151 12.3078 23.027 12.3647 23.0501 12.4174C23.0732 12.4701 23.1069 12.5175 23.1491 12.5565C23.1914 12.5955 23.2413 12.6253 23.2956 12.6441C23.35 12.6629 23.4076 12.6703 23.465 12.6657H24.9235C25.4636 12.6586 25.9882 12.8456 26.4021 13.1927C26.8159 13.5397 27.0915 14.0238 27.1786 14.5568L27.387 15.8386H26.332C25.9849 15.8386 25.6519 15.9754 25.405 16.2193C25.1581 16.4632 25.0174 16.7946 25.0132 17.1416V18.3074C25.0132 18.4186 25.0574 18.5253 25.136 18.6039C25.2147 18.6825 25.3213 18.7267 25.4326 18.7267C25.5438 18.7267 25.6504 18.6825 25.7291 18.6039C25.8077 18.5253 25.8519 18.4186 25.8519 18.3074V17.1416C25.8523 17.0792 25.8649 17.0176 25.8891 16.9601C25.9132 16.9026 25.9485 16.8505 25.9928 16.8067C26.0372 16.7628 26.0897 16.7281 26.1474 16.7046C26.2052 16.6811 26.267 16.6691 26.3293 16.6695H27.5294L29.1356 26.6023H8.75557L9.79211 20.18C9.80505 20.0721 9.77562 19.9634 9.71001 19.8768C9.6444 19.7902 9.54774 19.7325 9.44039 19.7157C9.33304 19.699 9.22338 19.7245 9.13451 19.787C9.04563 19.8495 8.98448 19.9441 8.96394 20.0508L7.90893 26.6023H6.28159C6.07394 26.6002 5.86898 26.6494 5.68493 26.7456C5.50088 26.8418 5.34343 26.9819 5.22658 27.1536C5.11109 27.3226 5.03973 27.5178 5.019 27.7214C4.99827 27.925 5.02883 28.1306 5.10789 28.3194L5.551 29.3506C5.7732 29.8883 6.15054 30.3475 6.63487 30.6697C7.11919 30.992 7.68854 31.1627 8.27027 31.16H9.58903V32.1833C9.59112 32.4706 9.70689 32.7454 9.91102 32.9475C10.1152 33.1497 10.391 33.2628 10.6783 33.2621H27.2023C27.4899 33.2628 27.766 33.1498 27.9706 32.9477C28.1751 32.7456 28.2915 32.4708 28.2943 32.1833V31.16H29.613C30.1947 31.1627 30.7641 30.992 31.2484 30.6697C31.7327 30.3475 32.1101 29.8883 32.3323 29.3506L32.7569 28.3194C32.8349 28.1302 32.8646 27.9246 32.8435 27.7211C32.8223 27.5177 32.7509 27.3226 32.6356 27.1536H32.6277ZM31.9736 28.0055L31.5463 29.0368C31.3873 29.4204 31.1179 29.748 30.7722 29.9782C30.4266 30.2083 30.0203 30.3304 29.6051 30.3291H24.8734C24.8161 30.3246 24.7584 30.3319 24.7041 30.3507C24.6497 30.3695 24.5998 30.3994 24.5576 30.4384C24.5153 30.4774 24.4816 30.5248 24.4585 30.5774C24.4355 30.6301 24.4236 30.687 24.4236 30.7445C24.4236 30.8021 24.4355 30.859 24.4585 30.9117C24.4816 30.9643 24.5153 31.0117 24.5576 31.0507C24.5998 31.0897 24.6497 31.1196 24.7041 31.1384C24.7584 31.1572 24.8161 31.1645 24.8734 31.16H27.4555V32.1833C27.4515 32.2505 27.4219 32.3136 27.3729 32.3597C27.3239 32.4058 27.2591 32.4314 27.1918 32.4312H10.6625C10.5975 32.4281 10.536 32.401 10.4897 32.3553C10.4435 32.3095 10.4158 32.2483 10.4119 32.1833V31.16H22.861C22.9183 31.1645 22.976 31.1572 23.0303 31.1384C23.0847 31.1196 23.1346 31.0897 23.1768 31.0507C23.2191 31.0117 23.2528 30.9643 23.2759 30.9117C23.2989 30.859 23.3108 30.8021 23.3108 30.7445C23.3108 30.687 23.2989 30.6301 23.2759 30.5774C23.2528 30.5248 23.2191 30.4774 23.1768 30.4384C23.1346 30.3994 23.0847 30.3695 23.0303 30.3507C22.976 30.3319 22.9183 30.3246 22.861 30.3291H8.26236C7.84696 30.3312 7.4404 30.2093 7.09462 29.9791C6.74884 29.7489 6.47954 29.4208 6.32115 29.0368L5.89387 28.0055C5.86769 27.9422 5.85761 27.8734 5.86456 27.8052C5.87151 27.7371 5.89526 27.6717 5.93369 27.615C5.97211 27.5582 6.024 27.5119 6.08472 27.4802C6.14544 27.4485 6.21308 27.4323 6.28159 27.4332H31.5832C31.6517 27.4325 31.7193 27.4488 31.78 27.4805C31.8407 27.5123 31.8927 27.5585 31.9313 27.6151C31.9699 27.6716 31.9939 27.7369 32.0013 27.805C32.0087 27.8731 31.9992 27.942 31.9736 28.0055V28.0055Z" fill="black"/>
<path d="M13.5682 10.8274L14.3594 11.1254C14.6009 11.2184 14.8576 11.2658 15.1164 11.2652H15.1771C15.2017 11.332 15.2281 11.398 15.2562 11.463V11.4788C15.5171 12.0417 15.9342 12.5176 16.4579 12.8501C16.9816 13.1826 17.5899 13.3575 18.2102 13.3541C18.2788 13.3541 18.3447 13.3541 18.4133 13.3541L20.9479 13.2011C21.2021 13.1877 21.4496 13.1151 21.6707 12.9892C21.8919 12.8633 22.0806 12.6875 22.2219 12.4758C22.3642 12.2669 22.4551 12.0273 22.4871 11.7766C22.5192 11.5259 22.4916 11.2711 22.4065 11.0331L21.5757 8.65934C21.3589 8.04192 20.96 7.50473 20.4317 7.11862C19.9034 6.73251 19.2705 6.51562 18.6164 6.49657H18.5979C18.5241 6.49657 18.4529 6.49657 18.3816 6.49657C18.2834 6.23752 18.1356 6.00011 17.9465 5.79763L17.3662 5.19892C17.2577 5.08648 17.1226 5.00309 16.9735 4.95639C16.8243 4.90969 16.6659 4.90117 16.5126 4.93162C16.3593 4.96207 16.2161 5.0305 16.0961 5.13066C15.9761 5.23082 15.8832 5.35948 15.8259 5.50487L15.5147 6.27766C15.4695 6.39765 15.4342 6.52115 15.4092 6.64691L14.7814 6.63373C14.6257 6.63086 14.4717 6.66701 14.3335 6.73887C14.1953 6.81074 14.0773 6.91603 13.9902 7.04518C13.9034 7.1738 13.8508 7.32244 13.8374 7.47704C13.824 7.63165 13.8503 7.78711 13.9137 7.92874L14.1774 8.49053C14.0694 8.5604 13.9679 8.63985 13.8741 8.72791L13.2675 9.30289C13.1541 9.40962 13.0698 9.54352 13.0226 9.69193C12.9754 9.84034 12.9668 9.99834 12.9977 10.151C13.0286 10.3036 13.0979 10.4459 13.1991 10.5642C13.3004 10.6826 13.4301 10.7732 13.5761 10.8274H13.5682ZM18.5795 7.31684H18.5979C19.083 7.33064 19.5525 7.49132 19.9443 7.77765C20.3361 8.06398 20.6318 8.46247 20.7923 8.92045L21.6258 11.2942C21.6672 11.4114 21.6804 11.5367 21.6644 11.66C21.6484 11.7833 21.6035 11.901 21.5335 12.0037C21.4648 12.1082 21.3724 12.195 21.2637 12.2569C21.1551 12.3188 21.0333 12.354 20.9084 12.3598L18.3737 12.5127C17.8892 12.5453 17.4061 12.4305 16.9881 12.1834C16.57 11.9362 16.2366 11.5683 16.0316 11.128V11.1096C15.9263 10.8811 15.8815 10.6295 15.9013 10.3787C15.9212 10.1279 16.0051 9.88645 16.145 9.67741L17.2976 7.96567C17.4352 7.76436 17.6197 7.5996 17.8352 7.48563C18.0508 7.37166 18.2908 7.31191 18.5346 7.31157L18.5795 7.31684ZM16.6013 5.80291C16.6058 5.7883 16.6144 5.77529 16.6261 5.76546C16.6378 5.75563 16.6521 5.7494 16.6673 5.74752H16.6884C16.7004 5.7474 16.7123 5.74994 16.7233 5.75495C16.7342 5.75997 16.7439 5.76734 16.7517 5.77653L17.3319 6.37525C17.4241 6.46921 17.4999 6.57798 17.5561 6.69703C17.3194 6.80281 17.1019 6.9472 16.9125 7.1243C16.714 6.96358 16.4879 6.84026 16.2453 6.76033C16.2576 6.69912 16.2752 6.63911 16.298 6.58098L16.6013 5.80291ZM14.6944 7.5041C14.7035 7.48974 14.7165 7.47833 14.732 7.4713C14.7475 7.46427 14.7647 7.46192 14.7814 7.46454V7.46454L15.6202 7.483C15.91 7.48757 16.1895 7.59189 16.4114 7.77841L15.6202 8.95474C15.3566 8.82677 15.1466 8.61015 15.0267 8.34283L14.6865 7.58323C14.6791 7.56992 14.6752 7.55494 14.6752 7.53971C14.6752 7.52448 14.6791 7.50951 14.6865 7.49619L14.6944 7.5041ZM13.8398 9.9016L14.4465 9.32926C14.492 9.28529 14.5414 9.24556 14.5942 9.21058C14.7624 9.40164 14.9645 9.55992 15.1903 9.67741C15.1004 9.91908 15.0514 10.174 15.0452 10.4317C14.9132 10.4257 14.7832 10.3981 14.6601 10.35L13.8689 10.0519C13.8545 10.0466 13.8416 10.0378 13.8315 10.0263C13.8214 10.0148 13.8143 10.0009 13.8108 9.986C13.8084 9.97064 13.8097 9.9549 13.8148 9.94018C13.8199 9.92546 13.8285 9.91222 13.8398 9.9016V9.9016Z" fill="black"/>
<path d="M17.2696 10.3922C17.2352 10.4431 17.2113 10.5003 17.1993 10.5605C17.1873 10.6208 17.1875 10.6828 17.1998 10.743C17.212 10.8032 17.2362 10.8603 17.2708 10.911C17.3055 10.9617 17.3499 11.005 17.4015 11.0384C17.5052 11.107 17.6318 11.1319 17.7538 11.1077C17.8758 11.0835 17.9833 11.0121 18.053 10.9091C18.0875 10.8584 18.1115 10.8013 18.1237 10.7412C18.1359 10.681 18.136 10.6191 18.124 10.5589C18.112 10.4987 18.088 10.4416 18.0537 10.3908C18.0193 10.3399 17.9751 10.2965 17.9237 10.2629C17.8194 10.1949 17.6926 10.1703 17.5704 10.1944C17.4482 10.2186 17.3402 10.2896 17.2696 10.3922V10.3922Z" fill="black"/>
<path d="M18.5461 9.33716C18.6505 9.40522 18.7773 9.42979 18.8995 9.40565C19.0217 9.3815 19.1296 9.31054 19.2003 9.20792C19.2344 9.15671 19.258 9.09927 19.2699 9.03889C19.2817 8.97851 19.2815 8.91638 19.2692 8.85608C19.257 8.79578 19.2329 8.7385 19.1985 8.68754C19.164 8.63657 19.1198 8.59291 19.0684 8.55909C19.017 8.52491 18.9593 8.5012 18.8987 8.48932C18.8381 8.47745 18.7758 8.47764 18.7153 8.48989C18.6548 8.50214 18.5973 8.52621 18.5461 8.56071C18.4949 8.59521 18.451 8.63948 18.4169 8.69097C18.3824 8.74169 18.3583 8.79879 18.3461 8.85893C18.3339 8.91906 18.3338 8.98102 18.3459 9.04119C18.3579 9.10136 18.3818 9.15852 18.4162 9.20934C18.4506 9.26016 18.4948 9.30361 18.5461 9.33716V9.33716Z" fill="black"/>
<path d="M19.218 10.4528C19.1839 10.5041 19.1602 10.5615 19.1484 10.6219C19.1365 10.6823 19.1367 10.7444 19.149 10.8047C19.1613 10.865 19.1853 10.9223 19.2198 10.9732C19.2543 11.0242 19.2985 11.0679 19.3499 11.1017C19.4013 11.1359 19.4589 11.1596 19.5195 11.1714C19.5801 11.1833 19.6424 11.1831 19.7029 11.1709C19.7635 11.1586 19.821 11.1346 19.8722 11.1001C19.9234 11.0656 19.9673 11.0213 20.0013 10.9698C20.0358 10.9191 20.0599 10.862 20.0721 10.8018C20.0843 10.7417 20.0844 10.6797 20.0724 10.6196C20.0603 10.5594 20.0364 10.5022 20.002 10.4514C19.9676 10.4006 19.9235 10.3572 19.8721 10.3236C19.7677 10.2556 19.6409 10.231 19.5187 10.2551C19.3965 10.2793 19.2886 10.3502 19.218 10.4528V10.4528Z" fill="black"/>
</g>
</g>
<defs>
<filter id="filter0_d_502_682" x="0.10472" y="0.00575113" width="37.6529" height="38.1643" filterUnits="userSpaceOnUse" color-interpolation-filters="sRGB">
<feFlood flood-opacity="0" result="BackgroundImageFix"/>
<feColorMatrix in="SourceAlpha" type="matrix" values="0 0 0 0 0 0 0 0 0 0 0 0 0 0 0 0 0 0 127 0" result="hardAlpha"/>
<feOffset/>
<feGaussianBlur stdDeviation="2.45399"/>
<feComposite in2="hardAlpha" operator="out"/>
<feColorMatrix type="matrix" values="0 0 0 0 0 0 0 0 0 0 0 0 0 0 0 0 0 0 0.35 0"/>
<feBlend mode="normal" in2="BackgroundImageFix" result="effect1_dropShadow_502_682"/>
<feBlend mode="normal" in="SourceGraphic" in2="effect1_dropShadow_502_682" result="shape"/>
</filter>
<filter id="filter1_d_502_682" x="3.7857" y="3.68673" width="30.2909" height="30.8023" filterUnits="userSpaceOnUse" color-interpolation-filters="sRGB">
<feFlood flood-opacity="0" result="BackgroundImageFix"/>
<feColorMatrix in="SourceAlpha" type="matrix" values="0 0 0 0 0 0 0 0 0 0 0 0 0 0 0 0 0 0 127 0" result="hardAlpha"/>
<feOffset/>
<feGaussianBlur stdDeviation="0.613497"/>
<feComposite in2="hardAlpha" operator="out"/>
<feColorMatrix type="matrix" values="0 0 0 0 0 0 0 0 0 0 0 0 0 0 0 0 0 0 0.25 0"/>
<feBlend mode="normal" in2="BackgroundImageFix" result="effect1_dropShadow_502_682"/>
<feBlend mode="normal" in="SourceGraphic" in2="effect1_dropShadow_502_682" result="shape"/>
</filter>
</defs>
</svg>
