<svg width="21" height="32" viewBox="0 0 21 32" fill="none" xmlns="http://www.w3.org/2000/svg">
<g filter="url(#filter0_d_502_599)">
<path d="M19.4206 16.3464C19.4233 15.3368 19.1979 14.3397 18.7612 13.4293C17.907 11.6827 17.7762 9.66974 18.3971 7.82727C18.5264 7.45538 18.7269 7.08613 18.471 6.72743C18.4072 6.6387 18.3232 6.56638 18.226 6.51641C18.1288 6.46643 18.0211 6.44022 17.9118 6.43994H14.4825L14.7463 5.10272C14.7881 4.89759 14.9095 4.7174 15.084 4.60159L17.9434 2.67357C17.9882 2.64313 18.0264 2.60416 18.0561 2.5589C18.0857 2.51365 18.1062 2.46299 18.1162 2.40983C18.1263 2.35667 18.1257 2.30204 18.1146 2.24909C18.1035 2.19614 18.0821 2.14589 18.0516 2.10123C18.0216 2.05602 17.9829 2.01723 17.9377 1.98713C17.8926 1.95703 17.8419 1.93621 17.7886 1.9259C17.7353 1.91559 17.6805 1.91599 17.6274 1.92707C17.5743 1.93815 17.5239 1.9597 17.4792 1.99045L14.6408 3.91848C14.2884 4.1552 14.0431 4.52078 13.9576 4.93656L13.649 6.43994H9.42834L11.507 4.36685C11.5687 4.30575 11.6174 4.23274 11.65 4.15226C11.6826 4.07179 11.6986 3.98552 11.6968 3.89869C11.6951 3.81187 11.6758 3.7263 11.6399 3.64718C11.6041 3.56807 11.5526 3.49705 11.4885 3.43845C10.3855 2.42888 8.9353 1.88399 7.44029 1.91741C5.94528 1.95082 4.52088 2.55996 3.46408 3.6178V3.6178C2.40166 4.66889 1.78846 6.09108 1.75353 7.58507C1.7186 9.07905 2.26466 10.5283 3.27679 11.6279C3.33528 11.6916 3.40615 11.7427 3.48507 11.7781C3.56399 11.8135 3.6493 11.8324 3.73578 11.8337V11.8337C3.82005 11.8341 3.90355 11.8177 3.98144 11.7856C4.05934 11.7534 4.13006 11.7061 4.1895 11.6464L6.90388 8.95085C7.19261 10.4907 6.98959 12.0824 6.32355 13.5006C6.16405 13.8407 6.03345 14.1936 5.93314 14.5556C5.91933 14.655 5.94212 14.7561 5.99727 14.8399C6.05241 14.9238 6.13616 14.9848 6.23292 15.0116C6.32968 15.0384 6.43288 15.0291 6.52331 14.9855C6.61373 14.9418 6.68523 14.8669 6.7245 14.7745C6.81028 14.4522 6.92414 14.138 7.06479 13.8355C7.92023 12.0219 8.08255 9.95802 7.52115 8.033C7.46575 7.84573 7.33649 7.46065 7.25736 7.26812C7.41827 7.22855 13.2849 7.30768 13.459 7.26812L12.8259 10.3909C12.407 10.6147 11.9647 10.7916 11.507 10.9184C10.8264 11.0741 10.1195 11.0741 9.43889 10.9184C9.34665 10.8974 9.25107 10.8956 9.15811 10.9132C9.06515 10.9307 8.97681 10.9673 8.89859 11.0205C8.82038 11.0737 8.75397 11.1424 8.70351 11.2224C8.65305 11.3024 8.61962 11.392 8.60532 11.4855C8.48193 12.4236 8.21502 13.3372 7.81395 14.1942C7.50097 14.8684 7.33978 15.6031 7.34177 16.3464C7.37241 17.708 7.93489 19.0035 8.90884 19.9557C9.88278 20.9078 11.1908 21.4409 12.5529 21.4409C13.915 21.4409 15.223 20.9078 16.197 19.9557C17.1709 19.0035 17.7334 17.708 17.7641 16.3464C17.7656 15.5833 17.5952 14.8297 17.2655 14.1415C17.1653 13.9305 17.0703 13.7142 16.9859 13.4953C16.9418 13.3993 16.8626 13.3238 16.7647 13.2842C16.6667 13.2446 16.5573 13.244 16.4589 13.2824C16.3605 13.3208 16.2805 13.3954 16.2353 13.4909C16.19 13.5863 16.183 13.6955 16.2156 13.796C16.3079 14.0333 16.4108 14.2681 16.519 14.4975C16.7957 15.0736 16.9391 15.7047 16.9384 16.3438C16.9384 17.5064 16.4765 18.6214 15.6543 19.4434C14.8321 20.2655 13.717 20.7273 12.5542 20.7273C11.3915 20.7273 10.2763 20.2655 9.45416 19.4434C8.63197 18.6214 8.17007 17.5064 8.17007 16.3438C8.1679 15.7207 8.30299 15.1048 8.56575 14.5397C8.97887 13.6504 9.2614 12.7061 9.4046 11.7361C10.1592 11.8896 10.9378 11.8815 11.689 11.7123C12.0112 11.6392 12.3264 11.5377 12.6307 11.409L11.4701 17.0533C11.4482 17.1606 11.4699 17.2723 11.5302 17.3637C11.5905 17.4552 11.6846 17.519 11.7919 17.5412C11.8191 17.5438 11.8465 17.5438 11.8737 17.5412C11.9688 17.5409 12.0611 17.508 12.135 17.4481C12.2089 17.3881 12.26 17.3046 12.2799 17.2115L13.5619 10.9712C13.9362 10.8084 14.3312 10.6983 14.7358 10.6441C15.0034 10.6097 15.2733 10.5965 15.543 10.6046C15.5619 11.0274 15.6086 11.4486 15.6828 11.8653C15.6921 11.9186 15.7119 11.9696 15.7409 12.0153C15.77 12.061 15.8078 12.1005 15.8521 12.1317C15.8964 12.1628 15.9465 12.1848 15.9993 12.1966C16.0522 12.2084 16.1069 12.2096 16.1602 12.2003C16.2136 12.1909 16.2645 12.1711 16.3103 12.1421C16.356 12.113 16.3955 12.0753 16.4266 12.0309C16.4577 11.9866 16.4798 11.9366 16.4916 11.8837C16.5033 11.8309 16.5046 11.7762 16.4952 11.7229C16.4219 11.3018 16.3787 10.8761 16.366 10.449C16.3608 10.2761 16.2906 10.1116 16.1693 9.98833C16.0479 9.86508 15.8845 9.79221 15.7118 9.7843C15.3491 9.76307 14.9852 9.77632 14.625 9.82387C14.3317 9.86366 14.0422 9.92807 13.7597 10.0164L14.3243 7.26812H17.7218L17.6216 7.56088C16.9305 9.60646 17.0736 11.842 18.0199 13.7828C18.4035 14.5819 18.601 15.4575 18.5976 16.3438C18.5845 17.5228 18.2268 18.6722 17.5687 19.6505C16.9106 20.6288 15.9807 21.3933 14.8935 21.8499C13.8063 22.3065 12.6093 22.4353 11.4499 22.2204C10.2904 22.0055 9.21913 21.4562 8.36791 20.6403C7.24227 19.5752 6.5793 18.1112 6.52139 16.5627C6.50144 16.4657 6.44739 16.3791 6.36906 16.3186C6.29072 16.258 6.19328 16.2275 6.09439 16.2326C5.9955 16.2377 5.90171 16.2781 5.83002 16.3464C5.75834 16.4147 5.7135 16.5064 5.70364 16.6049C5.77061 18.3667 6.52199 20.0329 7.79812 21.2496C8.77061 22.1823 9.99637 22.808 11.3223 23.0484V27.5506C11.3229 27.5862 11.3133 27.6213 11.2946 27.6517C11.2759 27.6821 11.2489 27.7065 11.2168 27.722L8.81107 28.9326C8.6816 28.9953 8.57733 29.1002 8.51545 29.2301C8.45356 29.3599 8.43775 29.507 8.47061 29.647C8.50347 29.787 8.58305 29.9117 8.69624 30.0004C8.80943 30.0892 8.94948 30.1368 9.09332 30.1354H16.0283C16.1714 30.1362 16.3106 30.0885 16.4231 30.0001C16.5356 29.9117 16.6148 29.7878 16.6479 29.6485C16.6809 29.5093 16.6658 29.363 16.6051 29.2335C16.5443 29.104 16.4414 28.9989 16.3132 28.9353L13.9075 27.722C13.8754 27.7065 13.8484 27.6821 13.8297 27.6517C13.811 27.6213 13.8014 27.5862 13.8019 27.5506V23.0457C15.3736 22.7611 16.7961 21.9352 17.8224 20.7115C18.8487 19.4878 19.4142 17.9435 19.4206 16.3464V16.3464ZM3.75688 4.50664L6.34465 7.08613L6.37103 7.16525L2.67799 6.75116C2.84002 5.92315 3.21145 5.15042 3.75688 4.50664V4.50664ZM3.75688 10.9237C2.96157 9.9912 2.54132 8.79641 2.57775 7.57143L6.65856 8.03036L3.75688 10.9237ZM6.86695 6.43994L4.34249 3.92111C4.98762 3.37355 5.76228 3.00035 6.59261 2.83709L6.99884 6.43994H6.86695ZM8.2492 6.43994H7.82978L7.41563 2.74742C8.64174 2.70922 9.83838 3.12747 10.7737 3.92111L8.2492 6.43994ZM15.2159 29.3045H9.90843L11.5861 28.4605C11.7552 28.3761 11.8973 28.2463 11.9966 28.0855C12.0958 27.9248 12.1483 27.7395 12.148 27.5506V23.1459C12.2852 23.1459 12.4118 23.1459 12.5621 23.1459C12.7125 23.1459 12.8259 23.1459 12.9737 23.1459V27.5506C12.9734 27.7395 13.0258 27.9248 13.1251 28.0855C13.2243 28.2463 13.3665 28.3761 13.5355 28.4605L15.2159 29.3045Z" fill="black"/>
</g>
<defs>
<filter id="filter0_d_502_599" x="0.524959" y="0.688961" width="20.1229" height="30.6734" filterUnits="userSpaceOnUse" color-interpolation-filters="sRGB">
<feFlood flood-opacity="0" result="BackgroundImageFix"/>
<feColorMatrix in="SourceAlpha" type="matrix" values="0 0 0 0 0 0 0 0 0 0 0 0 0 0 0 0 0 0 127 0" result="hardAlpha"/>
<feOffset/>
<feGaussianBlur stdDeviation="0.613497"/>
<feComposite in2="hardAlpha" operator="out"/>
<feColorMatrix type="matrix" values="0 0 0 0 0 0 0 0 0 0 0 0 0 0 0 0 0 0 0.25 0"/>
<feBlend mode="normal" in2="BackgroundImageFix" result="effect1_dropShadow_502_599"/>
<feBlend mode="normal" in="SourceGraphic" in2="effect1_dropShadow_502_599" result="shape"/>
</filter>
</defs>
</svg>
