<svg width="34" height="36" viewBox="0 0 34 36" fill="none" xmlns="http://www.w3.org/2000/svg">
<g filter="url(#filter0_d_502_1299)">
<path d="M28.1796 26.7752L25.9919 13.095C25.8884 12.4465 25.557 11.8563 25.0574 11.4302C24.5577 11.0041 23.9226 10.77 23.2659 10.7701H10.9632C10.3066 10.77 9.67138 11.0041 9.17176 11.4302C8.67213 11.8563 8.34077 12.4465 8.23719 13.095L6.04688 26.7752H28.1796Z" fill="#FF9F1C"/>
<path d="M7.53523 26.7752L9.72555 13.095C9.82913 12.4465 10.1605 11.8563 10.6601 11.4302C11.1597 11.0041 11.7949 10.77 12.4516 10.7701H10.9632C10.3066 10.77 9.67138 11.0041 9.17176 11.4302C8.67213 11.8563 8.34077 12.4465 8.23719 13.095L6.04688 26.7752H7.53523V26.7752Z" fill="#FFB864"/>
<path d="M26.2859 14.9211L25.993 13.095C25.8894 12.4465 25.558 11.8563 25.0584 11.4302C24.5588 11.0041 23.9236 10.77 23.267 10.7701H10.9643C10.3076 10.77 9.67243 11.0041 9.1728 11.4302C8.67317 11.8563 8.34182 12.4465 8.23823 13.095L7.94531 14.9211H9.32547C9.44642 14.9211 9.56618 14.9449 9.67792 14.9912C9.78966 15.0375 9.89119 15.1054 9.97671 15.1909C10.0622 15.2764 10.1301 15.3779 10.1764 15.4897C10.2226 15.6014 10.2465 15.7212 10.2465 15.8421V19.3097C10.2399 19.4296 10.2579 19.5497 10.2993 19.6625C10.3407 19.7753 10.4046 19.8785 10.4872 19.9658C10.5698 20.053 10.6694 20.1225 10.7798 20.17C10.8901 20.2175 11.009 20.242 11.1292 20.242C11.2493 20.242 11.3682 20.2175 11.4786 20.17C11.589 20.1225 11.6885 20.053 11.7711 19.9658C11.8538 19.8785 11.9177 19.7753 11.9591 19.6625C12.0005 19.5497 12.0185 19.4296 12.0119 19.3097V17.6023C12.0094 17.2782 12.132 16.9656 12.3542 16.7297C12.5764 16.4937 12.8811 16.3526 13.2047 16.3356C13.371 16.3296 13.5367 16.3571 13.6921 16.4166C13.8475 16.4761 13.9893 16.5663 14.109 16.6818C14.2287 16.7974 14.3239 16.9359 14.3889 17.089C14.4539 17.2422 14.4873 17.4069 14.4872 17.5732V17.9612C14.4798 18.1146 14.5036 18.268 14.5573 18.4119C14.6109 18.5559 14.6932 18.6875 14.7992 18.7987C14.9051 18.9099 15.0326 18.9984 15.1738 19.0589C15.315 19.1194 15.467 19.1506 15.6206 19.1506C15.7743 19.1506 15.9263 19.1194 16.0675 19.0589C16.2087 18.9984 16.3362 18.9099 16.4421 18.7987C16.5481 18.6875 16.6304 18.5559 16.684 18.4119C16.7376 18.268 16.7615 18.1146 16.7541 17.9612V15.85C16.7541 15.6058 16.8511 15.3715 17.0238 15.1988C17.1965 15.0261 17.4308 14.929 17.6751 14.929H20.855C21.0992 14.929 21.3335 15.0261 21.5062 15.1988C21.6789 15.3715 21.776 15.6058 21.776 15.85V20.0723C21.769 20.2071 21.7896 20.3419 21.8364 20.4685C21.8831 20.5951 21.9552 20.7108 22.0482 20.8087C22.1411 20.9065 22.253 20.9845 22.377 21.0377C22.501 21.091 22.6346 21.1184 22.7695 21.1184C22.9045 21.1184 23.038 21.091 23.162 21.0377C23.2861 20.9845 23.3979 20.9065 23.4909 20.8087C23.5838 20.7108 23.6559 20.5951 23.7027 20.4685C23.7495 20.3419 23.77 20.2071 23.7631 20.0723V15.85C23.7631 15.6058 23.8601 15.3715 24.0328 15.1988C24.2055 15.0261 24.4398 14.929 24.6841 14.929L26.2859 14.9211Z" fill="#95AE45"/>
<path d="M12.4526 10.7701H10.9643C10.3076 10.77 9.67243 11.0041 9.1728 11.4302C8.67317 11.8563 8.34182 12.4466 8.23823 13.095L7.94531 14.9211H9.32547C9.36149 14.9185 9.39765 14.9185 9.43367 14.9211L9.72659 13.0739C9.83018 12.4255 10.1615 11.8352 10.6612 11.4091C11.1608 10.983 11.796 10.7489 12.4526 10.749V10.7701Z" fill="#D8EC84"/>
<path d="M12.627 10.7701C13.0109 11.424 13.5587 11.9665 14.2163 12.3441C14.8739 12.7217 15.6186 12.9214 16.3769 12.9235C16.464 12.9235 16.5537 12.9235 16.6408 12.9235L19.2454 12.7625C19.6619 12.7391 20.0671 12.6185 20.4286 12.4105C20.7902 12.2024 21.098 11.9127 21.3275 11.5644C21.4892 11.322 21.6095 11.0545 21.6838 10.7727L12.627 10.7701Z" fill="#D8EC84"/>
<path d="M25.6049 32.1323H8.62333C8.44066 32.1323 8.26547 32.0597 8.1363 31.9305C8.00714 31.8014 7.93457 31.6262 7.93457 31.4435V29.0949H26.2936V31.4435C26.2936 31.6262 26.2211 31.8014 26.0919 31.9305C25.9627 32.0597 25.7875 32.1323 25.6049 32.1323V32.1323Z" fill="#D4D4E8"/>
<path d="M26.2936 30.9447V29.0975H7.93457V31.4461C7.93457 31.6288 8.00714 31.804 8.1363 31.9332C8.26547 32.0623 8.44066 32.1349 8.62333 32.1349H10.3202C10.1375 32.1349 9.96231 32.0623 9.83314 31.9332C9.70397 31.804 9.6314 31.6288 9.6314 31.4461V30.9474L26.2936 30.9447Z" fill="#C6C6E0"/>
<path d="M30.9009 27.274L30.4628 28.3454C30.2688 28.8201 29.9378 29.2263 29.5119 29.512C29.0861 29.7978 28.5848 29.9502 28.072 29.9499H6.16881C5.65569 29.9501 5.15411 29.7976 4.72789 29.5119C4.30167 29.2262 3.97007 28.8201 3.7753 28.3454L3.32932 27.274C3.2757 27.1436 3.25493 27.0021 3.26885 26.8618C3.28277 26.7215 3.33094 26.5868 3.40913 26.4696C3.48733 26.3523 3.59314 26.256 3.71727 26.1892C3.8414 26.1224 3.98004 26.0871 4.121 26.0865H30.0987C30.2396 26.0871 30.3783 26.1224 30.5024 26.1892C30.6265 26.256 30.7323 26.3523 30.8105 26.4696C30.8887 26.5868 30.9369 26.7215 30.9508 26.8618C30.9647 27.0021 30.944 27.1436 30.8903 27.274H30.9009Z" fill="#E9E9FF"/>
<path d="M5.47173 28.3454L5.02312 27.274C4.9695 27.1436 4.94873 27.0021 4.96265 26.8618C4.97657 26.7215 5.02474 26.5868 5.10293 26.4696C5.18113 26.3523 5.28694 26.256 5.41107 26.1892C5.5352 26.1224 5.67384 26.0871 5.8148 26.0865H4.12588C3.98492 26.0871 3.84628 26.1224 3.72215 26.1892C3.59802 26.256 3.49221 26.3523 3.41402 26.4696C3.33583 26.5868 3.28765 26.7215 3.27374 26.8618C3.25982 27.0021 3.28058 27.1436 3.3342 27.274L3.76962 28.3454C3.9644 28.8201 4.29599 29.2262 4.72221 29.5119C5.14843 29.7976 5.65001 29.95 6.16313 29.9499H7.84677C7.33664 29.9471 6.83877 29.7932 6.41605 29.5076C5.99333 29.2221 5.66472 28.8176 5.47173 28.3454Z" fill="#D4D4E8"/>
<path d="M14.6921 7.52421L14.6552 7.48462C14.4987 7.32006 14.3113 7.18799 14.1037 7.09598C13.8961 7.00397 13.6724 6.95383 13.4454 6.94844C13.2184 6.94305 12.9925 6.9825 12.7808 7.06455C12.5691 7.1466 12.3756 7.26962 12.2115 7.42657L11.5887 8.02296C11.5258 8.08445 11.4792 8.1607 11.4532 8.24478C11.4272 8.32885 11.4227 8.41809 11.44 8.50437C11.4573 8.59066 11.4959 8.67124 11.5523 8.73879C11.6087 8.80635 11.6811 8.85873 11.7629 8.89117L12.5546 9.19993C12.7666 9.28229 12.9928 9.32188 13.2202 9.3164C13.4475 9.31091 13.6716 9.26048 13.8794 9.16799C14.0871 9.07551 14.2746 8.9428 14.4308 8.77753C14.5871 8.61226 14.7091 8.4177 14.7898 8.20505L14.8082 8.15755C14.8489 8.05076 14.8585 7.93467 14.8361 7.82263C14.8137 7.71059 14.7601 7.60715 14.6816 7.52421H14.6921Z" fill="#95AE45"/>
<path d="M15.0513 6.98323L15.0038 6.96212C14.5777 6.79957 14.2336 6.4745 14.047 6.05836C13.8605 5.64221 13.8468 5.16902 14.0089 4.74278L14.3177 3.9511C14.3501 3.86929 14.4025 3.7969 14.4701 3.74051C14.5376 3.68412 14.6182 3.64551 14.7045 3.6282C14.7908 3.61089 14.88 3.61543 14.9641 3.64141C15.0481 3.66738 15.1244 3.71397 15.1859 3.77693L15.7823 4.39971C15.9392 4.56382 16.0623 4.75728 16.1443 4.96901C16.2263 5.18074 16.2658 5.40658 16.2604 5.63359C16.255 5.8606 16.2049 6.08431 16.1129 6.29191C16.0209 6.4995 15.8888 6.6869 15.7242 6.84337L15.6846 6.85392C15.6018 6.93268 15.4985 6.98657 15.3865 7.00944C15.2745 7.0323 15.1584 7.02322 15.0513 6.98323Z" fill="#95AE45"/>
<path d="M15.0407 7.75379L14.9932 7.77491C14.7858 7.86767 14.5622 7.9186 14.3351 7.92475C14.1081 7.93091 13.882 7.89218 13.6699 7.81078C13.4579 7.72938 13.264 7.60692 13.0993 7.45042C12.9347 7.29392 12.8025 7.10646 12.7105 6.89878L12.3622 6.1071C12.3277 6.02585 12.3142 5.93726 12.3228 5.84943C12.3315 5.76161 12.362 5.67735 12.4116 5.60437C12.4612 5.53139 12.5284 5.47202 12.6069 5.43168C12.6854 5.39134 12.7727 5.37133 12.8609 5.37348L13.7212 5.39459C13.9482 5.39938 14.172 5.44898 14.3798 5.54054C14.5876 5.6321 14.7752 5.76381 14.9319 5.92812C15.0886 6.09242 15.2113 6.28607 15.2929 6.49793C15.3745 6.7098 15.4135 6.93571 15.4075 7.16267V7.21545C15.4026 7.32808 15.3664 7.43711 15.303 7.53033C15.2396 7.62355 15.1515 7.69727 15.0486 7.74324L15.0407 7.75379Z" fill="#95AE45"/>
<path d="M16.7529 5.22307H16.774C17.3599 5.2444 17.9256 5.44263 18.3966 5.79167C18.8677 6.14072 19.222 6.62421 19.4129 7.17852L20.2706 9.64064C20.3345 9.82506 20.3548 10.0218 20.33 10.2154C20.3052 10.409 20.2358 10.5942 20.1275 10.7565C20.0191 10.9188 19.8746 11.0538 19.7053 11.151C19.536 11.2481 19.3465 11.3047 19.1517 11.3164L16.555 11.4773C15.9695 11.5118 15.3872 11.3692 14.884 11.0679C14.3808 10.7667 13.98 10.3208 13.7339 9.78842V9.76995C13.5937 9.46665 13.5337 9.13246 13.5596 8.79933C13.5854 8.4662 13.6964 8.14529 13.8817 7.86728L15.064 6.09128C15.2495 5.81344 15.5031 5.58776 15.8006 5.43577C16.0981 5.28379 16.4296 5.21056 16.7634 5.22307H16.7529Z" fill="#C32F27"/>
<path d="M17.7528 11.0498C17.1669 11.0873 16.5833 10.9462 16.0792 10.6452C15.575 10.3441 15.1741 9.89725 14.9292 9.36357V9.3451C14.7895 9.04168 14.7297 8.70757 14.7556 8.37454C14.7815 8.04151 14.8921 7.72063 15.077 7.44243L16.2539 5.66642C16.3654 5.49752 16.5036 5.3478 16.663 5.22308C16.3442 5.22586 16.031 5.30639 15.7505 5.45769C15.47 5.60899 15.2306 5.82649 15.0532 6.09129L13.871 7.86729C13.6856 8.1453 13.5747 8.46622 13.5488 8.79935C13.523 9.13248 13.583 9.46667 13.7232 9.76997V9.78844C13.9699 10.3226 14.3724 10.7696 14.8777 11.071C15.383 11.3724 15.9676 11.514 16.5548 11.4774L19.1568 11.3164C19.4827 11.2982 19.7886 11.1533 20.0091 10.9126L17.7528 11.0498Z" fill="#ED5C58"/>
<path d="M7.54913 17.4097H7.61774C7.71997 17.4097 7.81887 17.3734 7.89673 17.3071C7.97458 17.2409 8.0263 17.1491 8.04261 17.0481L8.3065 15.3592H9.32513C9.45485 15.3599 9.57902 15.4119 9.6705 15.5039C9.76198 15.5959 9.81333 15.7203 9.81333 15.8501V19.3097C9.81333 19.6596 9.95235 19.9953 10.1998 20.2427C10.4472 20.4902 10.7829 20.6292 11.1328 20.6292C11.4827 20.6292 11.8184 20.4902 12.0658 20.2427C12.3132 19.9953 12.4523 19.6596 12.4523 19.3097V17.6023C12.45 17.3874 12.5313 17.1801 12.679 17.024C12.8267 16.8679 13.0293 16.7753 13.2439 16.7658C13.3522 16.7622 13.46 16.7805 13.5611 16.8195C13.6621 16.8585 13.7543 16.9174 13.8321 16.9927C13.9099 17.0681 13.9717 17.1583 14.014 17.258C14.0562 17.3578 14.0779 17.465 14.0778 17.5733V17.9612C14.0778 18.3762 14.2427 18.7743 14.5362 19.0677C14.8297 19.3612 15.2277 19.5261 15.6427 19.5261C16.0578 19.5261 16.4558 19.3612 16.7493 19.0677C17.0428 18.7743 17.2076 18.3762 17.2076 17.9612V15.8501C17.2083 15.7201 17.2603 15.5956 17.3522 15.5037C17.4441 15.4118 17.5685 15.3599 17.6985 15.3592H20.8546C20.9846 15.3599 21.109 15.4118 21.2009 15.5037C21.2928 15.5956 21.3448 15.7201 21.3455 15.8501V20.0724C21.3372 20.2645 21.3679 20.4563 21.4357 20.6362C21.5035 20.8162 21.6071 20.9805 21.7401 21.1194C21.8731 21.2583 22.0328 21.3688 22.2097 21.4443C22.3866 21.5198 22.5769 21.5587 22.7692 21.5587C22.9615 21.5587 23.1518 21.5198 23.3286 21.4443C23.5055 21.3688 23.6652 21.2583 23.7983 21.1194C23.9313 20.9805 24.0348 20.8162 24.1026 20.6362C24.1705 20.4563 24.2012 20.2645 24.1929 20.0724V18.9191C24.1929 18.8051 24.1476 18.6956 24.0669 18.615C23.9862 18.5343 23.8768 18.489 23.7627 18.489C23.6487 18.489 23.5392 18.5343 23.4586 18.615C23.3779 18.6956 23.3326 18.8051 23.3326 18.9191V20.0671C23.3379 20.1443 23.3272 20.2218 23.3013 20.2947C23.2754 20.3677 23.2348 20.4345 23.1819 20.4911C23.1291 20.5477 23.0652 20.5928 22.9942 20.6236C22.9232 20.6545 22.8466 20.6704 22.7692 20.6704C22.6918 20.6704 22.6152 20.6545 22.5442 20.6236C22.4732 20.5928 22.4093 20.5477 22.3564 20.4911C22.3036 20.4345 22.263 20.3677 22.237 20.2947C22.2111 20.2218 22.2005 20.1443 22.2058 20.0671V15.8448C22.2051 15.4867 22.0625 15.1434 21.8093 14.8902C21.556 14.6369 21.2128 14.4943 20.8546 14.4936H17.6747C17.3166 14.4943 16.9733 14.6369 16.7201 14.8902C16.4669 15.1434 16.3243 15.4867 16.3236 15.8448V17.9559C16.3295 18.0519 16.3156 18.1481 16.283 18.2385C16.2503 18.3289 16.1994 18.4117 16.1335 18.4818C16.0677 18.5518 15.9881 18.6076 15.8999 18.6458C15.8116 18.6839 15.7165 18.7036 15.6203 18.7036C15.5241 18.7036 15.429 18.6839 15.3407 18.6458C15.2525 18.6076 15.173 18.5518 15.1071 18.4818C15.0412 18.4117 14.9903 18.3289 14.9577 18.2385C14.925 18.1481 14.9111 18.0519 14.917 17.9559V17.5733C14.9172 17.3491 14.8721 17.1271 14.7845 16.9207C14.6969 16.7143 14.5686 16.5277 14.4073 16.372C14.2459 16.2163 14.0548 16.0947 13.8454 16.0146C13.636 15.9344 13.4126 15.8973 13.1885 15.9055C12.7542 15.9285 12.3453 16.1173 12.0463 16.4331C11.7472 16.7489 11.5808 17.1674 11.5814 17.6023V19.3097C11.5862 19.372 11.578 19.4347 11.5574 19.4937C11.5368 19.5528 11.5043 19.6069 11.4618 19.6528C11.4193 19.6986 11.3678 19.7352 11.3105 19.7602C11.2532 19.7853 11.1914 19.7982 11.1288 19.7982C11.0663 19.7982 11.0045 19.7853 10.9472 19.7602C10.8899 19.7352 10.8384 19.6986 10.7959 19.6528C10.7534 19.6069 10.7208 19.5528 10.7002 19.4937C10.6797 19.4347 10.6715 19.372 10.6763 19.3097V15.8421C10.6756 15.484 10.533 15.1408 10.2798 14.8875C10.0265 14.6343 9.68326 14.4917 9.32513 14.491H8.449L8.66276 13.1715C8.74856 12.6236 9.02787 12.1245 9.45003 11.7648C9.8722 11.4051 10.4093 11.2086 10.9639 11.2108H12.4523C12.5609 11.2023 12.6623 11.1532 12.7362 11.0732C12.8102 10.9932 12.8513 10.8883 12.8513 10.7794C12.8513 10.6704 12.8102 10.5655 12.7362 10.4855C12.6623 10.4055 12.5609 10.3564 12.4523 10.3479H10.9639C10.2049 10.3426 9.46918 10.6102 8.89085 11.1018C8.31252 11.5934 7.93002 12.2764 7.81302 13.0264L7.19287 16.903C7.18151 16.9598 7.18181 17.0183 7.19376 17.075C7.20571 17.1317 7.22905 17.1853 7.26236 17.2327C7.29568 17.2801 7.33828 17.3202 7.38757 17.3506C7.43687 17.3811 7.49183 17.4011 7.54913 17.4097V17.4097Z" fill="black"/>
<path d="M31.1752 26.2264C31.057 26.0508 30.8975 25.9069 30.7107 25.8075C30.5238 25.7081 30.3154 25.6562 30.1038 25.6563H28.4307L26.4172 13.0264C26.2999 12.2757 25.9177 11.5917 25.3397 11.0984C24.7617 10.6052 24.0262 10.3352 23.2663 10.3373H21.7674C21.7079 10.3327 21.6481 10.3404 21.5917 10.3599C21.5353 10.3795 21.4836 10.4105 21.4398 10.4511C21.396 10.4916 21.361 10.5407 21.3371 10.5954C21.3132 10.6501 21.3008 10.7091 21.3008 10.7688C21.3008 10.8285 21.3132 10.8875 21.3371 10.9422C21.361 10.9969 21.396 11.046 21.4398 11.0865C21.4836 11.1271 21.5353 11.1581 21.5917 11.1777C21.6481 11.1972 21.7079 11.2049 21.7674 11.2003H23.2663C23.8208 11.1985 24.3576 11.3953 24.7796 11.7549C25.2017 12.1145 25.4811 12.6133 25.5675 13.161L25.7786 14.4805H24.6834C24.3253 14.4812 23.982 14.6237 23.7288 14.877C23.4756 15.1302 23.333 15.4735 23.3323 15.8316V17.0402C23.3323 17.1543 23.3776 17.2637 23.4583 17.3444C23.5389 17.4251 23.6483 17.4704 23.7624 17.4704C23.8765 17.4704 23.9859 17.4251 24.0666 17.3444C24.1473 17.2637 24.1926 17.1543 24.1926 17.0402V15.8421C24.1933 15.7122 24.2452 15.5877 24.3371 15.4958C24.429 15.4039 24.5535 15.352 24.6834 15.3513H25.9158L27.5651 25.6563H6.66478L7.72036 18.9957C7.73855 18.883 7.71124 18.7677 7.64443 18.6752C7.57762 18.5826 7.47678 18.5204 7.3641 18.5022C7.25142 18.484 7.13612 18.5113 7.04358 18.5781C6.95103 18.6449 6.88882 18.7458 6.87062 18.8585L5.7913 25.6563H4.12613C3.9138 25.6556 3.70456 25.7072 3.51697 25.8067C3.32937 25.9062 3.16922 26.0504 3.05072 26.2266C2.93222 26.4028 2.85902 26.6055 2.83762 26.8167C2.81623 27.028 2.84729 27.2413 2.92805 27.4376L3.36084 28.5064C3.58638 29.0617 3.97264 29.5369 4.47008 29.8712C4.96753 30.2055 5.55349 30.3836 6.15283 30.3827H7.49869V31.4382C7.49869 31.735 7.61657 32.0196 7.82641 32.2294C8.03624 32.4393 8.32084 32.5572 8.61759 32.5572H25.6044C25.9014 32.5572 26.1863 32.4394 26.3965 32.2296C26.6068 32.0198 26.7253 31.7352 26.726 31.4382V30.3827H28.0718C28.6709 30.3842 29.2568 30.2062 29.7539 29.8718C30.2511 29.5375 30.6367 29.0619 30.8612 28.5064L31.2992 27.4376C31.3796 27.2415 31.4103 27.0286 31.3887 26.8178C31.3671 26.6069 31.2937 26.4047 31.1752 26.229V26.2264ZM30.5023 27.1104L30.0642 28.1818C29.9036 28.5782 29.628 28.9174 29.2729 29.1559C28.9178 29.3943 28.4995 29.521 28.0718 29.5197H23.2135C23.1049 29.5282 23.0035 29.5774 22.9296 29.6574C22.8556 29.7373 22.8145 29.8423 22.8145 29.9512C22.8145 30.0601 22.8556 30.1651 22.9296 30.2451C23.0035 30.325 23.1049 30.3742 23.2135 30.3827H25.8525V31.4382C25.8525 31.5082 25.8247 31.5754 25.7752 31.6248C25.7257 31.6743 25.6586 31.7021 25.5886 31.7021H8.62287C8.55288 31.7021 8.48576 31.6743 8.43627 31.6248C8.38678 31.5754 8.35898 31.5082 8.35898 31.4382V30.3827H21.1446C21.2041 30.3873 21.2639 30.3796 21.3203 30.3601C21.3767 30.3405 21.4284 30.3095 21.4722 30.2689C21.516 30.2284 21.551 30.1793 21.5749 30.1246C21.5988 30.0699 21.6112 30.0109 21.6112 29.9512C21.6112 29.8915 21.5988 29.8325 21.5749 29.7778C21.551 29.7231 21.516 29.674 21.4722 29.6335C21.4284 29.5929 21.3767 29.5619 21.3203 29.5424C21.2639 29.5228 21.2041 29.5151 21.1446 29.5197H6.15811C5.72832 29.523 5.30745 29.3972 4.94991 29.1587C4.59237 28.9202 4.3146 28.5799 4.15252 28.1818L3.72765 27.1104C3.70006 27.045 3.68916 26.9738 3.69595 26.9032C3.70273 26.8326 3.72699 26.7648 3.76652 26.7059C3.80605 26.647 3.85962 26.5988 3.9224 26.5658C3.98518 26.5328 4.05519 26.5159 4.12613 26.5166H30.1038C30.1743 26.5172 30.2435 26.5349 30.3056 26.5683C30.3677 26.6017 30.4206 26.6497 30.4599 26.7082C30.4992 26.7668 30.5236 26.834 30.5309 26.9041C30.5383 26.9742 30.5285 27.045 30.5023 27.1104V27.1104Z" fill="black"/>
<path d="M11.6079 9.29231L12.3996 9.6037C12.6473 9.69855 12.9102 9.74773 13.1754 9.74884H13.2388C13.2625 9.81746 13.2889 9.88607 13.3206 9.95468V9.97315C13.5875 10.5565 14.0176 11.05 14.559 11.3942C15.1003 11.7384 15.7297 11.9185 16.3712 11.9128H16.5796L19.1816 11.7544C19.4446 11.7394 19.7004 11.6633 19.9288 11.5322C20.1572 11.4011 20.3518 11.2185 20.4973 10.999C20.6428 10.7794 20.7352 10.529 20.767 10.2676C20.7988 10.0061 20.7692 9.74087 20.6805 9.49287L19.8255 7.03074C19.6069 6.39315 19.1996 5.83713 18.6575 5.4365C18.1155 5.03587 17.4644 4.80957 16.7908 4.78765H16.7696C16.6958 4.78369 16.6218 4.78369 16.548 4.78765C16.4469 4.52011 16.2924 4.27591 16.0941 4.06986L15.5003 3.45499C15.3895 3.33765 15.2506 3.2504 15.0968 3.20143C14.943 3.15246 14.7793 3.14338 14.621 3.17504C14.4627 3.2067 14.3151 3.27805 14.1919 3.38241C14.0688 3.48677 13.9741 3.62071 13.917 3.77166L13.6056 4.56334C13.5582 4.68833 13.522 4.81726 13.4974 4.94862L12.8614 4.94335C12.7004 4.93968 12.5411 4.97677 12.3983 5.05116C12.2555 5.12555 12.1338 5.23484 12.0446 5.36885C11.9553 5.50287 11.9014 5.65727 11.8878 5.81772C11.8742 5.97816 11.9014 6.13944 11.9668 6.28656L12.2307 6.86713C12.12 6.9408 12.0158 7.02379 11.9193 7.11519L11.2965 7.71159C11.1792 7.82244 11.0919 7.96128 11.0429 8.1151C10.994 8.26891 10.9849 8.43264 11.0165 8.59092C11.0482 8.74921 11.1196 8.89685 11.2239 9.02C11.3283 9.14315 11.4622 9.23776 11.6132 9.29495L11.6079 9.29231ZM16.738 5.65322H16.7591C17.2588 5.67 17.7417 5.83822 18.1437 6.13559C18.5457 6.43295 18.8478 6.84544 19.0101 7.31839L19.8678 9.78315C19.9095 9.90473 19.9225 10.0343 19.9059 10.1618C19.8892 10.2892 19.8434 10.4111 19.7718 10.5179C19.7003 10.6247 19.605 10.7135 19.4935 10.7774C19.382 10.8413 19.2572 10.8785 19.1289 10.8862L16.5269 11.0472C16.0276 11.0791 15.5305 10.9587 15.1012 10.7019C14.6719 10.4451 14.3307 10.0639 14.1228 9.60898V9.59051C14.0147 9.35377 13.9686 9.0934 13.9889 8.83394C14.0092 8.57448 14.0953 8.32446 14.2389 8.10743L15.4132 6.32615C15.5532 6.1177 15.742 5.94668 15.9633 5.828C16.1846 5.70932 16.4315 5.6466 16.6826 5.6453L16.738 5.65322ZM14.7086 4.08041C14.7146 4.0655 14.7243 4.05235 14.7368 4.0422C14.7492 4.03204 14.7641 4.02522 14.7799 4.02236H14.7984C14.811 4.02253 14.8234 4.02546 14.8348 4.03093C14.8462 4.03639 14.8563 4.04428 14.8643 4.05403L15.4607 4.67417C15.5574 4.77201 15.6384 4.88416 15.7009 5.00668C15.4571 5.11789 15.2333 5.26857 15.0385 5.45266C14.8364 5.28511 14.6045 5.15709 14.355 5.07529C14.3695 5.01172 14.388 4.94914 14.4104 4.88793L14.7086 4.08041ZM12.7532 5.84586C12.7616 5.83337 12.773 5.8232 12.7864 5.81628C12.7998 5.80936 12.8147 5.80592 12.8297 5.80628V5.80628L13.69 5.82475C13.9874 5.82955 14.2739 5.93778 14.5002 6.13087L13.6847 7.35269C13.4202 7.21816 13.2104 6.99625 13.091 6.72463L12.7426 5.93295C12.7345 5.91891 12.7303 5.90298 12.7303 5.88677C12.7303 5.87055 12.7345 5.85462 12.7426 5.84058L12.7532 5.84586ZM11.8771 8.33438L12.4998 7.73798C12.5469 7.69304 12.5972 7.65158 12.6503 7.61395C12.8221 7.81344 13.0298 7.97902 13.2625 8.10215C13.1664 8.3554 13.1138 8.62306 13.1068 8.89383C12.9712 8.88659 12.8377 8.85809 12.711 8.80938L11.9193 8.50063C11.9041 8.49509 11.8907 8.48554 11.8804 8.473C11.8702 8.46046 11.8636 8.44538 11.8612 8.42938C11.8551 8.41277 11.8544 8.39467 11.8591 8.37763C11.8639 8.36058 11.8738 8.34545 11.8876 8.33438H11.8771Z" fill="black"/>
<path d="M15.4056 8.84105C15.357 8.89208 15.3202 8.95311 15.2977 9.01987C15.2752 9.08663 15.2676 9.1575 15.2754 9.22751C15.2832 9.29752 15.3063 9.36498 15.3429 9.42515C15.3795 9.48531 15.4289 9.53674 15.4875 9.57581C15.5461 9.61489 15.6126 9.64067 15.6822 9.65134C15.7518 9.66202 15.823 9.65733 15.8906 9.63761C15.9582 9.61789 16.0207 9.58361 16.0737 9.53718C16.1267 9.49075 16.1688 9.43329 16.1973 9.36884C16.2431 9.26481 16.2508 9.14794 16.219 9.0388C16.1872 8.92966 16.1179 8.83524 16.0233 8.77218C15.9287 8.70912 15.8149 8.68145 15.7019 8.69405C15.5889 8.70664 15.484 8.7587 15.4056 8.84105V8.84105Z" fill="black"/>
<path d="M16.7158 7.74588C16.7953 7.79869 16.8887 7.82675 16.9842 7.8265C17.0796 7.82626 17.1729 7.79772 17.2522 7.74449C17.3314 7.69127 17.3931 7.61575 17.4295 7.52747C17.4658 7.43919 17.4752 7.34212 17.4564 7.24851C17.4376 7.15491 17.3915 7.06898 17.3239 7.00158C17.2563 6.93417 17.1702 6.88832 17.0765 6.86982C16.9829 6.85131 16.8858 6.86098 16.7977 6.89761C16.7095 6.93423 16.6342 6.99617 16.5812 7.07559C16.5459 7.12842 16.5215 7.18768 16.5092 7.24998C16.4968 7.31227 16.4969 7.37639 16.5095 7.43865C16.522 7.50091 16.5466 7.56009 16.582 7.61281C16.6174 7.66553 16.6629 7.71075 16.7158 7.74588V7.74588Z" fill="black"/>
<path d="M17.408 8.8991C17.3548 8.97842 17.3263 9.07173 17.3262 9.16723C17.326 9.26273 17.3542 9.35614 17.4071 9.43564C17.46 9.51515 17.5353 9.57718 17.6234 9.6139C17.7116 9.65061 17.8087 9.66036 17.9024 9.64192C17.9961 9.62347 18.0822 9.57766 18.1499 9.51027C18.2175 9.44288 18.2637 9.35693 18.2825 9.26331C18.3014 9.16968 18.292 9.07257 18.2557 8.98426C18.2193 8.89595 18.1576 8.8204 18.0783 8.76716C17.9717 8.69643 17.8415 8.67061 17.716 8.69532C17.5905 8.72002 17.4798 8.79326 17.408 8.8991Z" fill="black"/>
</g>
<defs>
<filter id="filter0_d_502_1299" x="0.377067" y="0.702552" width="33.4724" height="34.3086" filterUnits="userSpaceOnUse" color-interpolation-filters="sRGB">
<feFlood flood-opacity="0" result="BackgroundImageFix"/>
<feColorMatrix in="SourceAlpha" type="matrix" values="0 0 0 0 0 0 0 0 0 0 0 0 0 0 0 0 0 0 127 0" result="hardAlpha"/>
<feOffset/>
<feGaussianBlur stdDeviation="1.22699"/>
<feComposite in2="hardAlpha" operator="out"/>
<feColorMatrix type="matrix" values="0 0 0 0 0 0 0 0 0 0 0 0 0 0 0 0 0 0 0.35 0"/>
<feBlend mode="normal" in2="BackgroundImageFix" result="effect1_dropShadow_502_1299"/>
<feBlend mode="normal" in="SourceGraphic" in2="effect1_dropShadow_502_1299" result="shape"/>
</filter>
</defs>
</svg>
