<svg width="30" height="30" viewBox="0 0 30 30" fill="none" xmlns="http://www.w3.org/2000/svg">
<path d="M29.1199 27.9611L23.8421 4.49838C23.6132 4.90019 23.2818 5.23405 22.8817 5.46586C22.4816 5.69768 22.0271 5.81914 21.5647 5.81785C18.0345 5.81896 14.6117 7.03156 11.8681 9.25301C9.12456 11.4745 7.22649 14.5702 6.49109 18.0229L6.40137 20.8334H7.49389C8.0335 20.8334 8.55101 21.0477 8.93258 21.4293C9.31414 21.8109 9.5285 22.3284 9.5285 22.868V27.5072C9.5206 27.6821 9.54823 27.8568 9.60972 28.0208C9.6712 28.1847 9.76527 28.3344 9.88625 28.461C10.0072 28.5876 10.1526 28.6883 10.3136 28.7571C10.4746 28.8259 10.6478 28.8614 10.8229 28.8614C10.998 28.8614 11.1712 28.8259 11.3322 28.7571C11.4932 28.6883 11.6386 28.5876 11.7595 28.461C11.8805 28.3344 11.9746 28.1847 12.0361 28.0208C12.0976 27.8568 12.1252 27.6821 12.1173 27.5072V26.7815C12.1173 26.5468 12.2103 26.3217 12.3761 26.1555C12.5418 25.9893 12.7666 25.8956 13.0013 25.8949C13.1483 25.8953 13.2931 25.8591 13.4226 25.7895C13.5521 25.72 13.6621 25.6192 13.7429 25.4964L28.2992 28.7766C28.4123 28.8022 28.5299 28.7987 28.6413 28.7665C28.7526 28.7344 28.854 28.6745 28.9359 28.5926C29.0179 28.5106 29.0777 28.4092 29.1099 28.2979C29.1421 28.1866 29.1455 28.0689 29.1199 27.9559V27.9611Z" fill="#95AE45"/>
<path d="M6.9686 6.62535C8.88201 4.70886 11.1548 3.18879 13.6567 2.15224C16.1587 1.11569 18.8405 0.58305 21.5487 0.584833C21.8993 0.573697 22.2486 0.633135 22.5757 0.759615C22.9029 0.886095 23.2013 1.07704 23.4533 1.3211C23.7052 1.56517 23.9055 1.85738 24.0423 2.18037C24.1791 2.50337 24.2496 2.85056 24.2496 3.20134C24.2496 3.55211 24.1791 3.8993 24.0423 4.2223C23.9055 4.54529 23.7052 4.8375 23.4533 5.08157C23.2013 5.32563 22.9029 5.51658 22.5757 5.64306C22.2486 5.76954 21.8993 5.82897 21.5487 5.81784C17.4691 5.82273 13.5581 7.44549 10.6734 10.3302C7.78873 13.2148 6.16597 17.1259 6.16108 21.2055C6.17222 21.5561 6.11278 21.9053 5.9863 22.2325C5.85982 22.5597 5.66888 22.8581 5.42481 23.11C5.18075 23.362 4.88854 23.5623 4.56554 23.6991C4.24255 23.8359 3.89535 23.9064 3.54458 23.9064C3.19381 23.9064 2.84661 23.8359 2.52362 23.6991C2.20062 23.5623 1.90841 23.362 1.66435 23.11C1.42028 22.8581 1.22934 22.5597 1.10286 22.2325C0.976379 21.9053 0.916942 21.5561 0.928077 21.2055C0.926294 18.4973 1.45894 15.8154 2.49548 13.3135C3.53203 10.8116 5.0521 8.53876 6.9686 6.62535V6.62535Z" fill="#FF9F1C"/>
<path d="M7.49392 20.8334H6.40141L6.16126 21.245C6.15522 21.6999 6.03026 22.1453 5.79879 22.537C5.56731 22.9287 5.23739 23.2529 4.8418 23.4776V23.4776L9.53382 24.5332V22.868C9.53382 22.6008 9.48119 22.3362 9.37894 22.0894C9.2767 21.8425 9.12683 21.6182 8.93789 21.4293C8.74896 21.2404 8.52467 21.0905 8.27782 20.9882C8.03097 20.886 7.76639 20.8334 7.4992 20.8334H7.49392Z" fill="#FFCB7C"/>
<path d="M14.9384 18.0018C16.8185 18.0018 18.3426 16.4777 18.3426 14.5976C18.3426 12.7175 16.8185 11.1933 14.9384 11.1933C13.0583 11.1933 11.5342 12.7175 11.5342 14.5976C11.5342 16.4777 13.0583 18.0018 14.9384 18.0018Z" fill="#C32F27"/>
<path d="M27.1988 19.4268C26.7557 19.8159 26.219 20.0832 25.6414 20.2023C25.0639 20.3214 24.4652 20.2883 23.9043 20.1063C23.3434 19.9242 22.8394 19.5995 22.4419 19.1639C22.0443 18.7284 21.7668 18.1969 21.6367 17.6217C21.5065 17.0466 21.5281 16.4474 21.6993 15.8831C21.8705 15.3188 22.1855 14.8087 22.6134 14.4029C23.0412 13.997 23.5672 13.7094 24.1398 13.5682C24.7124 13.427 25.3118 13.437 25.8793 13.5974L27.1988 19.4268Z" fill="#C32F27"/>
<path d="M22.3821 10.0032L21.3107 11.0588C21.2727 11.0971 21.2275 11.1275 21.1776 11.1482C21.1278 11.1689 21.0744 11.1796 21.0204 11.1796C20.9665 11.1796 20.913 11.1689 20.8632 11.1482C20.8134 11.1275 20.7682 11.0971 20.7301 11.0588L19.6587 10.0032C19.5827 9.92572 19.54 9.82148 19.54 9.71291C19.54 9.60433 19.5827 9.5001 19.6587 9.42262L20.7301 8.35122C20.7682 8.31292 20.8134 8.28252 20.8632 8.26178C20.913 8.24104 20.9665 8.23036 21.0204 8.23036C21.0744 8.23036 21.1278 8.24104 21.1776 8.26178C21.2275 8.28252 21.2727 8.31292 21.3107 8.35122L22.3821 9.42262C22.4204 9.46064 22.4508 9.50587 22.4716 9.55569C22.4923 9.60551 22.503 9.65894 22.503 9.71291C22.503 9.76687 22.4923 9.82031 22.4716 9.87013C22.4508 9.91995 22.4204 9.96517 22.3821 10.0032V10.0032Z" fill="#D8EC84"/>
<path d="M26.0457 23.8259V25.3037C26.0457 25.4101 26.0034 25.5121 25.9282 25.5874C25.853 25.6626 25.7509 25.7048 25.6445 25.7048H24.1667C24.1141 25.7048 24.0619 25.6945 24.0132 25.6743C23.9646 25.6542 23.9204 25.6246 23.8831 25.5874C23.8459 25.5501 23.8163 25.5059 23.7962 25.4572C23.776 25.4086 23.7656 25.3564 23.7656 25.3037V23.8259C23.7663 23.72 23.8089 23.6187 23.884 23.544C23.9592 23.4693 24.0608 23.4274 24.1667 23.4275H25.6445C25.7505 23.4274 25.8521 23.4693 25.9272 23.544C26.0024 23.6187 26.045 23.72 26.0457 23.8259V23.8259Z" fill="#D8EC84"/>
<path d="M14.0769 25.5703C13.9578 25.2165 13.8972 24.8457 13.8975 24.4725C13.8969 23.9142 14.0337 23.3644 14.2957 22.8715C14.5577 22.3786 14.937 21.9576 15.4 21.6458C15.863 21.3339 16.3956 21.1407 16.9509 21.0832C17.5061 21.0257 18.067 21.1056 18.5841 21.3159C19.1013 21.5262 19.5587 21.8604 19.9162 22.2892C20.2737 22.7179 20.5203 23.228 20.6343 23.7745C20.7482 24.321 20.726 24.8871 20.5696 25.423C20.4132 25.9589 20.1274 26.4481 19.7374 26.8475L14.0769 25.5703Z" fill="#C32F27"/>
<path d="M14.9378 10.6207C14.1513 10.6207 13.3824 10.8539 12.7284 11.2909C12.0744 11.7279 11.5647 12.349 11.2637 13.0757C10.9627 13.8024 10.8839 14.602 11.0374 15.3734C11.1908 16.1449 11.5696 16.8535 12.1257 17.4097C12.6819 17.9658 13.3905 18.3446 14.162 18.498C14.9334 18.6515 15.733 18.5727 16.4597 18.2717C17.1864 17.9707 17.8075 17.461 18.2445 16.807C18.6814 16.153 18.9147 15.3841 18.9147 14.5976C18.9133 13.5433 18.4938 12.5326 17.7483 11.7871C17.0028 11.0415 15.9921 10.6221 14.9378 10.6207V10.6207ZM14.9378 17.4292C14.3779 17.4286 13.8307 17.2621 13.3654 16.9507C12.9001 16.6392 12.5376 16.1968 12.3237 15.6794C12.1097 15.1619 12.0541 14.5927 12.1636 14.0436C12.2732 13.4945 12.543 12.9902 12.9392 12.5944C13.3353 12.1987 13.8398 11.9293 14.389 11.8202C14.9382 11.7112 15.5074 11.7674 16.0247 11.9818C16.5419 12.1962 16.984 12.5591 17.295 13.0247C17.606 13.4903 17.772 14.0377 17.772 14.5976C17.7713 15.3488 17.4724 16.069 16.941 16.6C16.4095 17.1309 15.689 17.4292 14.9378 17.4292V17.4292Z" fill="black"/>
<path d="M15.992 13.0221C15.8609 13.0233 15.7343 13.0698 15.6337 13.1537C15.5331 13.2376 15.4646 13.3538 15.4399 13.4825C15.4152 13.6112 15.4358 13.7445 15.4982 13.8597C15.5606 13.9749 15.661 14.065 15.7822 14.1146C15.9035 14.1642 16.0382 14.1703 16.1635 14.1319C16.2888 14.0934 16.3969 14.0128 16.4695 13.9037C16.542 13.7946 16.5746 13.6637 16.5616 13.5333C16.5487 13.4029 16.491 13.2811 16.3983 13.1884C16.2896 13.0824 16.1438 13.0228 15.992 13.0221V13.0221Z" fill="black"/>
<path d="M13.6372 13.5789C13.5032 13.5779 13.3731 13.6234 13.269 13.7076C13.1649 13.7919 13.0933 13.9097 13.0664 14.0409C13.0396 14.1721 13.0591 14.3086 13.1217 14.427C13.1843 14.5454 13.286 14.6383 13.4096 14.69C13.5331 14.7417 13.6708 14.7489 13.7991 14.7103C13.9273 14.6717 14.0382 14.5898 14.1127 14.4786C14.1873 14.3673 14.2209 14.2336 14.2078 14.1003C14.1947 13.967 14.1357 13.8425 14.0409 13.7478C13.9881 13.6944 13.9253 13.6519 13.856 13.6229C13.7867 13.5939 13.7123 13.579 13.6372 13.5789V13.5789Z" fill="black"/>
<path d="M15.2973 15.3391C15.145 15.3407 14.9994 15.4013 14.8909 15.508C14.7844 15.6165 14.7247 15.7624 14.7246 15.9144C14.7246 16.0663 14.7849 16.2119 14.8923 16.3193C14.9997 16.4267 15.1454 16.487 15.2973 16.487C15.4491 16.487 15.5948 16.4267 15.7022 16.3193C15.8096 16.2119 15.8699 16.0663 15.8699 15.9144C15.8698 15.7624 15.8101 15.6165 15.7037 15.508C15.5951 15.4013 15.4495 15.3407 15.2973 15.3391V15.3391Z" fill="black"/>
<path d="M23.6488 15.8458C23.5737 15.8458 23.4993 15.8607 23.43 15.8897C23.3607 15.9187 23.2978 15.9612 23.2451 16.0147C23.1374 16.1226 23.0767 16.2686 23.0762 16.4211C23.0775 16.5725 23.1383 16.7174 23.2454 16.8245C23.3525 16.9316 23.4974 16.9923 23.6488 16.9937C23.8007 16.993 23.9463 16.9326 24.0539 16.8254C24.1616 16.7182 24.2227 16.573 24.2241 16.4211C24.2225 16.2689 24.162 16.1232 24.0552 16.0147C23.9473 15.907 23.8013 15.8463 23.6488 15.8458V15.8458Z" fill="black"/>
<path d="M24.7363 18.1865C24.7354 18.3369 24.7932 18.4818 24.8973 18.5903C24.9777 18.6695 25.0797 18.7234 25.1905 18.7451C25.3013 18.7668 25.4161 18.7554 25.5204 18.7123C25.6248 18.6693 25.7142 18.5965 25.7775 18.503C25.8408 18.4095 25.8752 18.2994 25.8764 18.1865C25.8769 18.0728 25.8437 17.9615 25.7808 17.8668C25.7179 17.7721 25.6283 17.6982 25.5233 17.6547C25.4183 17.6111 25.3027 17.5997 25.1912 17.6221C25.0797 17.6444 24.9774 17.6994 24.8973 17.7801C24.7935 17.8899 24.7358 18.0354 24.7363 18.1865V18.1865Z" fill="black"/>
<path d="M21.73 11.4784L22.7856 10.4069C22.9691 10.2221 23.0721 9.97211 23.0721 9.71159C23.0721 9.45106 22.9691 9.20111 22.7856 9.01623L21.73 7.94482C21.5447 7.76111 21.2943 7.65803 21.0333 7.65803C20.7723 7.65803 20.522 7.76111 20.3366 7.94482L19.2811 9.01623C19.1892 9.10725 19.1163 9.21556 19.0666 9.33491C19.0168 9.45426 18.9912 9.58228 18.9912 9.71159C18.9912 9.84089 19.0168 9.96891 19.0666 10.0883C19.1163 10.2076 19.1892 10.3159 19.2811 10.4069L20.3366 11.4784C20.5216 11.6627 20.7721 11.7662 21.0333 11.7662C21.2945 11.7662 21.545 11.6627 21.73 11.4784V11.4784ZM20.1941 9.7129L21.0333 8.87109L21.8751 9.7129L21.0333 10.5521L20.1941 9.7129Z" fill="black"/>
<path d="M25.644 22.8522H24.1661C23.9081 22.8529 23.6608 22.9557 23.4784 23.1381C23.2959 23.3206 23.1931 23.5679 23.1924 23.8259V25.3037C23.1924 25.5622 23.2949 25.8102 23.4774 25.9932C23.66 26.1763 23.9076 26.2794 24.1661 26.2801H25.644C25.9029 26.2801 26.1513 26.1773 26.3344 25.9941C26.5175 25.811 26.6204 25.5627 26.6204 25.3037V23.8259C26.6197 23.5674 26.5165 23.3197 26.3334 23.1372C26.1504 22.9547 25.9025 22.8522 25.644 22.8522V22.8522ZM25.4724 25.1322H24.3403V24.0001H25.4724V25.1322Z" fill="black"/>
<path d="M19.5401 18.6246C19.3878 18.6253 19.2418 18.6861 19.1341 18.7939C19.0264 18.9016 18.9655 19.0475 18.9648 19.1999C18.9662 19.3518 19.0274 19.497 19.135 19.6042C19.2427 19.7114 19.3882 19.7718 19.5401 19.7725C19.6916 19.7711 19.8364 19.7104 19.9435 19.6033C20.0506 19.4962 20.1114 19.3513 20.1128 19.1999C20.1121 19.048 20.0516 18.9024 19.9445 18.7948C19.8373 18.6871 19.692 18.626 19.5401 18.6246V18.6246Z" fill="black"/>
<path d="M11.9193 19.7013C11.7675 19.7013 11.6218 19.7616 11.5144 19.869C11.407 19.9764 11.3467 20.122 11.3467 20.2739C11.3467 20.4258 11.407 20.5714 11.5144 20.6788C11.6218 20.7862 11.7675 20.8466 11.9193 20.8466C12.0712 20.8466 12.2169 20.7862 12.3243 20.6788C12.4316 20.5714 12.492 20.4258 12.492 20.2739C12.492 20.122 12.4316 19.9764 12.3243 19.869C12.2169 19.7616 12.0712 19.7013 11.9193 19.7013V19.7013Z" fill="black"/>
<path d="M5.07875 13.6264C4.93872 13.5675 4.78104 13.5663 4.64013 13.6231C4.49922 13.68 4.38653 13.7903 4.32665 13.9299C3.35374 16.2328 2.85473 18.7081 2.85941 21.2081C2.85941 21.36 2.91974 21.5056 3.02713 21.613C3.13452 21.7204 3.28018 21.7808 3.43206 21.7808C3.58393 21.7808 3.72959 21.7204 3.83698 21.613C3.94437 21.5056 4.0047 21.36 4.0047 21.2081C4.00006 18.8619 4.4695 16.5389 5.38487 14.3785C5.4437 14.2382 5.44452 14.0802 5.38715 13.9393C5.32977 13.7983 5.21888 13.6858 5.07875 13.6264V13.6264Z" fill="black"/>
<path d="M15.0277 4.28725C14.9983 4.21787 14.9555 4.15497 14.9018 4.10215C14.8481 4.04932 14.7845 4.00762 14.7146 3.97943C14.6448 3.95124 14.57 3.93711 14.4947 3.93786C14.4193 3.9386 14.3449 3.95421 14.2756 3.98377C12.054 4.9217 10.0356 6.28219 8.33271 7.98968C8.2265 8.09775 8.16699 8.24322 8.16699 8.39475C8.16699 8.54628 8.2265 8.69175 8.33271 8.79983C8.38594 8.85345 8.44926 8.896 8.519 8.92504C8.58875 8.95408 8.66356 8.96903 8.73911 8.96903C8.81466 8.96903 8.88947 8.95408 8.95922 8.92504C9.02896 8.896 9.09228 8.85345 9.14551 8.79983C10.7432 7.19711 12.6369 5.91997 14.7216 5.03935C14.7912 5.01023 14.8544 4.96764 14.9075 4.91402C14.9606 4.86041 15.0025 4.79683 15.031 4.72694C15.0594 4.65705 15.0738 4.58222 15.0732 4.50677C15.0727 4.43131 15.0572 4.35671 15.0277 4.28725V4.28725Z" fill="black"/>
<path d="M18.3422 22.8944C18.19 22.896 18.0443 22.9565 17.9358 23.0633C17.8561 23.1435 17.802 23.2456 17.7802 23.3565C17.7585 23.4675 17.7701 23.5824 17.8135 23.6868C17.857 23.7912 17.9304 23.8804 18.0245 23.9431C18.1185 24.0059 18.2291 24.0394 18.3422 24.0394C18.4553 24.0394 18.5658 24.0059 18.6599 23.9431C18.754 23.8804 18.8274 23.7912 18.8708 23.6868C18.9143 23.5824 18.9259 23.4675 18.9041 23.3565C18.8824 23.2456 18.8282 23.1435 18.7486 23.0633C18.6401 22.9565 18.4944 22.896 18.3422 22.8944V22.8944Z" fill="black"/>
<path d="M15.9874 23.4538C15.9118 23.4535 15.8369 23.4683 15.7672 23.4973C15.6974 23.5263 15.6341 23.5689 15.581 23.6227C15.474 23.73 15.4133 23.875 15.4121 24.0265C15.4128 24.1789 15.4736 24.3248 15.5814 24.4325C15.6891 24.5403 15.835 24.6011 15.9874 24.6018C16.1393 24.6004 16.2846 24.5393 16.3917 24.4316C16.4989 24.3239 16.5594 24.1784 16.56 24.0265C16.5587 23.875 16.4979 23.7302 16.3908 23.6231C16.2837 23.516 16.1388 23.4552 15.9874 23.4538V23.4538Z" fill="black"/>
<path d="M29.6793 27.8345L27.7582 19.3028L26.4466 13.4708L24.4357 4.55379C24.6365 4.13077 24.7402 3.66825 24.7392 3.20002C24.7378 2.35453 24.4011 1.5441 23.803 0.946494C23.2049 0.348886 22.3942 0.0128863 21.5487 0.0121887C18.7652 0.0108013 16.0087 0.558035 13.4368 1.6226C10.8649 2.68718 8.528 4.24821 6.55974 6.21646C4.59149 8.18471 3.03046 10.5216 1.96589 13.0935C0.901317 15.6654 0.354084 18.4219 0.355471 21.2055C0.354926 21.7433 0.490493 22.2726 0.749551 22.744C1.00861 23.2154 1.38273 23.6136 1.83709 23.9015C2.29145 24.1894 2.81126 24.3576 3.34814 24.3905C3.88502 24.4235 4.4215 24.32 4.90763 24.0898L8.95576 25.0029V27.5072C8.94631 27.7583 8.98762 28.0087 9.07719 28.2435C9.16677 28.4783 9.30277 28.6925 9.47708 28.8735C9.65138 29.0545 9.86039 29.1985 10.0916 29.2968C10.3228 29.3951 10.5715 29.4458 10.8228 29.4458C11.0741 29.4458 11.3228 29.3951 11.554 29.2968C11.7852 29.1985 11.9942 29.0545 12.1685 28.8735C12.3428 28.6925 12.4788 28.4783 12.5684 28.2435C12.658 28.0087 12.6993 27.7583 12.6898 27.5072V26.7815C12.6898 26.6989 12.7227 26.6197 12.7811 26.5613C12.8394 26.5029 12.9187 26.4701 13.0012 26.4701C13.3437 26.473 13.6763 26.3553 13.9407 26.1376L28.1751 29.3519C28.3825 29.3986 28.5983 29.392 28.8025 29.3328C29.0066 29.2736 29.1925 29.1636 29.3427 29.0132C29.4928 28.8627 29.6025 28.6767 29.6614 28.4724C29.7202 28.2682 29.7264 28.0523 29.6793 27.845V27.8345ZM26.5601 19.1999C26.195 19.4512 25.7759 19.6133 25.3366 19.6729C24.8974 19.7325 24.4503 19.6881 24.0314 19.5433C23.6124 19.3984 23.2334 19.1571 22.9249 18.8388C22.6163 18.5206 22.3869 18.1343 22.2551 17.7111C22.1232 17.2878 22.0927 16.8396 22.1659 16.4024C22.2391 15.9652 22.4141 15.5514 22.6766 15.1942C22.9391 14.837 23.2819 14.5466 23.6773 14.3462C24.0727 14.1459 24.5097 14.0412 24.953 14.0408C25.105 14.0412 25.2568 14.0535 25.4069 14.0777L26.5601 19.1999ZM6.05293 23.1715C6.45299 22.6659 6.68792 22.0496 6.72586 21.406H7.49379C7.88131 21.4067 8.25276 21.561 8.52678 21.835C8.8008 22.109 8.95506 22.4805 8.95576 22.868V23.8259L6.05293 23.1715ZM14.4606 24.4725C14.4596 24.0211 14.5666 23.576 14.7725 23.1744C14.9785 22.7727 15.2775 22.4261 15.6446 22.1635C16.0117 21.9009 16.4363 21.7298 16.8829 21.6646C17.3296 21.5993 17.7854 21.6418 18.2122 21.7885C18.6391 21.9352 19.0248 22.1818 19.337 22.5078C19.6492 22.8337 19.879 23.2296 20.0072 23.6624C20.1353 24.0952 20.1582 24.5524 20.0738 24.9958C19.9894 25.4392 19.8002 25.8561 19.522 26.2115L14.5265 25.0821C14.4833 24.8808 14.4612 24.6756 14.4606 24.4698V24.4725ZM28.5314 28.1907C28.5181 28.2047 28.5013 28.2151 28.4828 28.2206C28.4643 28.2262 28.4446 28.2268 28.4258 28.2224L20.7228 26.4833C21.031 25.9561 21.2136 25.3649 21.2566 24.7557C21.2995 24.1464 21.2015 23.5355 20.9702 22.9702C20.7389 22.4049 20.3805 21.9006 19.9228 21.4961C19.4651 21.0917 18.9205 20.7982 18.331 20.6382C17.7416 20.4783 17.1232 20.4562 16.5239 20.5738C15.9246 20.6914 15.3604 20.9454 14.8751 21.3162C14.3898 21.687 13.9964 22.1646 13.7254 22.7119C13.4545 23.2593 13.3132 23.8617 13.3126 24.4725C13.3123 24.6765 13.3273 24.8803 13.3575 25.0821C13.3193 25.1167 13.2864 25.1567 13.2599 25.2008C13.2302 25.2431 13.1906 25.2774 13.1446 25.3009C13.0986 25.3243 13.0476 25.3362 12.996 25.3354C12.6091 25.3361 12.2384 25.4901 11.9648 25.7636C11.6913 26.0371 11.5373 26.4079 11.5366 26.7947V27.5204C11.5366 27.7115 11.4607 27.8947 11.3256 28.0299C11.1905 28.165 11.0073 28.2409 10.8162 28.2409C10.6251 28.2409 10.4419 28.165 10.3068 28.0299C10.1717 27.8947 10.0958 27.7115 10.0958 27.5204V22.868C10.0951 22.1767 9.82016 21.514 9.33135 21.0251C8.84255 20.5363 8.17978 20.2614 7.48851 20.2607H6.7628C6.93392 17.5153 7.87199 14.873 9.47035 12.6342C9.51401 12.5729 9.54517 12.5035 9.56204 12.4302C9.5789 12.3568 9.58115 12.2808 9.56866 12.2065C9.55616 12.1323 9.52916 12.0612 9.4892 11.9974C9.44924 11.9336 9.3971 11.8783 9.33576 11.8346C9.27442 11.7909 9.20508 11.7598 9.1317 11.7429C9.05832 11.7261 8.98234 11.7238 8.90809 11.7363C8.83384 11.7488 8.76278 11.7758 8.69896 11.8158C8.63515 11.8557 8.57983 11.9079 8.53616 11.9692C6.61218 14.6642 5.58046 17.8941 5.58584 21.2055C5.5957 21.4797 5.5502 21.7531 5.45206 22.0094C5.35392 22.2656 5.20515 22.4995 5.01464 22.697C4.82412 22.8945 4.59576 23.0515 4.34319 23.1588C4.09063 23.2661 3.81903 23.3214 3.54462 23.3214C3.27021 23.3214 2.99862 23.2661 2.74605 23.1588C2.49349 23.0515 2.26513 22.8945 2.07461 22.697C1.88409 22.4995 1.73532 22.2656 1.63718 22.0094C1.53904 21.7531 1.49355 21.4797 1.50341 21.2055C1.49993 18.5707 2.01632 15.9612 3.023 13.5263C4.02967 11.0914 5.50684 8.87911 7.3699 7.01606C9.23295 5.153 11.4453 3.67583 13.8801 2.66916C16.315 1.66249 18.9245 1.1461 21.5593 1.14957C21.8335 1.13971 22.1069 1.1852 22.3632 1.28334C22.6195 1.38148 22.8533 1.53025 23.0508 1.72077C23.2483 1.91129 23.4054 2.13965 23.5127 2.39221C23.6199 2.64478 23.6752 2.91638 23.6752 3.19078C23.6752 3.46519 23.6199 3.73679 23.5127 3.98935C23.4054 4.24192 23.2483 4.47028 23.0508 4.6608C22.8533 4.85132 22.6195 5.00009 22.3632 5.09822C22.1069 5.19636 21.8335 5.24186 21.5593 5.232C18.2412 5.22514 15.0048 6.26086 12.3072 8.19288C12.1939 8.28532 12.12 8.41743 12.1006 8.56237C12.0812 8.70732 12.1178 8.8542 12.2028 8.97318C12.2878 9.09215 12.415 9.17428 12.5584 9.20286C12.7018 9.23145 12.8507 9.20435 12.9749 9.12707C15.4763 7.34067 18.4749 6.38359 21.5487 6.39049C22.2645 6.39113 22.9594 6.14928 23.52 5.70437L25.1403 12.8981H24.953C24.3488 12.8987 23.7528 13.0368 23.21 13.3022C22.6673 13.5675 22.1921 13.953 21.8206 14.4294C21.4491 14.9058 21.191 15.4606 21.0659 16.0516C20.9408 16.6426 20.952 17.2544 21.0987 17.8405C21.2454 18.4265 21.5236 18.9715 21.9124 19.4339C22.3011 19.8964 22.7901 20.2642 23.3422 20.5094C23.8943 20.7547 24.4951 20.8709 25.0988 20.8493C25.7025 20.8277 26.2934 20.6688 26.8266 20.3848L28.5604 28.0931C28.5661 28.1112 28.5664 28.1306 28.5612 28.1489C28.5561 28.1671 28.5457 28.1835 28.5314 28.196V28.1907Z" fill="black"/>
<path d="M11.2441 10.3304C11.2429 10.1994 11.1964 10.0728 11.1125 9.97215C11.0286 9.87151 10.9124 9.80302 10.7837 9.77832C10.655 9.75361 10.5217 9.77422 10.4065 9.83663C10.2913 9.89904 10.2012 9.99941 10.1516 10.1207C10.102 10.242 10.0959 10.3767 10.1343 10.502C10.1728 10.6272 10.2534 10.7353 10.3625 10.8079C10.4716 10.8805 10.6025 10.9131 10.7329 10.9001C10.8633 10.8871 10.9852 10.8294 11.0778 10.7368C11.1838 10.628 11.2435 10.4823 11.2441 10.3304V10.3304Z" fill="black"/>
</svg>
