<svg width="24" height="35" viewBox="0 0 24 35" fill="none" xmlns="http://www.w3.org/2000/svg">
<g filter="url(#filter0_d_502_775)">
<path d="M4.81196 12.6977C4.78979 12.7208 4.76317 12.7392 4.73369 12.7518C4.70421 12.7644 4.67248 12.7709 4.64043 12.7709C4.60838 12.7709 4.57666 12.7644 4.54718 12.7518C4.5177 12.7392 4.49107 12.7208 4.4689 12.6977C3.51241 11.6274 3.00226 10.2315 3.04331 8.79669C3.08437 7.36192 3.67353 5.9974 4.68966 4.98363C5.70579 3.96987 7.07168 3.38389 8.50654 3.34618C9.9414 3.30846 11.3362 3.82187 12.4042 4.78085C12.4271 4.80344 12.4453 4.83035 12.4577 4.86002C12.4701 4.88969 12.4765 4.92154 12.4765 4.9537C12.4765 4.98587 12.4701 5.01771 12.4577 5.04738C12.4453 5.07705 12.4271 5.10397 12.4042 5.12655L4.81196 12.6977Z" fill="#FF9F1C"/>
<path d="M12.4033 4.77029C11.782 4.20288 11.041 3.78236 10.2353 3.53981C9.42955 3.29727 8.5796 3.2389 7.74827 3.36901C8.84309 3.53436 9.86381 4.02221 10.6801 4.77029C10.7033 4.79269 10.7218 4.81954 10.7344 4.84923C10.7471 4.87893 10.7536 4.91087 10.7536 4.94314C10.7536 4.9754 10.7471 5.00734 10.7344 5.03704C10.7218 5.06674 10.7033 5.09359 10.6801 5.11599L3.87695 11.9165C4.05325 12.1917 4.25278 12.4512 4.47335 12.6924C4.49552 12.7155 4.52215 12.7339 4.55163 12.7465C4.58111 12.7591 4.61283 12.7656 4.64488 12.7656C4.67694 12.7656 4.70866 12.7591 4.73814 12.7465C4.76762 12.7339 4.79424 12.7155 4.81641 12.6924L12.4086 5.11599C12.4312 5.09305 12.449 5.06586 12.4609 5.036C12.4729 5.00614 12.4788 4.9742 12.4783 4.94203C12.4778 4.90987 12.4709 4.87812 12.4581 4.84864C12.4452 4.81915 12.4266 4.79252 12.4033 4.77029V4.77029Z" fill="#FFD064"/>
<path d="M17.534 31.3918L15.0297 30.1331C14.9251 30.0804 14.8371 29.9997 14.7756 29.9C14.7142 29.8003 14.6815 29.6855 14.6814 29.5683V23.7257C14.6839 23.5017 14.6005 23.2853 14.4483 23.1208C14.2962 22.9564 14.0868 22.8565 13.8633 22.8417C13.7459 22.8359 13.6286 22.8543 13.5186 22.8956C13.4086 22.9369 13.3082 23.0003 13.2236 23.0819C13.1391 23.1635 13.0721 23.2615 13.0269 23.37C12.9817 23.4785 12.9592 23.595 12.9608 23.7125V29.5789C12.9606 29.696 12.928 29.8108 12.8665 29.9105C12.805 30.0102 12.717 30.0909 12.6124 30.1436L10.1054 31.4024C10.0589 31.4254 10.0215 31.4635 9.9994 31.5105C9.97729 31.5574 9.97175 31.6105 9.9837 31.6611C9.99564 31.7116 10.0244 31.7566 10.0652 31.7887C10.106 31.8208 10.1564 31.8381 10.2084 31.8378H17.4311C17.483 31.8381 17.5335 31.8208 17.5743 31.7887C17.6151 31.7566 17.6438 31.7116 17.6558 31.6611C17.6677 31.6105 17.6622 31.5574 17.6401 31.5105C17.618 31.4635 17.5806 31.4254 17.534 31.4024V31.3918Z" fill="#FFB864"/>
<path d="M19.4976 8.88438L19.6691 8.38562C19.6832 8.34332 19.6871 8.29831 19.6806 8.25422C19.6741 8.21012 19.6573 8.16817 19.6317 8.13172C19.606 8.09528 19.5722 8.06536 19.5328 8.04438C19.4935 8.02339 19.4498 8.01193 19.4053 8.01089H8.11326C8.06869 8.01193 8.025 8.02339 7.98567 8.04438C7.94635 8.06536 7.91249 8.09528 7.88683 8.13172C7.86116 8.16817 7.84441 8.21012 7.8379 8.25422C7.83139 8.29831 7.83532 8.34332 7.84936 8.38562L8.08423 9.07966C8.74301 11.0626 8.61259 13.223 7.72005 15.1123C7.3122 15.9874 7.10141 16.9414 7.10254 17.9069C7.10254 19.6888 7.81041 21.3977 9.07041 22.6577C10.3304 23.9178 12.0394 24.6256 13.8213 24.6256C15.6032 24.6256 17.3121 23.9178 18.5721 22.6577C19.8321 21.3977 20.54 19.6888 20.54 17.9069C20.5406 16.9196 20.3197 15.9447 19.8935 15.0542C18.9607 13.132 18.8186 10.9207 19.4976 8.89494V8.88438Z" fill="#FF9F1C"/>
<path d="M19.8934 15.0437C18.9607 13.1214 18.8186 10.9102 19.4976 8.88438L19.6691 8.38562C19.6831 8.34332 19.6871 8.29831 19.6806 8.25422C19.6741 8.21012 19.6573 8.16817 19.6316 8.13172C19.606 8.09528 19.5721 8.06536 19.5328 8.04438C19.4935 8.02339 19.4498 8.01193 19.4052 8.01089H17.6767C17.7215 8.01136 17.7655 8.02246 17.8051 8.04329C17.8448 8.06411 17.8789 8.09406 17.9046 8.13067C17.9304 8.16727 17.9471 8.20948 17.9534 8.25381C17.9596 8.29814 17.9553 8.34332 17.9406 8.38562L17.7717 8.88438C17.0901 10.9098 17.2323 13.1221 18.1676 15.0437C18.6192 15.9964 18.8381 17.0429 18.8063 18.0968C18.7744 19.1507 18.4927 20.182 17.9843 21.1058C17.4759 22.0296 16.7554 22.8194 15.882 23.4102C15.0087 24.001 14.0075 24.376 12.9609 24.5042C13.2464 24.5393 13.5337 24.5569 13.8212 24.557C15.5934 24.564 17.296 23.8678 18.5556 22.6211C19.8152 21.3745 20.5288 19.6791 20.54 17.9069C20.5406 16.9196 20.3197 15.9447 19.8934 15.0542V15.0437Z" fill="#FFB864"/>
<path d="M17.3523 11.7661C17.3468 11.6979 17.3173 11.6339 17.2689 11.5855C17.2206 11.5372 17.1566 11.5076 17.0884 11.5022C16.7361 11.4829 16.3827 11.4961 16.0328 11.5418C14.6131 11.7344 14.051 12.3783 12.8265 12.666C12.0564 12.8439 11.2559 12.8439 10.4858 12.666C10.447 12.6576 10.4069 12.6574 10.368 12.6652C10.3291 12.6731 10.2923 12.689 10.2598 12.7118C10.2274 12.7346 10.2 12.7638 10.1793 12.7977C10.1587 12.8316 10.1454 12.8694 10.1401 12.9088C10.0056 13.9292 9.71642 14.9232 9.28242 15.8564C8.98129 16.4981 8.82455 17.1981 8.82324 17.9069C8.85324 19.2122 9.39287 20.454 10.3267 21.3666C11.2605 22.2792 12.5144 22.7902 13.8201 22.7902C15.1258 22.7902 16.3796 22.2792 17.3134 21.3666C18.2473 20.454 18.7869 19.2122 18.8169 17.9069C18.8188 17.1765 18.6565 16.4549 18.3419 15.7957C17.7338 14.5365 17.3967 13.1637 17.3523 11.7661V11.7661Z" fill="#95AE45"/>
<path d="M10.8177 12.7108C10.7095 12.6924 10.5961 12.6739 10.4799 12.6475C10.4215 12.6354 10.3608 12.6415 10.3061 12.6652C10.2513 12.6888 10.2051 12.7287 10.1738 12.7794C10.3897 12.7705 10.6048 12.7476 10.8177 12.7108V12.7108Z" fill="#F7E782"/>
<path d="M18.3417 15.7957C17.7347 14.5389 17.3976 13.169 17.3521 11.774C17.3467 11.7058 17.3171 11.6418 17.2688 11.5934C17.2204 11.5451 17.1564 11.5155 17.0882 11.5101C16.7359 11.4908 16.3825 11.504 16.0327 11.5497C15.8743 11.5708 15.7239 11.5998 15.5814 11.6315C15.6144 11.677 15.6337 11.731 15.6368 11.7872C15.6826 13.177 16.0169 14.5421 16.6185 15.7957C16.9352 16.4543 17.0985 17.1761 17.0961 17.9069C17.0873 19.0737 16.6681 20.2002 15.912 21.0889C15.156 21.9777 14.1112 22.572 12.9609 22.7678C13.2451 22.8165 13.5329 22.8412 13.8212 22.8417C15.1371 22.8466 16.4014 22.3302 17.3376 21.4054C18.2738 20.4806 18.8056 19.2227 18.8167 17.9069C18.8187 17.1765 18.6563 16.4549 18.3417 15.7957V15.7957Z" fill="#D8EC84"/>
<path d="M20.9705 17.9071C20.9728 16.8556 20.7374 15.8172 20.2817 14.8697C19.3951 13.0497 19.2596 10.954 19.9043 9.03499C20.0389 8.64706 20.2474 8.26178 19.9809 7.88969C19.9143 7.79728 19.8267 7.72204 19.7253 7.67019C19.6239 7.61833 19.5116 7.59136 19.3977 7.59149H15.8325L16.1201 6.19813C16.1627 5.9834 16.2877 5.79392 16.4684 5.67034L19.4267 3.65684C19.5212 3.5928 19.5863 3.49385 19.6079 3.38175C19.6294 3.26966 19.6055 3.15361 19.5415 3.05912C19.4774 2.96464 19.3785 2.89946 19.2664 2.87793C19.1543 2.8564 19.0382 2.88029 18.9438 2.94433L15.9855 4.95255C15.6202 5.19825 15.3654 5.57709 15.2756 6.00813L14.9616 7.58093H10.5493L12.7132 5.41965C12.7782 5.35599 12.8295 5.27973 12.8639 5.19555C12.8983 5.11136 12.9152 5.02103 12.9135 4.9301C12.9117 4.83916 12.8915 4.74954 12.8538 4.66673C12.8162 4.58392 12.7621 4.50966 12.6948 4.44852C11.5462 3.3956 10.0354 2.827 8.47759 2.86142C6.91982 2.89584 5.43555 3.53062 4.33463 4.63324V4.63324C3.22722 5.7295 2.58831 7.21264 2.55238 8.77047C2.51645 10.3283 3.0863 11.8393 4.14199 12.9855C4.20339 13.0511 4.27726 13.1038 4.35927 13.1405C4.44129 13.1772 4.5298 13.1971 4.61963 13.1992H4.64338C4.82045 13.1991 4.99027 13.1289 5.11575 13.0039L7.92886 10.1961C8.2308 11.7993 8.01932 13.4569 7.32454 14.933C7.15756 15.291 7.0216 15.6627 6.91815 16.044C6.88805 16.1542 6.90298 16.2719 6.95964 16.3711C7.01631 16.4704 7.11007 16.543 7.2203 16.5731C7.33054 16.6032 7.44821 16.5883 7.54743 16.5316C7.64666 16.4749 7.71931 16.3812 7.74941 16.2709C7.83881 15.9362 7.95622 15.6096 8.10039 15.2945C8.99685 13.3978 9.16587 11.2381 8.57539 9.22499C8.51734 9.02971 8.38275 8.62859 8.3115 8.43331C8.47775 8.39372 14.5895 8.47553 14.769 8.43331L14.1092 11.6924C13.6692 11.9249 13.2045 12.1073 12.7238 12.236C12.015 12.397 11.2792 12.397 10.5704 12.236C10.4736 12.2155 10.3735 12.2152 10.2766 12.2351C10.1796 12.255 10.0878 12.2946 10.0068 12.3516C9.92581 12.4085 9.85745 12.4815 9.80595 12.5661C9.75446 12.6506 9.72094 12.7449 9.7075 12.843C9.57997 13.8175 9.30502 14.7669 8.89207 15.6587C8.56233 16.3623 8.39203 17.13 8.39331 17.9071C8.42459 19.3257 9.0101 20.6756 10.0244 21.6679C11.0388 22.6601 12.4013 23.2157 13.8203 23.2157C15.2392 23.2157 16.6018 22.6601 17.6161 21.6679C18.6304 20.6756 19.216 19.3257 19.2472 17.9071C19.2457 17.1119 19.0653 16.3272 18.7195 15.6112C18.6139 15.3922 18.5163 15.1652 18.4265 14.9409C18.4127 14.8806 18.386 14.824 18.3483 14.7749C18.3105 14.7258 18.2627 14.6855 18.2079 14.6566C18.1532 14.6277 18.0928 14.611 18.031 14.6076C17.9692 14.6042 17.9074 14.6141 17.8498 14.6368C17.7922 14.6594 17.7402 14.6942 17.6973 14.7389C17.6544 14.7835 17.6216 14.8368 17.6012 14.8952C17.5808 14.9537 17.5732 15.0158 17.579 15.0775C17.5848 15.1391 17.6039 15.1987 17.6349 15.2523C17.7325 15.4977 17.8381 15.7458 17.9515 15.9833C18.2423 16.5829 18.393 17.2407 18.3922 17.9071C18.3922 19.1179 17.9112 20.2791 17.0551 21.1353C16.1989 21.9914 15.0377 22.4724 13.8269 22.4724C12.6161 22.4724 11.4548 21.9914 10.5987 21.1353C9.74251 20.2791 9.26152 19.1179 9.26152 17.9071C9.25954 17.259 9.40009 16.6185 9.67319 16.0308C10.1039 15.1043 10.3981 14.1203 10.5467 13.1095C11.3314 13.2682 12.1407 13.2592 12.9217 13.0831C13.2599 13.001 13.5894 12.8871 13.906 12.7427L12.6842 18.6222C12.6616 18.7342 12.6841 18.8505 12.7469 18.9459C12.8097 19.0413 12.9076 19.108 13.0194 19.1315H13.1064C13.2056 19.1318 13.3017 19.0978 13.3787 19.0352C13.4556 18.9727 13.5086 18.8856 13.5287 18.7885L14.864 12.2888C15.2532 12.1184 15.6645 12.0038 16.0858 11.9484C16.3648 11.9117 16.6463 11.8976 16.9276 11.9061C16.9472 12.3485 16.9948 12.7892 17.0701 13.2256C17.0897 13.3383 17.1533 13.4386 17.2468 13.5044C17.3403 13.5702 17.4562 13.5962 17.5689 13.5766C17.6816 13.557 17.7818 13.4934 17.8477 13.3999C17.9135 13.3064 17.9395 13.1905 17.9199 13.0778C17.8429 12.6418 17.7971 12.2009 17.7826 11.7584C17.7782 11.5784 17.7058 11.4068 17.5799 11.278C17.4541 11.1493 17.2842 11.0729 17.1044 11.0643C16.7265 11.0434 16.3474 11.0584 15.9723 11.1092C15.6655 11.1502 15.3626 11.2173 15.0672 11.3097L15.6557 8.44914H19.1839L19.081 8.75526C18.3594 10.8867 18.5083 13.2168 19.4953 15.2391C19.8984 16.0707 20.1077 16.9829 20.1075 17.9071C20.096 19.136 19.725 20.3346 19.0405 21.3552C18.3559 22.3759 17.3876 23.1738 16.255 23.6508C15.1224 24.1277 13.8749 24.2628 12.6665 24.0394C11.458 23.8159 10.3413 23.2437 9.45416 22.3933C8.28532 21.2815 7.59771 19.7566 7.53829 18.1446C7.53375 18.0305 7.48406 17.9229 7.40018 17.8454C7.31629 17.768 7.20508 17.727 7.091 17.7316C6.97691 17.7361 6.86931 17.7858 6.79186 17.8697C6.71441 17.9536 6.67345 18.0648 6.678 18.1789C6.74658 20.0137 7.52868 21.7493 8.85776 23.0161C9.8704 23.9876 11.1474 24.6385 12.5285 24.8871V29.5791C12.5288 29.6164 12.5186 29.6531 12.499 29.6848C12.4794 29.7166 12.4512 29.7421 12.4177 29.7585L9.91333 31.0173C9.78516 31.0864 9.68345 31.1959 9.62405 31.3289C9.56464 31.4618 9.55089 31.6107 9.58493 31.7523C9.61896 31.8938 9.69888 32.0202 9.81222 32.1116C9.92557 32.203 10.066 32.2543 10.2115 32.2576H17.4317C17.5809 32.2588 17.7262 32.2093 17.8437 32.1173C17.9612 32.0253 18.0441 31.8961 18.0787 31.7509C18.1133 31.6057 18.0977 31.453 18.0343 31.3179C17.9709 31.1827 17.8636 31.073 17.7299 31.0067L15.2255 29.748C15.192 29.7316 15.1638 29.706 15.1442 29.6742C15.1246 29.6425 15.1143 29.6058 15.1147 29.5685V24.8765C16.7505 24.5804 18.2312 23.7216 19.3006 22.4488C20.37 21.1761 20.9607 19.5694 20.9705 17.9071V17.9071ZM4.65394 5.56479L7.34565 8.25386L7.37468 8.33567L3.5192 7.90288C3.69184 7.03949 4.08247 6.23462 4.65394 5.56479V5.56479ZM4.65394 12.2518C3.82388 11.2806 3.38545 10.0349 3.4242 8.7579L7.67288 9.23554L4.65394 12.2518ZM7.89455 7.58093L5.25562 4.942C5.92744 4.37153 6.73421 3.98268 7.59899 3.81254L8.02122 7.56774L7.89455 7.58093ZM9.33277 7.58093H8.89207L8.46192 3.73073C9.73964 3.69198 10.9864 4.12824 11.9611 4.95519L9.33277 7.58093ZM16.5872 31.3947H11.0586L12.8056 30.5159C12.9819 30.4283 13.1301 30.2932 13.2337 30.1258C13.3372 29.9584 13.3918 29.7654 13.3914 29.5685V24.9794C13.534 24.9794 13.6765 24.9794 13.8216 24.9794C13.9667 24.9794 14.1092 24.9794 14.2517 24.9794V29.5685C14.2514 29.7654 14.306 29.9584 14.4095 30.1258C14.513 30.2932 14.6613 30.4283 14.8376 30.5159L16.5872 31.3947Z" fill="black"/>
</g>
<defs>
<filter id="filter0_d_502_775" x="0.0967934" y="0.405952" width="23.3279" height="34.3057" filterUnits="userSpaceOnUse" color-interpolation-filters="sRGB">
<feFlood flood-opacity="0" result="BackgroundImageFix"/>
<feColorMatrix in="SourceAlpha" type="matrix" values="0 0 0 0 0 0 0 0 0 0 0 0 0 0 0 0 0 0 127 0" result="hardAlpha"/>
<feOffset/>
<feGaussianBlur stdDeviation="1.22699"/>
<feComposite in2="hardAlpha" operator="out"/>
<feColorMatrix type="matrix" values="0 0 0 0 0 0 0 0 0 0 0 0 0 0 0 0 0 0 0.35 0"/>
<feBlend mode="normal" in2="BackgroundImageFix" result="effect1_dropShadow_502_775"/>
<feBlend mode="normal" in="SourceGraphic" in2="effect1_dropShadow_502_775" result="shape"/>
</filter>
</defs>
</svg>
