<svg width="40" height="39" viewBox="0 0 40 39" fill="none" xmlns="http://www.w3.org/2000/svg">
<g filter="url(#filter0_d_502_2282)">
<g filter="url(#filter1_d_502_2282)">
<path d="M34.7428 17.9856V17.611C34.743 17.234 34.6514 16.8627 34.4758 16.529C34.3003 16.1954 34.0461 15.9096 33.7353 15.6962C34.061 15.4349 34.2973 15.0786 34.4112 14.6768C34.5251 14.275 34.511 13.8477 34.3709 13.4543C33.6239 11.3309 32.2917 9.46202 30.5281 8.06325C27.9644 6.035 24.5093 4.97473 20.2602 4.91406C18.4681 4.92287 16.6843 5.15771 14.9509 5.613C14.8971 5.62772 14.8466 5.65291 14.8025 5.68712C14.7584 5.72133 14.7214 5.7639 14.6937 5.81239C14.6661 5.86088 14.6482 5.91435 14.6412 5.96975C14.6342 6.02514 14.6382 6.08137 14.6529 6.13523C14.6676 6.18909 14.6928 6.23952 14.727 6.28365C14.7612 6.32778 14.8038 6.36473 14.8523 6.39241C14.9008 6.42008 14.9542 6.43793 15.0096 6.44495C15.065 6.45196 15.1212 6.44799 15.1751 6.43327C16.8351 5.9964 18.5437 5.7713 20.2602 5.76334C29.444 5.89785 32.5484 10.8168 33.5823 13.7365C33.6439 13.9114 33.6627 14.0984 33.637 14.282C33.6113 14.4656 33.5419 14.6404 33.4346 14.7915C33.3288 14.943 33.1879 15.0665 33.0239 15.1514C32.8599 15.2364 32.6777 15.2804 32.493 15.2795H8.01425C7.83009 15.2805 7.64838 15.2372 7.4845 15.1532C7.32061 15.0692 7.17935 14.9469 7.07266 14.7968C6.9655 14.6481 6.89607 14.4756 6.87034 14.2941C6.84461 14.1126 6.86336 13.9276 6.92496 13.755C7.67401 11.6133 9.40159 8.71472 13.3658 7.05308C13.4177 7.03144 13.4649 6.99977 13.5046 6.95989C13.5443 6.92 13.5758 6.87269 13.5972 6.82065C13.6187 6.7686 13.6296 6.71284 13.6295 6.65656C13.6294 6.60028 13.6182 6.54457 13.5965 6.49261C13.5749 6.44066 13.5432 6.39348 13.5033 6.35376C13.4635 6.31405 13.4162 6.28257 13.3641 6.26114C13.3121 6.23971 13.2563 6.22875 13.2 6.22886C13.1437 6.22898 13.088 6.24018 13.0361 6.26183C11.1806 7.02039 9.535 8.21455 8.23844 9.74335C7.31725 10.85 6.60255 12.1132 6.12843 13.4728C6.02222 13.774 5.99074 14.0965 6.03668 14.4126C6.08262 14.7287 6.20462 15.0289 6.39218 15.2874C6.50191 15.4409 6.63239 15.5785 6.7799 15.6962C6.46598 15.9078 6.20845 16.1928 6.02966 16.5265C5.85086 16.8602 5.75621 17.2325 5.75391 17.611V17.9856C5.75441 18.519 5.93804 19.0362 6.2741 19.4505C6.61016 19.8648 7.07827 20.1512 7.60016 20.2617V22.7964C7.0785 22.9074 6.61067 23.1939 6.27469 23.6081C5.93871 24.0223 5.7549 24.5392 5.75391 25.0726V25.4445C5.75392 25.9781 5.93737 26.4954 6.27351 26.9098C6.60965 27.3243 7.07805 27.6105 7.60016 27.7206C7.56525 28.3932 7.65466 29.0665 7.86392 29.7067C8.55758 31.88 10.4381 32.9165 11.894 33.3992C12.7535 33.6822 13.653 33.8247 14.5579 33.8212H25.952C26.8569 33.8247 27.7564 33.6822 28.6159 33.3992C30.0718 32.9112 31.9523 31.8773 32.646 29.7067C32.8488 29.0671 32.931 28.3955 32.8886 27.7259C33.4107 27.6158 33.8791 27.3295 34.2153 26.9151C34.5514 26.5007 34.7349 25.9833 34.7349 25.4497V25.0726C34.7349 24.539 34.5514 24.0216 34.2153 23.6072C33.8791 23.1928 33.4107 22.9065 32.8886 22.7964V20.2617C33.4105 20.1512 33.8786 19.8648 34.2147 19.4505C34.5508 19.0362 34.7344 18.519 34.7349 17.9856H34.7428ZM6.60319 25.4445V25.0726C6.6039 24.7653 6.70028 24.4658 6.87894 24.2158C7.0576 23.9658 7.30967 23.7776 7.60016 23.6773V23.9411C7.60064 24.234 7.68435 24.5207 7.84154 24.7679C7.99873 25.0151 8.22292 25.2125 8.48799 25.3372C8.75306 25.4618 9.04811 25.5086 9.33874 25.472C9.62937 25.4355 9.90362 25.317 10.1295 25.1306C10.3897 24.8971 10.7296 24.7725 11.079 24.7824H11.2188V26.9294H8.07755C7.68628 26.9287 7.31128 26.7728 7.03486 26.4958C6.75844 26.2189 6.60318 25.8436 6.60319 25.4524V25.4445ZM23.5202 22.1238H32.0393V23.9279C32.0409 24.0595 32.0044 24.1888 31.9342 24.3001C31.864 24.4115 31.7631 24.5002 31.6437 24.5556C31.5233 24.6129 31.3889 24.6345 31.2566 24.6176C31.1243 24.6008 30.9996 24.5463 30.8973 24.4607C30.4826 24.1071 29.9519 23.9193 29.4071 23.9332C28.7429 23.9268 28.1017 24.1761 27.6162 24.6295C27.2783 24.9591 26.8249 25.1436 26.3529 25.1436C25.8808 25.1436 25.4274 24.9591 25.0895 24.6295C24.6033 24.1772 23.9626 23.9281 23.2986 23.9332C22.6345 23.9312 21.994 24.1798 21.5051 24.6295C21.1672 24.9591 20.7138 25.1436 20.2418 25.1436C19.7697 25.1436 19.3163 24.9591 18.9784 24.6295C18.4902 24.1804 17.8508 23.9318 17.1875 23.9332C16.5231 23.9257 15.8815 24.1752 15.3966 24.6295C15.1656 24.8418 14.8898 24.9996 14.5896 25.091V22.6883C14.5896 22.539 14.6487 22.3958 14.754 22.2901C14.8592 22.1843 15.0021 22.1245 15.1514 22.1238H21.5289C21.6415 22.1238 21.7495 22.0791 21.8291 21.9995C21.9088 21.9198 21.9535 21.8118 21.9535 21.6992C21.9535 21.5866 21.9088 21.4786 21.8291 21.3989C21.7495 21.3193 21.6415 21.2745 21.5289 21.2745H15.1514C14.7769 21.2752 14.418 21.4245 14.1534 21.6895C13.8889 21.9546 13.7403 22.3138 13.7403 22.6883V27.9158C13.7283 28.1298 13.6348 28.331 13.4791 28.4783C13.3234 28.6255 13.1172 28.7075 12.9029 28.7075C12.6886 28.7075 12.4824 28.6255 12.3267 28.4783C12.1709 28.331 12.0775 28.1298 12.0655 27.9158V22.6883C12.0665 22.5022 12.0308 22.3177 11.9604 22.1454C11.89 21.9732 11.7862 21.8165 11.6551 21.6844C11.524 21.5523 11.3682 21.4475 11.1964 21.3758C11.0247 21.3041 10.8405 21.267 10.6544 21.2666H8.45736V20.3092H32.0393V21.2666H23.5202C23.4076 21.2666 23.2996 21.3114 23.2199 21.391C23.1403 21.4706 23.0955 21.5787 23.0955 21.6913C23.0955 21.8039 23.1403 21.9119 23.2199 21.9915C23.2996 22.0712 23.4076 22.1159 23.5202 22.1159V22.1238ZM10.6544 22.1238C10.8036 22.1245 10.9465 22.1843 11.0518 22.2901C11.1571 22.3958 11.2162 22.539 11.2162 22.6883V23.9226H11.0764C10.5316 23.9087 10.0009 24.0966 9.58621 24.4501C9.48456 24.536 9.36012 24.5905 9.22805 24.6069C9.09598 24.6233 8.96199 24.6009 8.84243 24.5424C8.72282 24.488 8.62167 24.3999 8.55139 24.2889C8.48112 24.1778 8.44477 24.0487 8.44681 23.9173V22.1238H10.6544ZM31.8363 29.4429C31.3668 30.9147 30.1931 31.9749 28.3468 32.5895C27.5745 32.8453 26.7656 32.9736 25.952 32.9693H14.5447C13.7311 32.9736 12.9222 32.8453 12.1499 32.5895C8.53384 31.3841 8.38351 28.7176 8.45736 27.7707H11.2162V27.9158C11.2334 28.3516 11.4187 28.7638 11.7331 29.066C12.0475 29.3683 12.4667 29.5371 12.9029 29.5371C13.339 29.5371 13.7582 29.3683 14.0727 29.066C14.3871 28.7638 14.5723 28.3516 14.5896 27.9158V27.7707H32.042C32.0773 28.3361 32.0076 28.903 31.8363 29.4429V29.4429ZM33.8935 25.0726V25.4445C33.8935 25.8357 33.7383 26.211 33.4618 26.4879C33.1854 26.7648 32.8104 26.9208 32.4192 26.9215H14.5896V25.9429C15.0875 25.8529 15.5501 25.6244 15.9242 25.2836C16.2621 24.9539 16.7155 24.7694 17.1875 24.7694C17.6596 24.7694 18.113 24.9539 18.4509 25.2836C18.9391 25.7326 19.5785 25.9812 20.2418 25.9799C20.9062 25.9873 21.5478 25.7379 22.0326 25.2836C22.371 24.9538 22.8248 24.7692 23.2973 24.7692C23.7698 24.7692 24.2236 24.9538 24.562 25.2836C25.0508 25.7315 25.6898 25.98 26.3529 25.98C27.0159 25.98 27.6549 25.7315 28.1437 25.2836C28.3089 25.1164 28.5057 24.9837 28.7225 24.8931C28.9394 24.8026 29.1721 24.756 29.4071 24.7561C29.7573 24.7462 30.098 24.8708 30.3593 25.1042C30.5852 25.2907 30.8594 25.4091 31.1501 25.4457C31.4407 25.4822 31.7357 25.4355 32.0008 25.3108C32.2659 25.1861 32.4901 24.9887 32.6473 24.7415C32.8044 24.4944 32.8881 24.2076 32.8886 23.9147V23.6509C33.1849 23.7513 33.4417 23.9429 33.6223 24.1983C33.8028 24.4537 33.8978 24.7598 33.8935 25.0726ZM32.4192 19.4599H8.07755C7.68674 19.4592 7.31213 19.3037 7.03579 19.0273C6.75944 18.751 6.60388 18.3764 6.60319 17.9856V17.611C6.60319 17.22 6.75852 16.845 7.03502 16.5685C7.31152 16.292 7.68653 16.1367 8.07755 16.1367H32.4192C32.8102 16.1367 33.1852 16.292 33.4617 16.5685C33.7382 16.845 33.8935 17.22 33.8935 17.611V17.9856C33.8928 18.3764 33.7373 18.751 33.4609 19.0273C33.1846 19.3037 32.81 19.4592 32.4192 19.4599V19.4599Z" fill="black"/>
<path d="M26.9961 8.81494C27.0536 8.86886 27.0994 8.93398 27.1308 9.0063C27.1622 9.07861 27.1785 9.15658 27.1786 9.23542C27.1787 9.31425 27.1627 9.39228 27.1315 9.46469C27.1004 9.5371 27.0547 9.60236 26.9974 9.65646C26.94 9.71055 26.8722 9.75234 26.7981 9.77924C26.724 9.80615 26.6452 9.8176 26.5665 9.81289C26.4878 9.80818 26.4109 9.78741 26.3405 9.75186C26.2702 9.71632 26.2078 9.66674 26.1573 9.60619C25.9384 9.37409 25.5349 8.57229 25.767 8.35337C25.9991 8.13446 26.7772 8.58547 26.9961 8.81494Z" fill="#FFF5CC"/>
<path d="M23.9366 11.6687C23.9809 11.8089 23.97 11.9607 23.9062 12.0932C23.8423 12.2256 23.7304 12.3288 23.5932 12.3816C23.456 12.4344 23.3038 12.4329 23.1677 12.3773C23.0315 12.3218 22.9217 12.2165 22.8605 12.0828C22.7445 11.7848 22.6785 10.888 22.9766 10.7641C23.2746 10.6401 23.8232 11.3707 23.9366 11.6687Z" fill="#FFF5CC"/>
<path d="M20.788 9.29497C20.788 9.44816 20.7272 9.59508 20.6189 9.7034C20.5105 9.81172 20.3636 9.87258 20.2104 9.87258C20.0572 9.87258 19.9103 9.81172 19.802 9.7034C19.6937 9.59508 19.6328 9.44816 19.6328 9.29497C19.6328 8.97583 19.8966 8.116 20.2104 8.116C20.5243 8.116 20.788 8.97583 20.788 9.29497Z" fill="#FFF5CC"/>
<path d="M17.6231 12.0353C17.5847 12.1836 17.4889 12.3106 17.3568 12.3882C17.2247 12.4659 17.0672 12.4879 16.9189 12.4494C16.7706 12.4109 16.6437 12.3151 16.566 12.1831C16.4884 12.051 16.4664 11.8935 16.5048 11.7452C16.5681 11.434 17.0429 10.6638 17.3594 10.7429C17.6759 10.8221 17.6944 11.7215 17.6231 12.0353Z" fill="#FFF5CC"/>
<path d="M14.4398 9.51653C14.3669 9.64338 14.2486 9.73785 14.1088 9.78086C13.969 9.82388 13.818 9.81224 13.6865 9.7483C13.5549 9.68435 13.4525 9.57286 13.3999 9.43634C13.3473 9.29982 13.3485 9.14844 13.4032 9.01276C13.543 8.72527 14.1497 8.0659 14.4371 8.20305C14.7246 8.3402 14.5796 9.22904 14.4398 9.51653Z" fill="#FFF5CC"/>
<path d="M25.5035 8.07907C25.274 8.29534 25.2397 8.64349 25.4349 9.11825C25.6512 9.68004 25.9782 10.1733 26.5769 10.1733C26.7646 10.1728 26.948 10.1174 27.1047 10.0141C27.2613 9.91074 27.3843 9.76386 27.4586 9.59152C27.5328 9.41918 27.5551 9.22889 27.5226 9.04406C27.4902 8.85923 27.4044 8.68791 27.2759 8.55118V8.55118C27.057 8.31908 26.0178 7.58849 25.5035 8.07907ZM26.5717 9.39782C26.5207 9.39571 26.4725 9.37397 26.4372 9.33716C26.2914 9.15017 26.1806 8.93841 26.1101 8.71207C26.3322 8.79537 26.5377 8.91774 26.7167 9.07341C26.7428 9.10108 26.76 9.13583 26.7664 9.1733C26.7727 9.21076 26.7678 9.24926 26.7523 9.28394C26.7368 9.31862 26.7113 9.34794 26.6792 9.36821C26.6471 9.38847 26.6096 9.39878 26.5717 9.39782Z" fill="black"/>
<path d="M22.4988 12.22C22.5441 12.3371 22.6121 12.444 22.6991 12.5346C22.786 12.6251 22.8901 12.6975 23.0052 12.7475C23.1791 12.8246 23.3719 12.8486 23.5594 12.8163C23.7468 12.784 23.9205 12.6968 24.0585 12.5659C24.1964 12.435 24.2925 12.2661 24.3346 12.0806C24.3767 11.8951 24.3629 11.7013 24.295 11.5237V11.5237C24.1816 11.2283 23.5037 10.1548 22.8364 10.4106C22.1691 10.6665 22.3854 11.9219 22.4988 12.22ZM23.1609 11.2441C23.3335 11.4061 23.4763 11.5971 23.5829 11.8085V11.8085C23.6009 11.8561 23.5994 11.9089 23.5786 11.9553C23.5579 12.0018 23.5196 12.0381 23.4721 12.0565C23.4486 12.0657 23.4234 12.0703 23.3981 12.0697C23.3728 12.0691 23.3479 12.0635 23.3248 12.0532C23.3017 12.0429 23.2809 12.0281 23.2636 12.0096C23.2463 11.9911 23.2329 11.9694 23.2242 11.9457C23.16 11.7177 23.1385 11.4799 23.1609 11.2441Z" fill="black"/>
<path d="M19.2494 9.29497C19.2425 9.42546 19.2623 9.55597 19.3076 9.67855C19.3528 9.80114 19.4225 9.91324 19.5124 10.008C19.6024 10.1028 19.7107 10.1783 19.8307 10.2299C19.9508 10.2814 20.0801 10.308 20.2107 10.308C20.3414 10.308 20.4707 10.2814 20.5908 10.2299C20.7108 10.1783 20.8191 10.1028 20.909 10.008C20.999 9.91324 21.0687 9.80114 21.1139 9.67855C21.1592 9.55597 21.1789 9.42546 21.1721 9.29497C21.1721 8.97583 20.9084 7.73093 20.2094 7.73093C19.5105 7.73093 19.2494 8.97583 19.2494 9.29497ZM20.2094 9.48751C20.1841 9.48751 20.1591 9.48253 20.1357 9.47285C20.1124 9.46318 20.0912 9.449 20.0733 9.43112C20.0554 9.41324 20.0412 9.39201 20.0315 9.36865C20.0219 9.34529 20.0169 9.32026 20.0169 9.29497C20.0384 9.05565 20.1036 8.82232 20.2094 8.60658C20.314 8.81906 20.3792 9.04871 20.402 9.28442C20.4034 9.31058 20.3995 9.33675 20.3904 9.36135C20.3814 9.38594 20.3675 9.40843 20.3494 9.42744C20.3314 9.44645 20.3097 9.46158 20.2856 9.47191C20.2615 9.48224 20.2356 9.48755 20.2094 9.48751V9.48751Z" fill="black"/>
<path d="M16.5304 10.867C16.1796 11.3364 15.9291 11.8692 16.2271 12.373C16.324 12.5363 16.4671 12.6673 16.6383 12.7494C16.8095 12.8316 17.0012 12.8613 17.1893 12.8348C17.3773 12.8083 17.5533 12.7268 17.6952 12.6005C17.837 12.4742 17.9383 12.3088 17.9863 12.125C18.0681 11.8191 18.134 10.5425 17.4456 10.3711C17.1423 10.292 16.8311 10.4529 16.5304 10.867ZM17.2425 11.922C17.229 11.9716 17.1969 12.014 17.1529 12.0406C17.1201 12.0593 17.0826 12.0679 17.045 12.0655C17.0074 12.0631 16.9714 12.0496 16.9413 12.0269C16.9113 12.0041 16.8886 11.9731 16.876 11.9375C16.8634 11.902 16.8616 11.8636 16.8707 11.827C16.9498 11.6033 17.0706 11.3965 17.2267 11.2177C17.275 11.4531 17.2803 11.6952 17.2425 11.9325V11.922Z" fill="black"/>
<path d="M13.0549 8.84395C12.9975 8.958 12.9634 9.08232 12.9545 9.20968C12.9456 9.33705 12.9621 9.46491 13.0031 9.58582C13.0441 9.70673 13.1088 9.81828 13.1933 9.91397C13.2778 10.0097 13.3805 10.0876 13.4954 10.1432C13.6103 10.1988 13.7352 10.231 13.8627 10.238C13.9902 10.2449 14.1177 10.2264 14.238 10.1835C14.3583 10.1407 14.4688 10.0743 14.5632 9.98832C14.6576 9.90234 14.7339 9.79844 14.7877 9.68268C14.9539 9.33716 15.2124 8.15292 14.6031 7.85752C13.9938 7.56212 13.2342 8.47733 13.0549 8.84395ZM14.0941 9.34771C14.0831 9.37134 14.0675 9.39249 14.0481 9.4099C14.0287 9.42731 14.006 9.44061 13.9814 9.44899C13.9567 9.45737 13.9306 9.46067 13.9047 9.45867C13.8787 9.45668 13.8534 9.44944 13.8303 9.43739C13.8064 9.42673 13.785 9.41126 13.7674 9.39194C13.7498 9.37261 13.7363 9.34986 13.7279 9.32509C13.7195 9.30033 13.7163 9.2741 13.7185 9.24803C13.7207 9.22197 13.7282 9.19664 13.7406 9.17364C13.8624 8.96974 14.0217 8.79075 14.2101 8.64614C14.214 8.88508 14.1747 9.12276 14.0941 9.34771V9.34771Z" fill="black"/>
</g>
</g>
<defs>
<filter id="filter0_d_502_2282" x="0.844954" y="0.00608683" width="38.8062" height="38.7231" filterUnits="userSpaceOnUse" color-interpolation-filters="sRGB">
<feFlood flood-opacity="0" result="BackgroundImageFix"/>
<feColorMatrix in="SourceAlpha" type="matrix" values="0 0 0 0 0 0 0 0 0 0 0 0 0 0 0 0 0 0 127 0" result="hardAlpha"/>
<feOffset/>
<feGaussianBlur stdDeviation="2.45399"/>
<feComposite in2="hardAlpha" operator="out"/>
<feColorMatrix type="matrix" values="0 0 0 0 0 0 0 0 0 0 0 0 0 0 0 0 0 0 0.35 0"/>
<feBlend mode="normal" in2="BackgroundImageFix" result="effect1_dropShadow_502_2282"/>
<feBlend mode="normal" in="SourceGraphic" in2="effect1_dropShadow_502_2282" result="shape"/>
</filter>
<filter id="filter1_d_502_2282" x="4.52691" y="3.68707" width="31.4432" height="31.3612" filterUnits="userSpaceOnUse" color-interpolation-filters="sRGB">
<feFlood flood-opacity="0" result="BackgroundImageFix"/>
<feColorMatrix in="SourceAlpha" type="matrix" values="0 0 0 0 0 0 0 0 0 0 0 0 0 0 0 0 0 0 127 0" result="hardAlpha"/>
<feOffset/>
<feGaussianBlur stdDeviation="0.613497"/>
<feComposite in2="hardAlpha" operator="out"/>
<feColorMatrix type="matrix" values="0 0 0 0 0 0 0 0 0 0 0 0 0 0 0 0 0 0 0.25 0"/>
<feBlend mode="normal" in2="BackgroundImageFix" result="effect1_dropShadow_502_2282"/>
<feBlend mode="normal" in="SourceGraphic" in2="effect1_dropShadow_502_2282" result="shape"/>
</filter>
</defs>
</svg>
