<svg width="35" height="35" viewBox="0 0 35 35" fill="none" xmlns="http://www.w3.org/2000/svg">
<g filter="url(#filter0_d_502_2556)">
<path d="M14.8335 13.2283C15.4428 13.2283 15.9366 12.7344 15.9366 12.1252C15.9366 11.516 15.4428 11.0222 14.8335 11.0222C14.2243 11.0222 13.7305 11.516 13.7305 12.1252C13.7305 12.7344 14.2243 13.2283 14.8335 13.2283Z" fill="#FF9F1C"/>
<path d="M9.3222 18.9363C8.48829 18.3215 6.67535 18.5009 6.04728 17.2448C5.16588 17.6855 3.93613 16.0441 4.42961 15.284C3.86752 14.7958 3.52446 13.3972 4.42961 12.909C3.83322 12.0514 3.58779 10.0563 5.27935 9.23298C6.97091 8.40963 8.39065 9.76076 8.73371 10.753C9.66526 10.3123 10.5968 11.4127 10.6443 12.1727C11.5521 12.2229 12.1142 14.2074 11.2328 14.6481C11.845 15.8963 10.6443 17.2448 10.6206 18.2977C10.6265 18.4507 10.588 18.6022 10.5096 18.7338C10.4312 18.8653 10.3163 18.9713 10.1789 19.0389C10.0415 19.1065 9.8874 19.1328 9.73534 19.1146C9.58328 19.0964 9.43977 19.0345 9.3222 18.9363V18.9363Z" fill="#95AE45"/>
<path d="M11.4273 21.0185C13.4167 21.0185 15.0295 19.4057 15.0295 17.4163C15.0295 15.4269 13.4167 13.8142 11.4273 13.8142C9.43793 13.8142 7.8252 15.4269 7.8252 17.4163C7.8252 19.4057 9.43793 21.0185 11.4273 21.0185Z" fill="#C32F27"/>
<path d="M14.5883 18.2001C14.7361 17.221 13.7808 15.7511 14.5645 14.6481C13.8045 14.1203 14.6358 12.3205 15.4934 12.3944C15.665 11.7083 16.6942 10.7767 17.5043 11.3388C17.9688 10.4548 19.5363 9.37811 21.0062 10.4073C22.4761 11.4365 21.9377 13.3101 21.2516 14.0068C22.0433 14.5953 21.5155 15.8699 20.9085 16.2631C21.2754 17.0548 19.853 18.4191 19.0613 17.8781C18.2696 18.9574 16.586 18.5405 15.7046 18.9812C15.575 19.0518 15.4282 19.0847 15.2808 19.0764C15.1335 19.068 14.9914 19.0185 14.8707 18.9337C14.7555 18.8538 14.667 18.7411 14.6166 18.6103C14.5663 18.4795 14.5564 18.3366 14.5883 18.2001V18.2001Z" fill="#95AE45"/>
<path d="M24.7832 16.0441C26.8943 14.5979 29.9291 12.0012 29.4383 10.7266C28.9474 9.45201 27.8945 9.62618 27.4301 10.753C26.9656 11.8798 26.3243 14.6481 24.7832 16.0441Z" fill="#AAC348"/>
<path d="M24.1689 16.4373C26.032 14.6243 28.2355 14.5241 30.5393 15.5057C32.8431 16.4874 32.1807 14.0834 30.6607 13.6928C29.4125 13.3497 27.085 12.9592 24.1689 16.4373Z" fill="#C7E554"/>
<path d="M24.6826 16.8516C26.1525 14.6956 25.8596 12.5158 24.4873 10.4337C23.1151 8.35157 25.5878 8.5706 26.2501 9.99298C26.7885 11.1436 27.5986 13.3735 24.6826 16.8516Z" fill="#95AE45"/>
<path d="M21.1042 25.6472C22.552 24.343 23.9114 22.9439 25.1734 21.4592C28.823 17.097 27.4006 16.1813 25.8094 14.8434C24.2181 13.5054 23.0649 12.2467 19.4152 16.6326C17.8627 18.5195 16.4614 20.5261 15.2246 22.6335L21.1042 25.6472Z" fill="#FF9F1C"/>
<path d="M29.4587 18.7147C29.0919 23.0505 26.7142 28.93 17.945 28.93C9.17584 28.93 6.79816 23.0505 6.42871 18.7147H29.4587Z" fill="#FCFCFC"/>
<path d="M11.084 31.2575C11.084 29.7137 12.1132 28.3177 12.6673 28.0723H23.2125C23.7746 28.3177 24.7959 29.7137 24.7959 31.2575H11.084Z" fill="#FCFCFC"/>
<path d="M16.3277 5.29041C16.9369 5.29041 17.4308 4.79654 17.4308 4.18733C17.4308 3.57812 16.9369 3.08426 16.3277 3.08426C15.7185 3.08426 15.2246 3.57812 15.2246 4.18733C15.2246 4.79654 15.7185 5.29041 16.3277 5.29041Z" fill="#FF9F1C"/>
<path d="M11.4537 7.83701C12.0629 7.83701 12.5567 7.34314 12.5567 6.73393C12.5567 6.12472 12.0629 5.63086 11.4537 5.63086C10.8444 5.63086 10.3506 6.12472 10.3506 6.73393C10.3506 7.34314 10.8444 7.83701 11.4537 7.83701Z" fill="#FF9F1C"/>
<path d="M22.5748 7.37253C23.184 7.37253 23.6778 6.87867 23.6778 6.26946C23.6778 5.66024 23.184 5.16638 22.5748 5.16638C21.9655 5.16638 21.4717 5.66024 21.4717 6.26946C21.4717 6.87867 21.9655 7.37253 22.5748 7.37253Z" fill="#FF9F1C"/>
<path d="M32.4361 14.941C32.327 14.5423 32.1158 14.179 31.8233 13.8869C31.5308 13.5949 31.1671 13.3843 30.7683 13.2758C30.1678 13.1061 29.5446 13.0313 28.921 13.0542C29.681 12.149 30.1217 11.2676 29.8526 10.5551C29.5834 9.84257 29.0609 9.42826 28.5041 9.40451C27.9472 9.38076 27.3297 9.84521 27.0342 10.5841C27.0104 10.6316 27.0104 10.658 26.9867 10.7055C26.8864 10.4126 26.765 10.0933 26.6436 9.8241C26.4666 9.44951 26.1948 9.12773 25.855 8.89071C25.5152 8.65369 25.1193 8.50968 24.7066 8.47297C24.5197 8.45406 24.3312 8.48777 24.1624 8.57031C23.9936 8.65284 23.8512 8.78091 23.7513 8.94006C23.5059 9.35701 23.63 9.94285 24.0944 10.6791C24.1563 10.7732 24.2531 10.8389 24.3635 10.8617C24.4739 10.8845 24.5888 10.8624 24.6829 10.8005C24.777 10.7386 24.8427 10.6418 24.8655 10.5314C24.8882 10.421 24.8662 10.3062 24.8043 10.212C24.4375 9.64993 24.4612 9.40451 24.4876 9.38076C24.5792 9.3343 24.6854 9.32577 24.7832 9.35701C25.0127 9.40874 25.2282 9.50991 25.4146 9.65348C25.601 9.79705 25.7539 9.97956 25.8625 10.1883C26.2357 10.9391 26.3963 11.7778 26.3269 12.6135C26.2437 12.8566 26.1459 13.0946 26.034 13.326C25.9851 12.8911 25.8859 12.4634 25.7385 12.0514C25.7017 11.9465 25.6253 11.8603 25.5257 11.8111C25.4261 11.7619 25.3112 11.7536 25.2056 11.7881C25.1 11.8227 25.0121 11.8972 24.9607 11.9957C24.9094 12.0942 24.8987 12.2089 24.9309 12.3153C25.092 12.7974 25.1809 13.3007 25.1948 13.8089C24.6671 13.4183 24.0443 13.099 23.308 13.1729C22.8677 13.2245 22.4427 13.3665 22.0598 13.5899C22.2981 13.0858 22.3992 12.5278 22.3527 11.9722C22.2685 11.2669 21.9108 10.623 21.3565 10.1788C20.8023 9.7346 20.0958 9.52575 19.3892 9.59715C19.2992 9.60069 19.2103 9.61758 19.1253 9.64729C18.4275 9.82728 17.8081 10.2315 17.3625 10.7979C17.0398 10.7035 16.6948 10.7212 16.3834 10.848C16.2262 10.9097 16.078 10.9923 15.9427 11.0934C15.6659 10.8099 15.2897 10.645 14.8936 10.6335C14.4975 10.6221 14.1125 10.765 13.8197 11.0321C13.527 11.2991 13.3494 11.6695 13.3246 12.065C13.2997 12.4605 13.4295 12.8502 13.6865 13.1518C13.755 13.2227 13.8291 13.288 13.9081 13.3471C13.816 13.6139 13.7827 13.8975 13.8105 14.1783C13.2883 13.7931 12.6841 13.5339 12.045 13.421C11.9474 12.7085 11.5568 12.0223 10.9684 11.8033C10.7957 11.2324 10.4203 10.7443 9.91278 10.4311C9.61169 10.2472 9.25783 10.1692 8.90735 10.2094C8.7889 9.98626 8.64064 9.78029 8.46664 9.59715C8.39061 9.51334 8.28493 9.46242 8.172 9.45518C8.05907 9.44794 7.94776 9.48495 7.86165 9.55836C7.77553 9.63178 7.72139 9.73584 7.71068 9.8485C7.69997 9.96115 7.73353 10.0736 7.80427 10.1619C8.00209 10.3628 8.15265 10.6053 8.24497 10.8718C8.28271 10.9778 8.36049 11.0648 8.46162 11.1141C8.56275 11.1634 8.67918 11.1712 8.78595 11.1356C8.88899 11.0832 9.00375 11.0581 9.11926 11.0628C9.23477 11.0674 9.34717 11.1016 9.44569 11.162C9.62572 11.2697 9.78029 11.4151 9.89874 11.5882C10.0172 11.7613 10.0967 11.958 10.1318 12.1648C10.1375 12.2694 10.1816 12.3681 10.2556 12.4421C10.3296 12.5162 10.4284 12.5603 10.5329 12.566C10.752 12.5897 11.0211 12.9328 11.1214 13.3735C10.1349 13.4159 9.20205 13.8342 8.51414 14.5425C8.47503 14.5779 8.44125 14.6188 8.41386 14.6639L8.0233 13.9039C8.08922 13.4443 8.24719 13.0027 8.48775 12.6055C8.52247 12.5614 8.54761 12.5106 8.56156 12.4562C8.57551 12.4018 8.57797 12.3451 8.56878 12.2897C8.55959 12.2344 8.53896 12.1815 8.50819 12.1346C8.47743 12.0876 8.43722 12.0476 8.39011 12.0171C8.29854 11.953 8.18544 11.9277 8.07529 11.9464C7.96515 11.9652 7.86683 12.0266 7.80163 12.1173C7.67593 12.327 7.56992 12.5478 7.48496 12.7771L6.79884 11.4312C6.77791 11.3761 6.74566 11.3259 6.70416 11.284C6.66266 11.2421 6.61284 11.2093 6.55791 11.1878C6.50298 11.1663 6.44416 11.1566 6.38523 11.1592C6.3263 11.1618 6.26858 11.1768 6.21578 11.2031C6.16299 11.2294 6.11629 11.2665 6.0787 11.3119C6.04111 11.3574 6.01346 11.4102 5.99753 11.467C5.98161 11.5238 5.97776 11.5833 5.98623 11.6417C5.99471 11.7001 6.01532 11.756 6.04674 11.8059L6.73286 13.1544C6.49482 13.0774 6.24676 13.0356 5.9966 13.0304H5.96493C5.85642 13.0354 5.7538 13.0812 5.67768 13.1587C5.60155 13.2362 5.55757 13.3396 5.55457 13.4482C5.55156 13.5568 5.58975 13.6625 5.66146 13.7441C5.73318 13.8257 5.83311 13.8771 5.94118 13.8881C6.40365 13.9412 6.8516 14.0828 7.26065 14.305L7.89399 15.4556C7.84413 15.5389 7.80343 15.6274 7.7726 15.7195C7.16037 15.5242 6.59564 15.4028 6.42411 15.3527C6.3677 15.34 6.30931 15.3389 6.25247 15.3495C6.19563 15.3601 6.14152 15.382 6.09342 15.4141C6.04531 15.4462 6.00422 15.4877 5.97261 15.5361C5.941 15.5845 5.91954 15.6388 5.90952 15.6957C5.89536 15.7514 5.89241 15.8093 5.90084 15.866C5.90928 15.9228 5.92893 15.9774 5.95864 16.0265C5.98836 16.0756 6.02755 16.1183 6.07394 16.1522C6.12032 16.186 6.17298 16.2102 6.22883 16.2235C6.4505 16.2737 6.96509 16.395 7.47968 16.5666C7.3803 16.9838 7.35528 17.4153 7.40579 17.8412C6.98043 17.7181 6.61977 17.4341 6.40036 17.0495C6.37691 16.9992 6.34365 16.9541 6.30254 16.9168C6.26142 16.8795 6.21328 16.8508 6.16092 16.8324C6.10857 16.8139 6.05306 16.8061 5.99766 16.8094C5.94225 16.8127 5.88806 16.8271 5.83827 16.8516C5.6166 16.9519 5.32367 16.7539 5.102 16.5085C4.75894 16.118 4.6613 15.6773 4.75894 15.5057C4.81932 15.4194 4.84522 15.3135 4.83155 15.209C4.81788 15.1045 4.76562 15.0089 4.68505 14.941C4.54038 14.789 4.43051 14.6074 4.36307 14.4087C4.29563 14.21 4.27222 13.9991 4.29449 13.7904C4.29375 13.6836 4.32304 13.5787 4.37903 13.4877C4.43502 13.3967 4.51546 13.3233 4.61116 13.2758C4.66623 13.2505 4.71484 13.213 4.75334 13.1662C4.79184 13.1194 4.81923 13.0645 4.83346 13.0055C4.84768 12.9466 4.84836 12.8852 4.83546 12.826C4.82255 12.7668 4.79639 12.7113 4.75894 12.6636C4.58963 12.3877 4.47637 12.0812 4.42566 11.7615C4.37494 11.4418 4.38776 11.1152 4.46338 10.8005C4.5299 10.5414 4.6519 10.2999 4.82094 10.0925C4.98998 9.88524 5.20203 9.71711 5.44243 9.59979C5.80494 9.41402 6.21631 9.34577 6.61939 9.40451C6.67414 9.41404 6.73024 9.41269 6.78447 9.40054C6.83871 9.38839 6.89002 9.36568 6.93547 9.3337C6.98093 9.30172 7.01964 9.2611 7.0494 9.21416C7.07916 9.16722 7.09938 9.11488 7.10891 9.06013C7.11844 9.00537 7.11709 8.94928 7.10495 8.89504C7.0928 8.84081 7.07008 8.7895 7.03811 8.74404C7.00613 8.69859 6.96551 8.65987 6.91857 8.63012C6.87163 8.60036 6.81929 8.58014 6.76453 8.57061C6.17925 8.47281 5.57804 8.56531 5.04922 8.8345C4.69737 9.00457 4.38672 9.24915 4.13883 9.55127C3.89093 9.85339 3.71173 10.2058 3.61364 10.5841C3.44108 11.3226 3.51811 12.0975 3.83268 12.7876C3.58217 13.0348 3.431 13.3653 3.40781 13.7165C3.35534 14.3112 3.52451 14.9042 3.88282 15.3817C3.73504 15.9702 4.0306 16.6325 4.4106 17.097C4.79061 17.5615 5.32895 17.8069 5.78285 17.7594C5.9498 17.9835 6.1575 18.1742 6.39508 18.3215H6.41883C6.30355 18.3249 6.19415 18.3731 6.11384 18.4559C6.03353 18.5387 5.98863 18.6495 5.98868 18.7648C6.10772 20.4013 6.52259 22.0027 7.21315 23.4911C7.23594 23.5431 7.26897 23.5899 7.31026 23.6288C7.35156 23.6677 7.40027 23.6979 7.4535 23.7176C7.50672 23.7373 7.56336 23.746 7.62003 23.7433C7.6767 23.7406 7.73225 23.7265 7.78335 23.7018C7.83445 23.6771 7.88005 23.6424 7.91743 23.5997C7.95482 23.5571 7.98322 23.5073 8.00094 23.4534C8.01865 23.3995 8.02533 23.3426 8.02055 23.286C8.01578 23.2295 7.99966 23.1745 7.97316 23.1243C7.39108 21.8881 7.01832 20.5638 6.87009 19.2055H28.9448C28.6518 21.8022 27.4221 25.9163 22.9676 27.6818H12.8737C11.8692 27.2899 10.9406 26.7265 10.1292 26.0166C10.0874 25.978 10.0385 25.9479 9.98508 25.9282C9.93172 25.9085 9.87499 25.8995 9.81814 25.9017C9.76129 25.9039 9.70543 25.9173 9.65375 25.9411C9.60207 25.9648 9.55558 25.9986 9.51694 26.0403C9.4783 26.0821 9.44826 26.1311 9.42854 26.1844C9.40882 26.2378 9.39981 26.2945 9.40202 26.3514C9.40422 26.4082 9.4176 26.4641 9.4414 26.5158C9.46519 26.5675 9.49893 26.6139 9.54069 26.6526C10.2445 27.2683 11.0272 27.7875 11.8682 28.1964C11.0879 29.0473 10.6441 30.1533 10.62 31.3077C10.6223 31.4198 10.6663 31.5271 10.7434 31.6085C10.8205 31.69 10.9251 31.7399 11.037 31.7484H24.7594C24.8716 31.7461 24.9788 31.7021 25.0603 31.625C25.1418 31.5479 25.1916 31.4432 25.2001 31.3314C25.1753 30.1767 24.7306 29.0706 23.9493 28.2201C28.5568 26.0403 29.6098 21.4592 29.8314 18.8361C29.8391 18.7773 29.8339 18.7176 29.8163 18.661C29.7987 18.6044 29.7691 18.5523 29.7295 18.5082C29.6899 18.4641 29.6413 18.4291 29.5869 18.4055C29.5326 18.3819 29.4737 18.3704 29.4145 18.3716H27.6464C28.1135 16.9994 27.6728 16.1417 27.0104 15.4688C28.0167 15.2928 29.1189 15.4644 30.317 15.9834C30.6554 16.143 31.0225 16.2328 31.3963 16.2473C31.6425 16.2488 31.8827 16.1721 32.0825 16.0282C32.24 15.9025 32.3567 15.7328 32.4178 15.5406C32.4789 15.3485 32.4816 15.1426 32.4255 14.9489L32.4361 14.941ZM11.5621 30.8406C11.7073 29.69 12.4198 28.7294 12.8103 28.5157H23.1022C23.4716 28.7584 24.2052 29.69 24.353 30.8406H11.5621ZM27.4749 11.8798C27.5989 11.4866 27.7203 11.17 27.8179 10.9245C28.0159 10.4838 28.2349 10.2859 28.4803 10.2622C28.6756 10.2384 28.8973 10.5076 29.0424 10.8744C29.2139 11.3415 28.5146 12.4921 26.6436 14.0833C26.96 13.3643 27.2375 12.6287 27.4749 11.8798ZM16.6948 11.6582C16.7879 11.6111 16.8923 11.5909 16.9962 11.5997C17.1001 11.6086 17.1995 11.6462 17.2833 11.7083C17.3325 11.7413 17.388 11.7637 17.4462 11.7742C17.5045 11.7846 17.5643 11.7828 17.6219 11.7689C17.6795 11.755 17.7335 11.7293 17.7806 11.6935C17.8277 11.6576 17.8669 11.6123 17.8956 11.5605C18.0517 11.2929 18.2603 11.0597 18.5088 10.8747C18.7573 10.6896 19.0406 10.5567 19.3417 10.4838C19.5888 10.4327 19.8439 10.4335 20.0907 10.486C20.3375 10.5385 20.5708 10.6417 20.7757 10.7891C20.9806 10.9364 21.1526 11.1247 21.281 11.342C21.4094 11.5592 21.4913 11.8008 21.5214 12.0514C21.5491 12.358 21.5135 12.6671 21.4168 12.9594C21.3201 13.2518 21.1644 13.5211 20.9594 13.7508C20.9203 13.7924 20.89 13.8413 20.87 13.8947C20.8501 13.9481 20.8409 14.005 20.8431 14.0619C20.8453 14.1189 20.8589 14.1748 20.8829 14.2265C20.9069 14.2782 20.941 14.3246 20.9831 14.3631C20.9865 14.363 20.9898 14.3637 20.9928 14.3651C20.9959 14.3664 20.9987 14.3684 21.0009 14.3709C21.0031 14.3734 21.0048 14.3764 21.0059 14.3796C21.0069 14.3827 21.0072 14.3861 21.0069 14.3895C20.3866 14.9279 19.8128 15.5176 19.2915 16.1523C19.214 16.0964 19.1228 16.0627 19.0277 16.0546C18.4862 16.091 17.9471 16.1562 17.4126 16.2499L18.3415 14.9515C18.7603 14.8142 19.1992 14.7482 19.6399 14.7563C19.6969 14.7648 19.755 14.7619 19.8109 14.748C19.8669 14.734 19.9195 14.7091 19.9658 14.6748C20.0121 14.6405 20.0512 14.5974 20.0809 14.548C20.1105 14.4986 20.1302 14.4438 20.1386 14.3868C20.1471 14.3298 20.1443 14.2717 20.1303 14.2158C20.1164 14.1599 20.0915 14.1072 20.0572 14.0609C20.0229 14.0146 19.9798 13.9755 19.9304 13.9458C19.881 13.9162 19.8262 13.8965 19.7692 13.8881C19.549 13.8643 19.327 13.8643 19.1068 13.8881L19.9407 12.7375C19.9754 12.6934 20.0006 12.6425 20.0145 12.5881C20.0285 12.5338 20.0309 12.4771 20.0218 12.4217C20.0126 12.3663 19.9919 12.3135 19.9612 12.2665C19.9304 12.2196 19.8902 12.1795 19.8431 12.149C19.7358 12.0889 19.611 12.0682 19.49 12.0903C19.3691 12.1125 19.2597 12.1762 19.1807 12.2704L18.3468 13.4236C18.2972 13.2063 18.2319 12.9929 18.1515 12.785C18.1276 12.7351 18.094 12.6905 18.0527 12.6537C18.0115 12.6169 17.9633 12.5886 17.9111 12.5705C17.8589 12.5523 17.8035 12.5447 17.7483 12.548C17.6931 12.5513 17.6391 12.5655 17.5894 12.5897C17.4919 12.6421 17.4177 12.7293 17.3815 12.8339C17.3453 12.9386 17.3498 13.053 17.3942 13.1544C17.5494 13.5701 17.6324 14.0092 17.6396 14.4528L16.708 15.7511C16.5866 14.941 16.365 14.181 16.365 14.1678C16.3263 14.0641 16.2519 13.9776 16.1552 13.9239C16.0584 13.8702 15.9456 13.8528 15.8372 13.8749C15.73 13.9085 15.6398 13.982 15.5853 14.0803C15.5308 14.1785 15.5161 14.2939 15.5443 14.4026C15.7158 14.9647 15.985 16.2499 15.9348 16.8278L15.0191 18.0523C15.0101 17.6388 14.9525 17.2279 14.8476 16.8278C14.6761 16.0942 14.5283 15.4318 14.8977 14.8935C14.9323 14.8492 14.9573 14.7982 14.971 14.7437C14.9848 14.6892 14.987 14.6325 14.9776 14.5771C14.9681 14.5217 14.9472 14.4689 14.9162 14.422C14.8852 14.3752 14.8447 14.3353 14.7974 14.305C14.6259 14.181 14.6523 13.8142 14.7737 13.545C14.9452 13.1043 15.2645 12.8114 15.4598 12.8351C15.5629 12.8463 15.6667 12.8202 15.7523 12.7617C15.8379 12.7031 15.8998 12.6159 15.9269 12.5158C16.0636 12.1455 16.3337 11.8396 16.6843 11.6582H16.6948ZM15.9032 18.2977L16.613 17.3187C17.2589 17.1234 17.9245 17.0004 18.5975 16.9519C18.265 17.3662 17.9219 17.8333 17.5789 18.3215H15.9111L15.9032 18.2977ZM14.8344 11.4629C14.9349 11.463 15.0342 11.485 15.1254 11.5273C15.2165 11.5697 15.2973 11.6315 15.3622 11.7083C15.2953 11.7999 15.2378 11.8981 15.1906 12.0012C14.8473 12.0965 14.5455 12.3036 14.333 12.5897C14.2124 12.4603 14.1463 12.2894 14.1483 12.1126C14.1502 11.9357 14.2201 11.7664 14.3435 11.6397C14.4805 11.5234 14.6548 11.4607 14.8344 11.4629V11.4629ZM13.6812 15.1864L13.8527 15.3579C13.8128 15.9187 13.8708 16.4822 14.0242 17.0231C14.1224 17.3826 14.1721 17.7536 14.172 18.1262C14.172 18.1763 14.1483 18.2502 14.1483 18.2977H12.9238L12.4831 17.857H13.3883C13.5051 17.857 13.6172 17.8106 13.6999 17.7279C13.7825 17.6453 13.829 17.5332 13.829 17.4163C13.829 17.2994 13.7825 17.1873 13.6999 17.1047C13.6172 17.022 13.5051 16.9756 13.3883 16.9756H12.4831L13.1191 16.337C13.1599 16.2972 13.1924 16.2496 13.2146 16.197C13.2367 16.1444 13.2482 16.0879 13.2482 16.0309C13.2482 15.9738 13.2367 15.9173 13.2146 15.8648C13.1924 15.8122 13.1599 15.7646 13.1191 15.7248C13.0815 15.6842 13.036 15.6519 12.9854 15.6298C12.9347 15.6077 12.8801 15.5962 12.8248 15.5962C12.7696 15.5962 12.7149 15.6077 12.6643 15.6298C12.6137 15.6519 12.5682 15.6842 12.5306 15.7248L11.8946 16.3634V15.4556C11.886 15.3443 11.8357 15.2403 11.7538 15.1644C11.6718 15.0886 11.5643 15.0464 11.4526 15.0464C11.3409 15.0464 11.2334 15.0886 11.1514 15.1644C11.0695 15.2403 11.0192 15.3443 11.0106 15.4556V16.3634L10.3746 15.7248C10.2934 15.6436 10.1833 15.598 10.0685 15.598C9.95366 15.598 9.84355 15.6436 9.76236 15.7248C9.68117 15.8059 9.63556 15.9161 9.63556 16.0309C9.63556 16.1457 9.68117 16.2558 9.76236 16.337L10.3983 16.9756H9.49319C9.37631 16.9756 9.26421 17.022 9.18157 17.1047C9.09892 17.1873 9.05249 17.2994 9.05249 17.4163C9.05249 17.5332 9.09892 17.6453 9.18157 17.7279C9.26421 17.8106 9.37631 17.857 9.49319 17.857H10.3983L9.95764 18.2977H8.39011C8.19385 17.6216 8.22848 16.8994 8.48853 16.2451C8.74859 15.5909 9.21924 15.042 9.82611 14.6851C10.433 14.3283 11.1415 14.1838 11.8396 14.2746C12.5378 14.3654 13.1857 14.6862 13.6812 15.1864V15.1864ZM18.6318 18.2977C18.9995 17.8069 19.3672 17.3415 19.7349 16.9017C21.276 15.0386 22.4767 14.1335 23.3845 14.0358C24.0469 13.9619 24.8043 14.6243 25.5643 15.2366C26.3982 15.8725 26.9867 16.5824 27.0104 17.0838C27.0351 17.5063 26.9506 17.928 26.765 18.3083L18.6318 18.2977ZM31.5916 15.2841C31.5679 15.3078 31.3277 15.3817 30.7102 15.1125C29.7068 14.647 28.6064 14.4289 27.5013 14.4765C27.6227 14.3789 27.7441 14.2549 27.8681 14.1572C28.7331 13.8724 29.6641 13.8559 30.5387 14.1097C30.7671 14.1739 30.9781 14.2885 31.1563 14.4452C31.3344 14.6018 31.4751 14.7965 31.5679 15.0149C31.6003 15.1007 31.6085 15.1938 31.5916 15.2841V15.2841ZM9.16068 24.9373C9.21639 25.0289 9.23632 25.1379 9.21665 25.2433C9.19699 25.3487 9.1391 25.4432 9.0541 25.5086C8.96909 25.574 8.86295 25.6057 8.756 25.5977C8.64906 25.5896 8.54884 25.5424 8.47456 25.4651C8.32678 25.2698 8.15525 25.0481 8.01011 24.8528C7.97568 24.8063 7.95111 24.7533 7.93792 24.6969C7.92472 24.6406 7.92317 24.5821 7.93336 24.5252C7.94356 24.4682 7.96528 24.4139 7.99719 24.3657C8.02911 24.3174 8.07055 24.2762 8.11897 24.2445C8.16739 24.2128 8.22178 24.1914 8.27878 24.1814C8.33579 24.1715 8.39423 24.1734 8.4505 24.1868C8.50677 24.2003 8.5597 24.2251 8.60604 24.2598C8.65238 24.2944 8.69115 24.3382 8.71998 24.3884C8.87769 24.5596 9.02152 24.7432 9.15013 24.9373H9.16068ZM25.7464 24.9135C25.6329 24.9157 25.5232 24.8732 25.4407 24.7952C25.3583 24.7172 25.3098 24.61 25.3057 24.4966C25.3137 24.4014 25.3475 24.3102 25.4033 24.2327C25.8365 23.7239 26.2069 23.1648 26.5064 22.5675C26.5298 22.5172 26.5631 22.4721 26.6042 22.4348C26.6453 22.3975 26.6935 22.3688 26.7458 22.3504C26.7982 22.3319 26.8537 22.3241 26.9091 22.3274C26.9645 22.3307 27.0187 22.3451 27.0685 22.3696C27.1665 22.4215 27.2413 22.5085 27.278 22.6132C27.3147 22.7179 27.3105 22.8326 27.2664 22.9343C26.9404 23.6007 26.5287 24.2217 26.0419 24.7816C26.0048 24.826 25.9578 24.8611 25.9046 24.884C25.8514 24.907 25.7936 24.9171 25.7358 24.9135H25.7464ZM16.3386 5.72847C16.5402 5.72921 16.7399 5.68969 16.926 5.61223C17.1122 5.53478 17.281 5.42095 17.4225 5.27741C17.5641 5.13388 17.6756 4.96353 17.7505 4.77634C17.8254 4.58916 17.8621 4.38891 17.8586 4.18734C17.8422 3.79205 17.6736 3.41841 17.3881 3.14453C17.1026 2.87064 16.7223 2.71771 16.3267 2.71771C15.9311 2.71771 15.5508 2.87064 15.2653 3.14453C14.9798 3.41841 14.8112 3.79205 14.7948 4.18734C14.7969 4.59589 14.9603 4.98707 15.2494 5.27571C15.5386 5.56436 15.93 5.72709 16.3386 5.72847ZM16.3386 3.52497C16.4275 3.52527 16.5154 3.54341 16.5972 3.5783C16.679 3.61319 16.753 3.66412 16.8147 3.72809C16.8765 3.79206 16.9248 3.86776 16.9568 3.95073C16.9888 4.03369 17.0038 4.12222 17.001 4.21109C17.0025 4.30053 16.9857 4.38935 16.9514 4.472C16.9172 4.55465 16.8663 4.62937 16.802 4.6915C16.7376 4.75364 16.6611 4.80186 16.5773 4.83316C16.4935 4.86446 16.4042 4.87818 16.3148 4.87346C16.1392 4.87346 15.9707 4.80367 15.8465 4.67946C15.7222 4.55524 15.6525 4.38676 15.6525 4.21109C15.6503 4.12039 15.6666 4.0302 15.7003 3.94598C15.734 3.86175 15.7844 3.78525 15.8486 3.7211C15.9127 3.65695 15.9892 3.60649 16.0735 3.57277C16.1577 3.53906 16.2479 3.5228 16.3386 3.52497V3.52497ZM11.4539 8.25393C11.7592 8.25393 12.0577 8.16339 12.3116 7.99376C12.5655 7.82413 12.7633 7.58302 12.8802 7.30094C12.997 7.01885 13.0276 6.70845 12.968 6.40898C12.9085 6.10952 12.7614 5.83444 12.5455 5.61854C12.3296 5.40264 12.0546 5.25561 11.7551 5.19605C11.4556 5.13648 11.1452 5.16705 10.8631 5.2839C10.5811 5.40074 10.3399 5.59861 10.1703 5.85248C10.0007 6.10635 9.91014 6.40483 9.91014 6.71016C9.91627 7.11768 10.0809 7.5068 10.3691 7.79499C10.6573 8.08319 11.0464 8.24781 11.4539 8.25393ZM11.4539 6.04779C11.6359 6.04779 11.8104 6.12007 11.9391 6.24875C12.0678 6.37742 12.14 6.55194 12.14 6.73391C12.14 6.91588 12.0678 7.0904 11.9391 7.21907C11.8104 7.34774 11.6359 7.42003 11.4539 7.42003C11.2719 7.42003 11.0974 7.34774 10.9688 7.21907C10.8401 7.0904 10.7678 6.91588 10.7678 6.73391C10.7756 6.55443 10.8503 6.38438 10.9774 6.25735C11.1044 6.13032 11.2744 6.05554 11.4539 6.04779V6.04779ZM22.5744 7.78684C22.8798 7.78737 23.1786 7.69727 23.4328 7.52795C23.687 7.35864 23.8853 7.11772 24.0025 6.83568C24.1198 6.55363 24.1507 6.24315 24.0915 5.94351C24.0322 5.64387 23.8854 5.36855 23.6696 5.15239C23.4538 4.93622 23.1787 4.78893 22.8792 4.72915C22.5796 4.66937 22.2691 4.69979 21.9869 4.81655C21.7046 4.93332 21.4634 5.13119 21.2936 5.38512C21.1239 5.63905 21.0332 5.93762 21.0332 6.24307C21.0394 6.65014 21.2036 7.03887 21.4912 7.327C21.7789 7.61512 22.1673 7.78003 22.5744 7.78684V7.78684ZM22.5744 5.58333C22.6646 5.58298 22.754 5.60049 22.8374 5.63485C22.9208 5.66921 22.9965 5.71973 23.0603 5.78352C23.1241 5.8473 23.1746 5.92307 23.209 6.00648C23.2433 6.08988 23.2609 6.17926 23.2605 6.26946C23.2663 6.36296 23.2529 6.45666 23.2211 6.54479C23.1893 6.63292 23.1398 6.7136 23.0757 6.78187C23.0115 6.85014 22.9341 6.90454 22.8481 6.94173C22.7621 6.97892 22.6694 6.99811 22.5757 6.99811C22.482 6.99811 22.3893 6.97892 22.3033 6.94173C22.2173 6.90454 22.1399 6.85014 22.0757 6.78187C22.0116 6.7136 21.9621 6.63292 21.9303 6.54479C21.8985 6.45666 21.8851 6.36296 21.8909 6.26946C21.898 6.09021 21.9722 5.92018 22.0988 5.79309C22.2254 5.66601 22.3952 5.59114 22.5744 5.58333Z" fill="#190D28"/>
</g>
<defs>
<filter id="filter0_d_502_2556" x="0.94445" y="0.263725" width="33.9754" height="33.9386" filterUnits="userSpaceOnUse" color-interpolation-filters="sRGB">
<feFlood flood-opacity="0" result="BackgroundImageFix"/>
<feColorMatrix in="SourceAlpha" type="matrix" values="0 0 0 0 0 0 0 0 0 0 0 0 0 0 0 0 0 0 127 0" result="hardAlpha"/>
<feOffset/>
<feGaussianBlur stdDeviation="1.22699"/>
<feComposite in2="hardAlpha" operator="out"/>
<feColorMatrix type="matrix" values="0 0 0 0 0 0 0 0 0 0 0 0 0 0 0 0 0 0 0.35 0"/>
<feBlend mode="normal" in2="BackgroundImageFix" result="effect1_dropShadow_502_2556"/>
<feBlend mode="normal" in="SourceGraphic" in2="effect1_dropShadow_502_2556" result="shape"/>
</filter>
</defs>
</svg>
