<svg width="35" height="35" viewBox="0 0 35 35" fill="none" xmlns="http://www.w3.org/2000/svg">
<g filter="url(#filter0_d_502_3988)">
<path d="M29.2368 27.5849L29.1972 27.1362C29.0567 25.5807 28.3411 24.1335 27.1904 23.0774C26.0397 22.0214 24.5365 21.4324 22.9746 21.4256H22.8664C21.4536 20.1574 19.6135 19.4702 17.7152 19.5018C15.8392 19.5014 14.0282 20.1886 12.6247 21.4335C12.5614 21.4335 12.4981 21.4335 12.4347 21.4335C10.8695 21.4428 9.36416 22.0361 8.2136 23.0974C7.06305 24.1586 6.35021 25.6112 6.21476 27.1706L6.19629 27.6983L6.67394 27.7168V28.1364H28.7565V27.6376L29.2368 27.5849Z" fill="#FF9F1C"/>
<path d="M29.1946 27.1468C29.0566 25.5898 28.3425 24.1404 27.192 23.0822C26.0416 22.024 24.5377 21.4333 22.9746 21.4256H22.8664C21.4536 20.1574 19.6135 19.4702 17.7152 19.5018C15.8392 19.5014 14.0282 20.1886 12.6247 21.4335C12.5614 21.4335 12.4981 21.4335 12.4347 21.4335C10.8695 21.4428 9.36416 22.0361 8.2136 23.0974C7.06305 24.1586 6.35021 25.6112 6.21476 27.1706L6.19629 27.6983L7.15422 27.7353L7.17269 27.2075C7.2905 25.8879 7.89712 24.66 8.87355 23.7646C9.84998 22.8692 11.1257 22.371 12.4506 22.3677C13.0241 22.379 13.592 22.4842 14.1316 22.6791C13.8442 22.9106 13.5791 23.1686 13.3399 23.4497C12.7882 23.3284 12.218 23.3169 11.6618 23.416C11.1057 23.515 10.5745 23.7227 10.0987 24.027C9.62278 24.3314 9.2115 24.7265 8.88831 25.1898C8.56513 25.6531 8.33636 26.1755 8.21507 26.7272C8.18342 26.8701 8.15963 27.0145 8.14382 27.16L8.11479 27.6403L9.07273 27.6983L9.10175 27.2497C9.20175 26.4358 9.59598 25.6866 10.2102 25.1433C10.8243 24.5999 11.616 24.3 12.436 24.3C13.2561 24.3 14.0478 24.5999 14.6619 25.1433C15.2761 25.6866 15.6703 26.4358 15.7703 27.2497H15.7994L15.8258 27.7036L16.7863 27.6456L16.7547 27.1917C16.7529 27.0655 16.7761 26.9403 16.8227 26.8231C16.8694 26.7059 16.9387 26.599 17.0267 26.5086C17.1146 26.4181 17.2196 26.3459 17.3354 26.2961C17.4513 26.2462 17.5759 26.2196 17.702 26.2179C17.8282 26.2162 17.9534 26.2393 18.0706 26.286C18.1878 26.3326 18.2947 26.4019 18.3851 26.4899C18.4756 26.5779 18.5478 26.6828 18.5976 26.7987C18.6475 26.9146 18.6741 27.0391 18.6758 27.1653L18.6177 27.6086L19.5704 27.7274L19.6311 27.2471C19.6337 27.2269 19.6337 27.2065 19.6311 27.1864C19.6314 26.9343 19.5821 26.6847 19.4858 26.4518C19.3895 26.2189 19.2482 26.0072 19.07 25.829C18.8917 25.6508 18.6801 25.5095 18.4472 25.4132C18.2143 25.3169 17.9646 25.2675 17.7126 25.2679C17.4576 25.2673 17.2051 25.3181 16.9702 25.4174C16.7353 25.5167 16.5229 25.6624 16.3456 25.8458C16.2064 25.5481 16.0347 25.2666 15.8337 25.0066C16.3541 24.5528 17.0221 24.3042 17.7126 24.3073C18.4764 24.3073 19.209 24.6106 19.7493 25.1504C20.2897 25.6903 20.5936 26.4226 20.5943 27.1864H20.6365V27.5638L21.5971 27.5901V27.2576C21.686 26.9565 21.8708 26.6926 22.1235 26.5061C22.3762 26.3197 22.6829 26.2209 22.9969 26.2247C23.3108 26.2286 23.615 26.335 23.863 26.5276C24.1109 26.7203 24.2892 26.9887 24.3706 27.2919L24.4498 27.6508L25.3866 27.4424L25.3022 27.0571C25.1983 26.6543 24.9913 26.2855 24.7016 25.9871C24.4118 25.6887 24.0492 25.4709 23.6497 25.3553C23.2501 25.2397 22.8273 25.2302 22.4229 25.3278C22.0186 25.4254 21.6466 25.6267 21.3438 25.9118C21.2335 25.5989 21.0846 25.301 20.9004 25.0251C21.5953 24.4711 22.4817 24.2155 23.3649 24.3144C24.2481 24.4134 25.0559 24.8588 25.6109 25.5529C25.9939 26.0316 26.2369 26.607 26.3129 27.2154L26.3604 27.6931L27.3262 27.6192L27.2761 27.1283C27.1729 26.3249 26.846 25.5667 26.3328 24.9401C25.8195 24.3135 25.1406 23.8437 24.3733 23.5842C24.207 23.1861 23.9991 22.8066 23.7531 22.4521C24.9277 22.6322 26.0079 23.2009 26.8212 24.0673C27.6345 24.9336 28.1338 26.0477 28.2393 27.2312L28.2789 27.6799L29.2368 27.5849L29.1946 27.1468ZM17.7152 23.3467C16.7721 23.3442 15.8617 23.6922 15.1607 24.3231C14.9047 24.1174 14.6268 23.9404 14.3321 23.7954C15.2274 22.9003 16.4414 22.3975 17.7073 22.3975C18.9732 22.3975 20.1873 22.9003 21.0825 23.7954C20.7877 23.9402 20.5098 24.1172 20.2539 24.3231C19.5561 23.6973 18.6526 23.3498 17.7152 23.3467ZM22.9746 23.3467C22.6739 23.3466 22.374 23.3784 22.08 23.4417C21.2466 22.4596 20.1064 21.7873 18.8436 21.5335C17.5808 21.2797 16.2693 21.4592 15.1212 22.0431C14.7508 21.861 14.3626 21.7177 13.9627 21.6156C15.0702 20.8645 16.3771 20.462 17.7152 20.4597C20.0903 20.4597 22.1645 21.576 23.191 23.3626C23.1198 23.3626 23.0485 23.3467 22.9746 23.3467V23.3467Z" fill="#FF9F1C"/>
<path d="M12.4353 25.2678C11.9001 25.2675 11.3801 25.446 10.958 25.775C10.5358 26.1039 10.2356 26.5644 10.1051 27.0834L9.98633 27.6112L10.9231 27.8223L11.0393 27.2945C11.1205 26.984 11.303 26.7094 11.5581 26.5144C11.8131 26.3194 12.1259 26.2152 12.4469 26.2182C12.7679 26.2213 13.0787 26.3314 13.3299 26.5312C13.5812 26.7309 13.7586 27.0089 13.8339 27.3209L13.9843 27.8302L14.9053 27.5664L14.7602 27.057C14.6261 26.5431 14.3249 26.0884 13.904 25.7645C13.4831 25.4406 12.9664 25.2659 12.4353 25.2678V25.2678Z" fill="#FF9F1C"/>
<path d="M3.79297 27.1864H31.639C31.639 28.4602 31.133 29.6818 30.2323 30.5825C29.3316 31.4832 28.1099 31.9892 26.8361 31.9892H8.59055C7.96018 31.9889 7.33604 31.8644 6.75379 31.6228C6.17153 31.3813 5.64255 31.0274 5.19706 30.5814C4.75156 30.1354 4.39827 29.6061 4.15735 29.0235C3.91644 28.441 3.79262 27.8167 3.79297 27.1864V27.1864Z" fill="#E5E5E5"/>
<path d="M23.9856 27.1864C21.3941 29.601 17.9846 31.0814 14.7783 31.9892H26.8356C28.1094 31.9892 29.331 31.4832 30.2317 30.5825C31.1325 29.6818 31.6385 28.4602 31.6385 27.1864H23.9856Z" fill="#DEDEDE"/>
<path d="M9.99709 20.9321C9.7282 20.368 9.59976 19.7472 9.62274 19.1227C9.64571 18.4983 9.81942 17.8886 10.129 17.3458C10.3804 16.9067 10.5126 16.4096 10.5126 15.9036C10.5126 15.3977 10.3804 14.9005 10.129 14.4614C9.79685 13.8766 9.62221 13.2155 9.62221 12.5429C9.62221 11.8703 9.79685 11.2093 10.129 10.6244C10.3037 10.1986 10.4362 9.75663 10.5249 9.30496L11.4617 9.51608C11.3541 10.0603 11.1877 10.5912 10.9656 11.0994C10.7142 11.5385 10.582 12.0357 10.582 12.5416C10.582 13.0476 10.7142 13.5447 10.9656 13.9838C11.2978 14.5686 11.4724 15.2297 11.4724 15.9023C11.4724 16.5749 11.2978 17.236 10.9656 17.8208C10.7322 18.2283 10.6011 18.6863 10.5836 19.1556C10.5662 19.6249 10.6628 20.0914 10.8653 20.5152L9.99709 20.9321Z" fill="#FA962A"/>
<path d="M29.509 5.1539L15.3142 5.58405L14.4381 4.70528C14.0764 4.34516 13.5867 4.14304 13.0764 4.14319H8.62712C8.37638 4.58483 8.22845 5.07733 8.19434 5.58405H11.9548V6.54462H8.26031C8.33129 6.88049 8.45321 7.20354 8.62184 7.50255H11.9548V8.46312H8.99129C9.09418 8.9379 9.09418 9.4292 8.99129 9.90398H13.0764C13.5859 9.90372 14.0746 9.70161 14.4354 9.34189L15.3115 8.46312L29.4377 9.29439C29.9847 9.32938 30.5232 9.14566 30.9347 8.78365C31.3462 8.42163 31.597 7.91097 31.632 7.36401C31.667 6.81704 31.4833 6.27858 31.1213 5.86708C30.7593 5.45557 30.2486 5.20473 29.7016 5.16973C29.6313 5.16578 29.5608 5.16578 29.4905 5.16973L29.509 5.1539Z" fill="#95AE45"/>
<path d="M6.19397 5.58408H5.2334V6.54465H6.19397V5.58408Z" fill="#E5E5E5"/>
<path d="M6.67426 7.50256H5.2334V8.46314H6.67426V7.50256Z" fill="#E5E5E5"/>
<path d="M7.15454 9.42371H5.2334V10.3843H7.15454V9.42371Z" fill="#E5E5E5"/>
<path d="M6.63995 3.66293H5.2334V4.6235H6.63995V3.66293Z" fill="#E5E5E5"/>
<path d="M7.11079 22.1592C7.06593 22.0405 7.03162 21.9296 6.99732 21.8214C6.92714 21.5957 6.83889 21.3759 6.73342 21.1643C6.40189 20.5817 6.22757 19.9228 6.22757 19.2524C6.22757 18.582 6.40189 17.9232 6.73342 17.3405C6.98692 16.9036 7.12043 16.4074 7.12043 15.9023C7.12043 15.3972 6.98692 14.901 6.73342 14.4641C6.39998 13.8797 6.22461 13.2184 6.22461 12.5456C6.22461 11.8727 6.39998 11.2115 6.73342 10.6271C6.98689 10.1897 7.12037 9.69307 7.12037 9.18753C7.12037 8.68198 6.98689 8.1854 6.73342 7.74799C6.40114 7.16136 6.22737 6.49832 6.22922 5.82413C6.23107 5.14993 6.40848 4.48785 6.74398 3.90306L6.93398 3.57056C6.96273 3.51407 7.00238 3.46383 7.05064 3.42274C7.0989 3.38165 7.15481 3.35052 7.21516 3.33114C7.27551 3.31176 7.33909 3.30451 7.40225 3.30982C7.46541 3.31514 7.52689 3.33289 7.58316 3.36208V3.36208C7.69541 3.422 7.77931 3.52401 7.81641 3.64572C7.85352 3.76744 7.84081 3.8989 7.78108 4.01126L7.59107 4.36224C7.3386 4.8043 7.20581 5.30457 7.20581 5.81365C7.20581 6.32273 7.3386 6.823 7.59107 7.26506C7.92326 7.8499 8.0979 8.51097 8.0979 9.18357C8.0979 9.85616 7.92326 10.5172 7.59107 11.1021C7.33818 11.5406 7.20505 12.038 7.20505 12.5442C7.20505 13.0505 7.33818 13.5479 7.59107 13.9864C7.92326 14.5713 8.0979 15.2323 8.0979 15.9049C8.0979 16.5775 7.92326 17.2386 7.59107 17.8234C7.33971 18.2625 7.20748 18.7597 7.20748 19.2656C7.20748 19.7716 7.33971 20.2687 7.59107 20.7078C7.72039 20.9673 7.82722 21.2375 7.91039 21.5153L8.0133 21.8214L7.11079 22.1592Z" fill="#FCAC2B"/>
<path d="M8.91244 21.5417C8.8624 21.4192 8.80422 21.3002 8.73827 21.1854C8.40608 20.6006 8.23145 19.9395 8.23145 19.2669C8.23145 18.5943 8.40608 17.9333 8.73827 17.3484C8.99117 16.9099 9.12429 16.4125 9.12429 15.9062C9.12429 15.4 8.99117 14.9026 8.73827 14.4641C8.40608 13.8792 8.23145 13.2182 8.23145 12.5456C8.23145 11.873 8.40608 11.2119 8.73827 10.6271C8.98963 10.188 9.12187 9.69082 9.12187 9.18488C9.12187 8.67894 8.98963 8.18178 8.73827 7.7427C8.41868 7.15376 8.24887 6.49524 8.24381 5.82518C8.23874 5.15513 8.39859 4.49412 8.70924 3.90041L8.81216 3.70249C8.87259 3.59075 8.97461 3.50732 9.09612 3.47027C9.21763 3.43323 9.34885 3.44555 9.46134 3.50457V3.50457C9.51715 3.53402 9.56661 3.57417 9.60689 3.62273C9.64718 3.67129 9.6775 3.72732 9.69613 3.78761C9.71475 3.84789 9.72132 3.91126 9.71544 3.97409C9.70957 4.03691 9.69137 4.09796 9.6619 4.15375L9.54578 4.36223C9.31531 4.81248 9.19799 5.31211 9.20397 5.81788C9.20995 6.32366 9.33904 6.82037 9.58009 7.26505C9.91087 7.84797 10.0848 8.50673 10.0848 9.17696C10.0848 9.84719 9.91087 10.506 9.58009 11.0889C9.32719 11.5274 9.19407 12.0248 9.19407 12.531C9.19407 13.0373 9.32719 13.5347 9.58009 13.9732C9.91353 14.5576 10.0889 15.2189 10.0889 15.8917C10.0889 16.5646 9.91353 17.2258 9.58009 17.8102C9.331 18.2501 9.20007 18.7469 9.20007 19.2524C9.20007 19.7579 9.331 20.2547 9.58009 20.6946C9.66716 20.8476 9.74386 21.0063 9.80968 21.1696L8.91244 21.5417Z" fill="#FCAC2B"/>
<path d="M29.4374 9.29439C29.961 9.32856 30.4779 9.162 30.8831 8.82858C31.2882 8.49517 31.5512 8.01993 31.6184 7.49955C31.6856 6.97916 31.5521 6.45271 31.245 6.02726C30.9379 5.60182 30.4802 5.30934 29.9651 5.20932C26.9386 6.6911 23.779 7.88391 20.5283 8.77188L29.4374 9.29439Z" fill="#C0D663"/>
<path d="M31.6388 26.7061H29.1371C28.901 25.2393 28.1521 23.9039 27.0238 22.9374C25.8954 21.971 24.4608 21.4362 22.9752 21.4282H22.867C21.4542 20.16 19.6141 19.4728 17.7158 19.5044C15.8398 19.504 14.0287 20.1913 12.6253 21.4361C12.562 21.4361 12.4986 21.4361 12.4353 21.4361C10.9497 21.4441 9.51504 21.9789 8.38671 22.9454C7.25838 23.9118 6.50952 25.2472 6.27338 26.714H3.79279C3.66677 26.714 3.54579 26.7635 3.45594 26.8519C3.36609 26.9402 3.31458 27.0604 3.3125 27.1864C3.3125 28.5861 3.86856 29.9286 4.85835 30.9184C5.84814 31.9082 7.19059 32.4642 8.59037 32.4642H26.836C28.2347 32.4608 29.5751 31.9036 30.5641 30.9145C31.5532 29.9255 32.1103 28.5851 32.1138 27.1864C32.1131 27.0601 32.063 26.9391 31.9743 26.8494C31.8855 26.7596 31.7651 26.7082 31.6388 26.7061V26.7061ZM28.1686 26.7061H27.1896C27.0245 25.9892 26.6792 25.3263 26.1865 24.78C25.6938 24.2338 25.0699 23.8222 24.3738 23.5842C24.207 23.1855 23.9992 22.8052 23.7537 22.4495C24.8389 22.6167 25.8458 23.1155 26.6362 23.8776C27.4266 24.6397 27.9619 25.6277 28.1686 26.7061V26.7061ZM14.6335 26.7061C14.4462 26.2786 14.1385 25.915 13.7478 25.6597C13.3572 25.4044 12.9006 25.2684 12.434 25.2684C11.9673 25.2684 11.5107 25.4044 11.1201 25.6597C10.7295 25.915 10.4217 26.2786 10.2344 26.7061H9.21843C9.42493 26.0133 9.84957 25.4057 10.4292 24.9736C11.0088 24.5416 11.7124 24.3082 12.4353 24.3082C13.1582 24.3082 13.8618 24.5416 14.4414 24.9736C15.021 25.4057 15.4457 26.0133 15.6522 26.7061H14.6335ZM13.5067 26.7061H11.3612C11.4869 26.5652 11.6392 26.4505 11.8092 26.3685C11.9793 26.2865 12.1639 26.2389 12.3524 26.2284C12.5409 26.2178 12.7296 26.2446 12.9078 26.3071C13.0859 26.3696 13.25 26.4666 13.3906 26.5926C13.4312 26.6284 13.47 26.6663 13.5067 26.7061V26.7061ZM17.7158 22.3862C18.9805 22.3915 20.1922 22.895 21.0884 23.7874C20.7935 23.9323 20.5156 24.1093 20.2597 24.3152C19.5584 23.6887 18.6509 23.3424 17.7105 23.3424C16.7701 23.3424 15.8626 23.6887 15.1613 24.3152C14.9053 24.1095 14.6274 23.9325 14.3327 23.7874C15.2304 22.8909 16.4471 22.387 17.7158 22.3862V22.3862ZM19.5631 26.7061C19.4784 26.3781 19.3082 26.0785 19.0698 25.8379C18.8314 25.5973 18.5334 25.4242 18.2063 25.3365C17.8791 25.2487 17.5346 25.2494 17.2078 25.3384C16.881 25.4274 16.5836 25.6016 16.3462 25.8432C16.2089 25.5458 16.038 25.2651 15.8369 25.0066C16.3573 24.5528 17.0253 24.3042 17.7158 24.3073C18.3956 24.3083 19.0532 24.5496 19.5724 24.9885C20.0915 25.4275 20.4387 26.0359 20.5527 26.7061H19.5631ZM18.5365 26.7061H16.8872C16.9705 26.5602 17.0909 26.4389 17.2362 26.3546C17.3815 26.2702 17.5465 26.2258 17.7145 26.2258C17.8825 26.2258 18.0475 26.2702 18.1928 26.3546C18.3381 26.4389 18.4585 26.5602 18.5418 26.7061H18.5365ZM25.1708 26.7061C25.0182 26.353 24.7828 26.0419 24.4845 25.799C24.1861 25.5562 23.8337 25.3889 23.4569 25.3112C23.0802 25.2336 22.6903 25.2478 22.3203 25.3528C21.9502 25.4578 21.6109 25.6505 21.3311 25.9144C21.2229 25.602 21.0748 25.3049 20.8904 25.0304C21.3196 24.6883 21.8262 24.457 22.3657 24.3567C22.9052 24.2564 23.4611 24.2903 23.9845 24.4553C24.5079 24.6202 24.9827 24.9113 25.3672 25.3029C25.7517 25.6945 26.034 26.1745 26.1894 26.7008H25.1761L25.1708 26.7061ZM24.044 26.7061H21.9038C22.0295 26.5652 22.1817 26.4505 22.3518 26.3685C22.5218 26.2865 22.7064 26.2389 22.8949 26.2284C23.0834 26.2178 23.2721 26.2446 23.4503 26.3071C23.6284 26.3696 23.7925 26.4666 23.9331 26.5926C23.9738 26.6284 24.0125 26.6663 24.0492 26.7061H24.044ZM17.7158 20.4597C20.0908 20.4597 22.165 21.576 23.1916 23.3626C23.1203 23.3626 23.0464 23.3626 22.9752 23.3626C22.6745 23.3624 22.3746 23.3942 22.0806 23.4576C21.2493 22.4728 20.1099 21.7974 18.847 21.5407C17.5841 21.284 16.2715 21.461 15.1217 22.0431C14.7514 21.861 14.3631 21.7177 13.9632 21.6156C15.0707 20.8645 16.3776 20.4619 17.7158 20.4597V20.4597ZM12.4379 22.3809C13.0152 22.3865 13.5876 22.4872 14.1321 22.6791C13.8447 22.9106 13.5797 23.1686 13.3404 23.4496C12.23 23.2056 11.0681 23.4112 10.1087 24.0214C9.14937 24.6317 8.47065 25.5969 8.22092 26.7061H7.24187C7.47252 25.4956 8.11662 24.4029 9.06397 23.6149C10.0113 22.8269 11.2031 22.3925 12.4353 22.3862L12.4379 22.3809ZM26.8386 31.5037H8.59037C7.5291 31.5015 6.50564 31.1094 5.71453 30.4019C4.92342 29.6945 4.41982 28.7211 4.29946 27.6667H31.1321C31.0123 28.7227 30.5083 29.6978 29.7161 30.4063C28.9239 31.1149 27.8988 31.5073 26.836 31.5089L26.8386 31.5037Z" fill="black"/>
<path d="M6.58717 9.42374H5.2334V10.3843H6.33911C6.30468 10.4664 6.26592 10.5465 6.223 10.6245C5.88955 11.2089 5.71419 11.8701 5.71419 12.543C5.71419 13.2158 5.88955 13.877 6.223 14.4615C6.47088 14.902 6.60044 15.3992 6.59906 15.9047C6.59767 16.4102 6.46538 16.9067 6.21508 17.3458C5.885 17.9275 5.71148 18.5849 5.71148 19.2538C5.71148 19.9226 5.885 20.58 6.21508 21.1617C6.32055 21.3733 6.4088 21.5931 6.47898 21.8188C6.51328 21.927 6.54759 22.0378 6.59245 22.1566L7.49496 21.832C7.45538 21.7238 7.42371 21.6209 7.39205 21.5233C7.30728 21.2418 7.19869 20.9682 7.06746 20.7052C6.8161 20.2661 6.68386 19.7689 6.68386 19.263C6.68386 18.7571 6.8161 18.2599 7.06746 17.8208C7.39964 17.236 7.57428 16.5749 7.57428 15.9023C7.57428 15.2297 7.39964 14.5687 7.06746 13.9838C6.8161 13.5447 6.68386 13.0476 6.68386 12.5416C6.68386 12.0357 6.8161 11.5385 7.06746 11.0995C7.39964 10.5146 7.57428 9.85355 7.57428 9.18096C7.57428 8.50836 7.39964 7.84729 7.06746 7.26245C6.81833 6.82358 6.68736 6.32757 6.68736 5.82292C6.68736 5.31826 6.81833 4.82225 7.06746 4.38338C7.13067 4.27269 7.14756 4.14149 7.11444 4.0184C7.08132 3.89531 7.00088 3.7903 6.89065 3.72628C6.81768 3.68413 6.73477 3.66226 6.65051 3.66295H5.2334V4.62616H5.90369C5.80532 4.93782 5.74594 5.26047 5.72688 5.58673H5.2334V6.5473H5.78494C5.84763 6.87922 5.95412 7.20135 6.10161 7.50524H5.2334V8.46581H6.51328C6.59023 8.77891 6.61519 9.10254 6.58717 9.42374V9.42374Z" fill="black"/>
<path d="M29.4963 4.6868L15.51 5.09848L14.7763 4.36222C14.5537 4.1386 14.2888 3.96159 13.997 3.84152C13.7052 3.72145 13.3924 3.66073 13.0769 3.6629H8.59068C8.4747 3.66251 8.36254 3.70434 8.27513 3.78058C8.18773 3.85682 8.13105 3.96225 8.11567 4.07721C7.82717 4.6483 7.68462 5.28195 7.70073 5.92157C7.71685 6.56119 7.89114 7.18686 8.20803 7.74269C8.45712 8.18253 8.58805 8.67939 8.58805 9.18487C8.58805 9.69034 8.45712 10.1872 8.20803 10.627C7.87459 11.2115 7.69922 11.8727 7.69922 12.5455C7.69922 13.2184 7.87459 13.8796 8.20803 14.4641C8.45712 14.9039 8.58805 15.4008 8.58805 15.9062C8.58805 16.4117 8.45712 16.9086 8.20803 17.3484C7.87459 17.9328 7.69922 18.5941 7.69922 19.2669C7.69922 19.9398 7.87459 20.601 8.20803 21.1854C8.27207 21.3016 8.32934 21.4215 8.37956 21.5443L9.26888 21.1854C9.20524 21.0212 9.12847 20.8623 9.0393 20.7104C8.7902 20.2706 8.65928 19.7737 8.65928 19.2682C8.65928 18.7628 8.7902 18.2659 9.0393 17.8261C9.37274 17.2416 9.54811 16.5804 9.54811 15.9076C9.54811 15.2347 9.37274 14.5735 9.0393 13.989C8.7902 13.5492 8.65928 13.0523 8.65928 12.5469C8.65928 12.0414 8.7902 11.5445 9.0393 11.1047C9.17031 10.8762 9.27732 10.6348 9.35861 10.3843H10.2426C10.2057 10.4661 10.1714 10.5479 10.1292 10.6244C9.79573 11.2088 9.62036 11.8701 9.62036 12.5429C9.62036 13.2158 9.79573 13.877 10.1292 14.4614C10.3783 14.9013 10.5092 15.3981 10.5092 15.9036C10.5092 16.4091 10.3783 16.9059 10.1292 17.3458C9.81852 17.8877 9.64398 18.4968 9.62054 19.121C9.5971 19.7452 9.72545 20.3658 9.99459 20.9294L10.8628 20.5151C10.6607 20.0912 10.5645 19.6246 10.5824 19.1553C10.6004 18.686 10.7319 18.2281 10.9657 17.8208C11.2992 17.2364 11.4745 16.5751 11.4745 15.9023C11.4745 15.2294 11.2992 14.5682 10.9657 13.9838C10.7166 13.5444 10.5857 13.048 10.5857 12.5429C10.5857 12.0378 10.7166 11.5414 10.9657 11.1021C11.0929 10.873 11.1963 10.6317 11.2745 10.3816H13.0769C13.3923 10.3828 13.7048 10.321 13.9962 10.2001C14.2875 10.0791 14.5518 9.90128 14.7737 9.67703L15.4994 8.95132L29.4198 9.77467C29.7548 9.7952 30.0906 9.74929 30.4078 9.63959C30.725 9.5299 31.0174 9.35857 31.2682 9.13548C31.5189 8.91238 31.7231 8.64191 31.869 8.33962C32.0149 8.03733 32.0996 7.70918 32.1182 7.37405C32.1368 7.03892 32.0889 6.70342 31.9774 6.38683C31.8659 6.07025 31.6929 5.77884 31.4684 5.52935C31.2439 5.27986 30.9722 5.07721 30.6691 4.93307C30.366 4.78893 30.0374 4.70613 29.7021 4.68944C29.6327 4.68548 29.5631 4.68548 29.4937 4.68944L29.4963 4.6868ZM30.6601 8.38131C30.5029 8.52999 30.3168 8.64486 30.1135 8.71884C29.9102 8.79283 29.6938 8.82435 29.4778 8.81146L15.3437 7.98283C15.2762 7.97916 15.2086 7.98972 15.1454 8.01381C15.0823 8.0379 15.0248 8.075 14.9769 8.1227L14.0981 9.00146C13.827 9.27186 13.4598 9.4237 13.0769 9.42369H9.54333C9.56102 9.102 9.53886 8.77937 9.47736 8.46312H11.9553V7.50255H9.15805C9.11846 7.42338 9.08944 7.34157 9.04457 7.2624C8.9157 7.03679 8.81889 6.79431 8.75693 6.54198H11.9553V5.58404H8.67512C8.70235 5.25318 8.78533 4.92931 8.92054 4.62611H13.0769C13.4588 4.6268 13.825 4.77859 14.0955 5.04834L14.9769 5.92183C15.0221 5.96891 15.0767 6.00593 15.1372 6.03048C15.1977 6.05504 15.2626 6.06657 15.3279 6.06433L29.5253 5.64474C29.848 5.63321 30.1665 5.72061 30.4381 5.89521C30.7097 6.06981 30.9214 6.32327 31.0449 6.62161C31.1683 6.91994 31.1976 7.24889 31.1289 7.56436C31.0601 7.87982 30.8965 8.16672 30.6601 8.38659V8.38131Z" fill="black"/>
</g>
<defs>
<filter id="filter0_d_502_3988" x="0.858512" y="0.854148" width="33.7175" height="34.0641" filterUnits="userSpaceOnUse" color-interpolation-filters="sRGB">
<feFlood flood-opacity="0" result="BackgroundImageFix"/>
<feColorMatrix in="SourceAlpha" type="matrix" values="0 0 0 0 0 0 0 0 0 0 0 0 0 0 0 0 0 0 127 0" result="hardAlpha"/>
<feOffset/>
<feGaussianBlur stdDeviation="1.22699"/>
<feComposite in2="hardAlpha" operator="out"/>
<feColorMatrix type="matrix" values="0 0 0 0 0 0 0 0 0 0 0 0 0 0 0 0 0 0 0.35 0"/>
<feBlend mode="normal" in2="BackgroundImageFix" result="effect1_dropShadow_502_3988"/>
<feBlend mode="normal" in="SourceGraphic" in2="effect1_dropShadow_502_3988" result="shape"/>
</filter>
</defs>
</svg>
