<svg width="39" height="39" viewBox="0 0 39 39" fill="none" xmlns="http://www.w3.org/2000/svg">
<g filter="url(#filter0_d_502_3459)">
<g filter="url(#filter1_d_502_3459)">
<path d="M19.3923 15.1529C18.6333 15.1529 17.8913 15.3779 17.2602 15.7996C16.6291 16.2213 16.1373 16.8206 15.8468 17.5219C15.5564 18.2231 15.4804 18.9947 15.6284 19.7391C15.7765 20.4835 16.142 21.1673 16.6787 21.704C17.2154 22.2407 17.8992 22.6062 18.6436 22.7543C19.388 22.9024 20.1596 22.8264 20.8608 22.5359C21.5621 22.2454 22.1614 21.7536 22.5831 21.1225C23.0048 20.4914 23.2299 19.7494 23.2299 18.9904C23.2292 17.9729 22.8246 16.9972 22.1051 16.2776C21.3855 15.5581 20.4098 15.1536 19.3923 15.1529V15.1529ZM19.3923 21.7203C18.8516 21.7208 18.323 21.5609 17.8732 21.2609C17.4234 20.9608 17.0728 20.5341 16.8657 20.0347C16.6585 19.5353 16.6042 18.9857 16.7095 18.4554C16.8149 17.9251 17.0752 17.438 17.4575 17.0557C17.8398 16.6734 18.3269 16.4131 18.8572 16.3077C19.3875 16.2024 19.9371 16.2567 20.4365 16.4638C20.9359 16.671 21.3626 17.0216 21.6627 17.4714C21.9627 17.9211 22.1226 18.4498 22.1221 18.9904C22.1207 19.714 21.8326 20.4075 21.321 20.9192C20.8094 21.4308 20.1158 21.7189 19.3923 21.7203V21.7203Z" fill="black"/>
<path d="M20.4084 17.4686C20.3355 17.4679 20.2631 17.4817 20.1956 17.5093C20.1281 17.5369 20.0667 17.5777 20.0152 17.6293C19.9636 17.6808 19.9228 17.7422 19.8952 17.8097C19.8677 17.8772 19.8538 17.9496 19.8545 18.0225C19.8548 18.1687 19.9126 18.3089 20.0154 18.4128C20.1203 18.5158 20.2614 18.5736 20.4084 18.5737C20.4842 18.579 20.5602 18.5686 20.6318 18.5432C20.7034 18.5178 20.769 18.4779 20.8245 18.4261C20.88 18.3743 20.9243 18.3116 20.9546 18.2419C20.9848 18.1723 21.0005 18.0971 21.0005 18.0212C21.0005 17.9452 20.9848 17.8701 20.9546 17.8004C20.9243 17.7307 20.88 17.6681 20.8245 17.6162C20.769 17.5644 20.7034 17.5246 20.6318 17.4992C20.5602 17.4738 20.4842 17.4634 20.4084 17.4686V17.4686Z" fill="black"/>
<path d="M18.134 18.0067C17.9871 18.0067 17.8462 18.065 17.7423 18.1689C17.6384 18.2728 17.5801 18.4136 17.5801 18.5605C17.58 18.6332 17.5944 18.7052 17.6225 18.7722C17.6506 18.8392 17.6917 18.9 17.7436 18.9509C17.8211 19.0278 17.9195 19.0802 18.0266 19.1013C18.1337 19.1225 18.2447 19.1115 18.3456 19.0698C18.4465 19.0281 18.5328 18.9575 18.5937 18.8669C18.6546 18.7763 18.6873 18.6697 18.6878 18.5605C18.6861 18.4133 18.6275 18.2725 18.5243 18.1675C18.4204 18.0647 18.2802 18.0069 18.134 18.0067Z" fill="black"/>
<path d="M19.7378 19.7052C19.6082 19.7041 19.4823 19.748 19.3815 19.8295C19.2807 19.9109 19.2114 20.0249 19.1853 20.1518C19.1592 20.2787 19.178 20.4108 19.2385 20.5254C19.299 20.64 19.3974 20.73 19.5169 20.7801C19.6365 20.8301 19.7697 20.8371 19.8938 20.7999C20.0179 20.7626 20.1252 20.6834 20.1974 20.5758C20.2695 20.4682 20.3021 20.3388 20.2895 20.2098C20.2768 20.0809 20.2198 19.9603 20.1281 19.8687C20.0245 19.7652 19.8843 19.7064 19.7378 19.7052V19.7052Z" fill="black"/>
<path d="M27.798 20.2116C27.6698 20.2116 27.5455 20.2561 27.4464 20.3375C27.3474 20.4189 27.2796 20.5321 27.2547 20.6579C27.2298 20.7837 27.2493 20.9142 27.3099 21.0272C27.3705 21.1402 27.4684 21.2287 27.587 21.2776C27.7055 21.3264 27.8373 21.3326 27.96 21.2952C28.0826 21.2577 28.1884 21.1788 28.2593 21.072C28.3303 20.9652 28.362 20.8371 28.3491 20.7095C28.3361 20.582 28.2793 20.4629 28.1883 20.3725C28.0844 20.2697 27.9442 20.2119 27.798 20.2116V20.2116Z" fill="black"/>
<path d="M28.8477 22.4509C28.8488 22.5776 28.8937 22.7 28.9748 22.7973C29.056 22.8946 29.1683 22.9609 29.2927 22.9848C29.4171 23.0087 29.546 22.9888 29.6574 22.9285C29.7688 22.8682 29.8559 22.7711 29.9039 22.6539C29.9519 22.5366 29.9579 22.4064 29.9207 22.2852C29.8836 22.1641 29.8057 22.0596 29.7002 21.9894C29.5947 21.9191 29.4682 21.8876 29.3421 21.9001C29.2161 21.9126 29.0982 21.9683 29.0085 22.0579C28.9051 22.1625 28.8472 22.3038 28.8477 22.4509Z" fill="black"/>
<path d="M25.933 15.9916L26.9669 14.9366C27.1444 14.7577 27.244 14.516 27.244 14.264C27.244 14.0121 27.1444 13.7703 26.9669 13.5915L25.933 12.5628C25.845 12.4744 25.7404 12.4042 25.6252 12.3563C25.51 12.3084 25.3865 12.2838 25.2618 12.2838C25.137 12.2838 25.0135 12.3084 24.8983 12.3563C24.7831 12.4042 24.6785 12.4744 24.5905 12.5628L23.5566 13.5941C23.4681 13.6823 23.3979 13.7871 23.3499 13.9025C23.302 14.018 23.2773 14.1417 23.2773 14.2667C23.2773 14.3916 23.302 14.5154 23.3499 14.6308C23.3979 14.7462 23.4681 14.851 23.5566 14.9392L24.5905 15.9916C24.6785 16.08 24.7831 16.1502 24.8983 16.1981C25.0135 16.246 25.137 16.2706 25.2618 16.2706C25.3865 16.2706 25.51 16.246 25.6252 16.1981C25.7404 16.1502 25.845 16.08 25.933 15.9916ZM24.4507 14.2878L25.2604 13.4754L26.0728 14.2878L25.2604 15.1001L24.4507 14.2878Z" fill="black"/>
<path d="M29.7233 26.9557H28.2964C28.0471 26.9564 27.8083 27.0559 27.6323 27.2324C27.4563 27.4089 27.3574 27.648 27.3574 27.8973V29.3216C27.3574 29.5708 27.4563 29.8099 27.6323 29.9864C27.8083 30.163 28.0471 30.2625 28.2964 30.2632H29.7233C29.973 30.2632 30.2125 30.164 30.3891 29.9874C30.5657 29.8108 30.6649 29.5713 30.6649 29.3216V27.8973C30.6649 27.6476 30.5657 27.4081 30.3891 27.2315C30.2125 27.0549 29.973 26.9557 29.7233 26.9557V26.9557ZM29.5571 29.1554H28.4652V28.0635H29.5571V29.1554Z" fill="black"/>
<path d="M23.8312 22.8755C23.6848 22.8769 23.5447 22.9357 23.4411 23.0393C23.3375 23.1428 23.2787 23.2829 23.2773 23.4294C23.2785 23.5767 23.3372 23.7177 23.4409 23.8224C23.5448 23.9252 23.685 23.983 23.8312 23.9833C23.9042 23.984 23.9765 23.9701 24.044 23.9425C24.1115 23.915 24.1729 23.8742 24.2244 23.8226C24.276 23.771 24.3168 23.7097 24.3444 23.6422C24.372 23.5747 24.3858 23.5023 24.3851 23.4294C24.3848 23.2832 24.327 23.143 24.2242 23.039C24.1196 22.9353 23.9785 22.8767 23.8312 22.8755Z" fill="black"/>
<path d="M16.4777 23.9042C16.4048 23.9034 16.3325 23.9173 16.2649 23.9449C16.1974 23.9725 16.1361 24.0132 16.0845 24.0648C16.0329 24.1164 15.9922 24.1777 15.9646 24.2452C15.937 24.3128 15.9231 24.3851 15.9239 24.458C15.9241 24.6042 15.9819 24.7444 16.0847 24.8484C16.1896 24.9514 16.3307 25.0091 16.4777 25.0093C16.5535 25.0145 16.6295 25.0041 16.7011 24.9787C16.7727 24.9533 16.8383 24.9135 16.8938 24.8616C16.9494 24.8098 16.9936 24.7471 17.0239 24.6775C17.0542 24.6078 17.0698 24.5327 17.0698 24.4567C17.0698 24.3808 17.0542 24.3056 17.0239 24.236C16.9936 24.1663 16.9494 24.1036 16.8938 24.0518C16.8383 24 16.7727 23.9601 16.7011 23.9347C16.6295 23.9093 16.5535 23.8989 16.4777 23.9042Z" fill="black"/>
<path d="M9.87871 18.0515C9.74335 17.9945 9.5909 17.9936 9.45488 18.049C9.31887 18.1044 9.21042 18.2116 9.15339 18.3469C8.21241 20.5678 7.72976 22.9559 7.73441 25.368C7.73441 25.5149 7.79276 25.6557 7.89664 25.7596C8.00051 25.8635 8.14139 25.9218 8.28829 25.9218C8.43518 25.9218 8.57606 25.8635 8.67994 25.7596C8.78381 25.6557 8.84216 25.5149 8.84216 25.368C8.83335 23.1037 9.2819 20.8609 10.1609 18.7742C10.2181 18.6392 10.2193 18.487 10.1644 18.351C10.1096 18.2151 10.003 18.1064 9.86816 18.0489L9.87871 18.0515Z" fill="black"/>
<path d="M19.4776 9.03913C19.4201 8.90427 19.3114 8.79772 19.1755 8.74284C19.0395 8.68796 18.8873 8.68923 18.7523 8.74637C16.6087 9.65192 14.6614 10.9651 13.0184 12.613C12.9134 12.7179 12.8545 12.8602 12.8545 13.0086C12.8545 13.157 12.9134 13.2993 13.0184 13.4042C13.1233 13.5091 13.2656 13.5681 13.414 13.5681C13.5624 13.5681 13.7047 13.5091 13.8096 13.4042C15.3499 11.8556 17.1751 10.6197 19.1849 9.76445C19.3197 9.70692 19.4263 9.59826 19.4812 9.4623C19.536 9.32634 19.5348 9.17416 19.4776 9.03913Z" fill="black"/>
<path d="M22.6759 26.9953C22.5849 26.9953 22.4953 27.0177 22.415 27.0606C22.3348 27.1035 22.2663 27.1655 22.2157 27.2411C22.165 27.3167 22.1338 27.4037 22.1248 27.4942C22.1158 27.5848 22.1292 27.6762 22.1639 27.7603C22.1986 27.8444 22.2534 27.9187 22.3237 27.9766C22.3939 28.0345 22.4773 28.0742 22.5665 28.0921C22.6557 28.1101 22.748 28.1059 22.8351 28.0797C22.9223 28.0535 23.0017 28.0063 23.0663 27.9422C23.1192 27.8908 23.1613 27.8293 23.1901 27.7613C23.2188 27.6934 23.2336 27.6203 23.2336 27.5466C23.2336 27.4728 23.2188 27.3997 23.1901 27.3318C23.1613 27.2638 23.1192 27.2023 23.0663 27.1509C22.9613 27.0503 22.8213 26.9945 22.6759 26.9953V26.9953Z" fill="black"/>
<path d="M20.4031 27.536C20.2569 27.5362 20.1167 27.594 20.0128 27.6969C19.9098 27.8018 19.8521 27.9429 19.8519 28.0899C19.8467 28.1656 19.8571 28.2417 19.8825 28.3132C19.9079 28.3848 19.9477 28.4504 19.9995 28.506C20.0514 28.5615 20.114 28.6058 20.1837 28.636C20.2534 28.6663 20.3285 28.6819 20.4045 28.6819C20.4804 28.6819 20.5556 28.6663 20.6252 28.636C20.6949 28.6058 20.7576 28.5615 20.8094 28.506C20.8612 28.4504 20.9011 28.3848 20.9265 28.3132C20.9519 28.2417 20.9623 28.1656 20.957 28.0899C20.9577 28.0169 20.9439 27.9446 20.9163 27.8771C20.8887 27.8095 20.8479 27.7482 20.7964 27.6966C20.7448 27.6451 20.6834 27.6043 20.6159 27.5767C20.5484 27.5491 20.4761 27.5353 20.4031 27.536V27.536Z" fill="black"/>
<path d="M33.6189 31.7639L31.7726 23.5296L30.5066 17.9117L28.5575 9.29755C28.7771 8.82864 28.8749 8.31189 28.8418 7.79514C28.8087 7.2784 28.6457 6.77836 28.368 6.34131C28.0903 5.90427 27.7069 5.54434 27.2532 5.29485C26.7994 5.04536 26.2901 4.91437 25.7723 4.91401C23.0857 4.91227 20.4252 5.44014 17.9428 6.46744C15.4605 7.49473 13.205 9.00128 11.3053 10.901C9.40564 12.8006 7.89908 15.0561 6.87179 17.5385C5.8445 20.0209 5.31663 22.6814 5.31836 25.3679C5.31906 26.184 5.64357 26.9665 6.22065 27.5436C6.79773 28.1207 7.58022 28.4452 8.39634 28.4459C8.8527 28.4466 9.30338 28.3447 9.7151 28.1479L13.6213 29.0314V31.4474C13.612 31.6899 13.6517 31.9318 13.7381 32.1587C13.8246 32.3855 13.9559 32.5925 14.1242 32.7674C14.2925 32.9423 14.4944 33.0814 14.7177 33.1764C14.941 33.2714 15.1813 33.3204 15.424 33.3204C15.6667 33.3204 15.9069 33.2714 16.1303 33.1764C16.3536 33.0814 16.5555 32.9423 16.7238 32.7674C16.8921 32.5925 17.0234 32.3855 17.1098 32.1587C17.1962 31.9318 17.236 31.6899 17.2267 31.4474V30.7458C17.2267 30.6661 17.2584 30.5896 17.3148 30.5332C17.3712 30.4768 17.4477 30.4451 17.5274 30.4451C17.8585 30.4458 18.1791 30.329 18.4321 30.1154L32.1682 33.2172C32.3684 33.262 32.5767 33.2556 32.7738 33.1985C32.9708 33.1414 33.1502 33.0354 33.2954 32.8905C33.4406 32.7456 33.5469 32.5663 33.6044 32.3694C33.6618 32.1724 33.6686 31.9642 33.6241 31.7639H33.6189ZM30.6068 23.4293C30.2546 23.6723 29.8501 23.8291 29.4261 23.8869C29.0021 23.9448 28.5705 23.9022 28.166 23.7625C27.7615 23.6229 27.3955 23.3901 27.0975 23.0829C26.7996 22.7757 26.578 22.4028 26.4507 21.9943C26.3234 21.5857 26.2939 21.153 26.3646 20.7309C26.4354 20.3089 26.6043 19.9094 26.8579 19.5647C27.1115 19.22 27.4425 18.9397 27.8243 18.7465C28.2061 18.5533 28.628 18.4525 29.056 18.4524C29.2026 18.4519 29.349 18.4633 29.4938 18.4866L30.6068 23.4293ZM10.8255 27.2643C11.2096 26.7753 11.4359 26.1811 11.4743 25.5605H12.2155C12.5892 25.5612 12.9475 25.7101 13.2115 25.9747C13.4756 26.2392 13.6239 26.5977 13.6239 26.9715V27.8947L10.8255 27.2643ZM18.9306 28.5197C18.9296 28.0842 19.0328 27.6547 19.2315 27.2671C19.4302 26.8795 19.7187 26.545 20.0729 26.2915C20.4271 26.0381 20.8368 25.8729 21.2678 25.8099C21.6987 25.7469 22.1386 25.7879 22.5505 25.9293C22.9625 26.0708 23.3346 26.3087 23.636 26.6232C23.9373 26.9377 24.1591 27.3197 24.2829 27.7373C24.4066 28.1549 24.4287 28.5961 24.3474 29.024C24.2661 29.4519 24.0836 29.8541 23.8152 30.1972L18.9939 29.1105C18.9518 28.9164 18.9306 28.7184 18.9306 28.5197V28.5197ZM32.5085 32.1068C32.4964 32.1209 32.4805 32.1311 32.4627 32.1363C32.4449 32.1414 32.426 32.1412 32.4082 32.1358L24.9731 30.4583C25.285 29.9281 25.465 29.3308 25.4979 28.7165C25.5309 28.1023 25.4158 27.4891 25.1623 26.9286C24.9088 26.3682 24.5245 25.8768 24.0415 25.4958C23.5585 25.1149 22.9911 24.8555 22.387 24.7396C21.7829 24.6237 21.1598 24.6545 20.5701 24.8296C19.9804 25.0047 19.4414 25.3189 18.9985 25.7458C18.5556 26.1726 18.2216 26.6996 18.0249 27.2824C17.8281 27.8652 17.7741 28.4867 17.8676 29.0947C17.8303 29.1281 17.7975 29.1662 17.7701 29.2081C17.7425 29.2483 17.7054 29.2811 17.6622 29.3036C17.619 29.3262 17.5709 29.3377 17.5221 29.3374C17.1488 29.3381 16.791 29.4867 16.527 29.7507C16.263 30.0146 16.1144 30.3725 16.1137 30.7458V31.4474C16.1195 31.5422 16.1059 31.6373 16.0736 31.7267C16.0413 31.8161 15.9911 31.8979 15.926 31.9672C15.8609 32.0364 15.7823 32.0916 15.695 32.1293C15.6078 32.1671 15.5138 32.1865 15.4187 32.1865C15.3237 32.1865 15.2296 32.1671 15.1424 32.1293C15.0551 32.0916 14.9765 32.0364 14.9114 31.9672C14.8463 31.8979 14.7961 31.8161 14.7638 31.7267C14.7315 31.6373 14.7179 31.5422 14.7237 31.4474V26.9636C14.7237 26.296 14.4587 25.6558 13.9869 25.1835C13.5151 24.7112 12.8751 24.4455 12.2075 24.4448H11.5033C11.6676 21.7958 12.5723 19.2462 14.1145 17.0861C14.1914 16.9663 14.2193 16.8214 14.1922 16.6816C14.1652 16.5418 14.0853 16.4178 13.9692 16.3353C13.8531 16.2528 13.7098 16.2182 13.5688 16.2387C13.4279 16.2592 13.3003 16.3331 13.2124 16.4452C11.3559 19.0466 10.3607 22.1641 10.3666 25.36C10.3666 25.8825 10.159 26.3837 9.7895 26.7532C9.42001 27.1226 8.91888 27.3302 8.39634 27.3302C7.8738 27.3302 7.37267 27.1226 7.00318 26.7532C6.63369 26.3837 6.42612 25.8825 6.42612 25.36C6.42438 22.8193 6.92366 20.3032 7.89538 17.9557C8.86709 15.6082 10.2922 13.4753 12.0891 11.6791C13.886 9.88296 16.0194 8.45875 18.3674 7.48799C20.7153 6.51723 23.2316 6.01899 25.7723 6.02176C26.2948 6.02176 26.7959 6.22934 27.1654 6.59883C27.5349 6.96831 27.7425 7.46945 27.7425 7.99198C27.7425 8.51452 27.5349 9.01565 27.1654 9.38514C26.7959 9.75463 26.2948 9.9622 25.7723 9.9622C22.5725 9.9606 19.4528 10.9624 16.8522 12.8265C16.7884 12.8668 16.7336 12.9197 16.691 12.982C16.6484 13.0442 16.619 13.1145 16.6045 13.1885C16.59 13.2625 16.5908 13.3387 16.6068 13.4124C16.6229 13.4861 16.6538 13.5557 16.6976 13.6171C16.7415 13.6784 16.7975 13.7301 16.8621 13.7691C16.9266 13.808 16.9985 13.8334 17.0732 13.8436C17.148 13.8538 17.224 13.8486 17.2966 13.8284C17.3693 13.8081 17.437 13.7733 17.4958 13.7259C19.9109 12.0029 22.8055 11.0804 25.7723 11.0884C26.4627 11.0886 27.1329 10.8553 27.6739 10.4264L29.238 17.3683H29.056C28.4729 17.3686 27.8975 17.5017 27.3736 17.7576C26.8497 18.0134 26.3909 18.3853 26.0322 18.845C25.6735 19.3047 25.4242 19.8401 25.3034 20.4105C25.1825 20.9809 25.1932 21.5713 25.3347 22.137C25.4762 22.7026 25.7447 23.2286 26.1198 23.675C26.495 24.1214 26.9669 24.4764 27.4998 24.7131C28.0326 24.9498 28.6124 25.0619 29.1951 25.041C29.7778 25.0201 30.3481 24.8667 30.8627 24.5925L32.5375 32.0303C32.5418 32.0481 32.5413 32.0666 32.5362 32.0842C32.5312 32.1018 32.5216 32.1177 32.5085 32.1305V32.1068Z" fill="black"/>
<path d="M15.8267 14.8707C15.8256 14.744 15.7806 14.6216 15.6995 14.5242C15.6184 14.4269 15.5061 14.3607 15.3816 14.3368C15.2572 14.3129 15.1283 14.3327 15.0169 14.3931C14.9055 14.4534 14.8184 14.5504 14.7704 14.6677C14.7224 14.7849 14.7165 14.9152 14.7536 15.0363C14.7907 15.1574 14.8686 15.262 14.9741 15.3322C15.0796 15.4024 15.2061 15.4339 15.3322 15.4214C15.4583 15.4089 15.5761 15.3532 15.6658 15.2637C15.7693 15.1591 15.8271 15.0178 15.8267 14.8707V14.8707Z" fill="black"/>
</g>
</g>
<defs>
<filter id="filter0_d_502_3459" x="0.409407" y="0.00602579" width="38.1519" height="38.2224" filterUnits="userSpaceOnUse" color-interpolation-filters="sRGB">
<feFlood flood-opacity="0" result="BackgroundImageFix"/>
<feColorMatrix in="SourceAlpha" type="matrix" values="0 0 0 0 0 0 0 0 0 0 0 0 0 0 0 0 0 0 127 0" result="hardAlpha"/>
<feOffset/>
<feGaussianBlur stdDeviation="2.45399"/>
<feComposite in2="hardAlpha" operator="out"/>
<feColorMatrix type="matrix" values="0 0 0 0 0 0 0 0 0 0 0 0 0 0 0 0 0 0 0.35 0"/>
<feBlend mode="normal" in2="BackgroundImageFix" result="effect1_dropShadow_502_3459"/>
<feBlend mode="normal" in="SourceGraphic" in2="effect1_dropShadow_502_3459" result="shape"/>
</filter>
<filter id="filter1_d_502_3459" x="4.09137" y="3.68701" width="30.7889" height="30.8604" filterUnits="userSpaceOnUse" color-interpolation-filters="sRGB">
<feFlood flood-opacity="0" result="BackgroundImageFix"/>
<feColorMatrix in="SourceAlpha" type="matrix" values="0 0 0 0 0 0 0 0 0 0 0 0 0 0 0 0 0 0 127 0" result="hardAlpha"/>
<feOffset/>
<feGaussianBlur stdDeviation="0.613497"/>
<feComposite in2="hardAlpha" operator="out"/>
<feColorMatrix type="matrix" values="0 0 0 0 0 0 0 0 0 0 0 0 0 0 0 0 0 0 0.25 0"/>
<feBlend mode="normal" in2="BackgroundImageFix" result="effect1_dropShadow_502_3459"/>
<feBlend mode="normal" in="SourceGraphic" in2="effect1_dropShadow_502_3459" result="shape"/>
</filter>
</defs>
</svg>
