<svg width="32" height="32" viewBox="0 0 32 32" fill="none" xmlns="http://www.w3.org/2000/svg">
<g filter="url(#filter0_d_502_792)">
<path d="M29.894 13.9211C29.7861 13.5302 29.5784 13.1742 29.2912 12.8879C29.004 12.6017 28.6473 12.3951 28.2562 12.2885C27.6632 12.1202 27.0465 12.0507 26.431 12.0827C27.1721 11.1992 27.61 10.3261 27.3409 9.63512C27.0719 8.94409 26.5787 8.50099 26.0222 8.49308H26.0064C25.4261 8.49308 24.8986 8.92563 24.5926 9.65094C24.5768 9.68787 24.5636 9.72743 24.5478 9.76699C24.4555 9.46818 24.3418 9.17642 24.2076 8.89398C24.0343 8.52863 23.7688 8.2148 23.4371 7.98352C23.1055 7.75224 22.7192 7.6115 22.3165 7.57522C22.1344 7.55585 21.9505 7.58812 21.7858 7.66835C21.6212 7.74857 21.4824 7.87351 21.3854 8.02887C21.1481 8.44824 21.2641 9.02322 21.7336 9.73534C22.375 10.6441 22.7463 11.7157 22.8044 12.8265C22.2884 12.3956 21.6297 12.1736 20.9582 12.2041C20.5267 12.2505 20.1103 12.389 19.737 12.6102C19.9718 12.112 20.0718 11.5609 20.0271 11.0119C19.9488 10.3196 19.5998 9.68631 19.0562 9.25045C18.5126 8.81459 17.8187 8.61153 17.1259 8.68561C17.0362 8.68561 16.9465 8.71199 16.8621 8.73045C16.1683 8.90408 15.5538 9.30756 15.1187 9.87513C14.8029 9.78701 14.4667 9.80744 14.1639 9.93316C14.0147 9.99273 13.873 10.0697 13.7419 10.1626C13.6003 10.0081 13.4279 9.88496 13.2358 9.80113C13.0437 9.7173 12.8361 9.67465 12.6265 9.67591C12.4169 9.67718 12.2099 9.72234 12.0188 9.80848C11.8277 9.89462 11.6568 10.0198 11.5171 10.1761C11.3773 10.3323 11.2718 10.516 11.2074 10.7155C11.143 10.915 11.1211 11.1257 11.1431 11.3342C11.1651 11.5426 11.2305 11.7441 11.3352 11.9258C11.4398 12.1074 11.5813 12.2651 11.7506 12.3887C11.6614 12.6514 11.6316 12.9307 11.6636 13.2063C11.1527 12.8233 10.5561 12.5707 9.92545 12.4704C9.83313 11.7821 9.43751 11.1016 8.87044 10.8721C8.70712 10.3148 8.34235 9.83816 7.84709 9.53489C7.5559 9.35392 7.21137 9.2785 6.87121 9.32125C6.51909 8.66614 5.95581 8.14934 5.27287 7.8548C4.91891 7.70769 4.53687 7.64041 4.15394 7.65773C3.77101 7.67505 3.39661 7.77656 3.05736 7.95502C2.70605 8.11483 2.39476 8.3509 2.14612 8.64609C1.89747 8.94127 1.71772 9.28814 1.61992 9.66149C1.44607 10.3844 1.5223 11.1449 1.8362 11.819C1.59467 12.0619 1.44384 12.3803 1.40892 12.721C1.35394 13.3013 1.51657 13.8813 1.86521 14.3484C1.71487 14.9154 2.00763 15.5853 2.4059 16.0337C2.56441 16.2394 2.76948 16.4045 3.00425 16.5155C3.23901 16.6264 3.49676 16.6801 3.7563 16.672C3.92032 16.8912 4.12437 17.0773 4.35766 17.2206H4.34447C4.23255 17.2206 4.12521 17.2651 4.04607 17.3442C3.96693 17.4233 3.92247 17.5307 3.92247 17.6426C3.92116 17.6549 3.92116 17.6673 3.92247 17.6795C4.13874 20.2485 5.18847 24.7454 9.70653 26.8924C8.95125 27.7357 8.52439 28.8226 8.50383 29.9545C8.50452 30.066 8.54929 30.1726 8.62836 30.2512C8.70742 30.3298 8.81436 30.3739 8.92583 30.3739H22.3982C22.4535 30.3742 22.5083 30.3636 22.5595 30.3427C22.6107 30.3218 22.6573 30.291 22.6965 30.252C22.7357 30.213 22.7668 30.1667 22.7881 30.1156C22.8093 30.0645 22.8202 30.0098 22.8202 29.9545V29.9545C22.7966 28.8215 22.3648 27.7351 21.6043 26.895C26.1224 24.7428 27.1748 20.2485 27.391 17.6901C27.3998 17.5786 27.3643 17.4682 27.2922 17.3828C27.2202 17.2974 27.1173 17.2439 27.006 17.2338H25.2388C25.7004 15.8702 25.2731 15.0526 24.619 14.3642C25.7277 14.2188 26.8548 14.3955 27.8658 14.8732C28.1967 15.0297 28.5552 15.1193 28.9208 15.137C29.1649 15.1478 29.4047 15.0701 29.596 14.9181C29.7352 14.7973 29.8371 14.6394 29.8899 14.4629C29.9427 14.2863 29.9441 14.0984 29.894 13.9211V13.9211ZM25.0226 10.9143C25.1492 10.5371 25.2573 10.2127 25.3575 9.97799C25.5422 9.53489 25.8112 9.33708 25.9932 9.33708C26.191 9.33708 26.3967 9.56391 26.5444 9.94107C26.7185 10.3921 26.038 11.5236 24.1706 13.1061C24.4933 12.3911 24.7777 11.6595 25.0226 10.9143V10.9143ZM22.1028 8.43769C22.1919 8.39833 22.2922 8.3927 22.3851 8.42186C22.6116 8.47133 22.8242 8.57124 23.0068 8.71416C23.1895 8.85709 23.3376 9.03936 23.4401 9.2474C23.8114 9.98022 23.9678 10.8032 23.8911 11.6212C23.8067 11.8533 23.7188 12.088 23.6273 12.3254C23.4819 11.2258 23.0759 10.1768 22.4431 9.26587C22.0685 8.72254 22.0817 8.47198 22.1028 8.43769ZM14.4356 10.7086C14.5256 10.666 14.625 10.6472 14.7243 10.6542C14.8236 10.6611 14.9195 10.6935 15.0027 10.7481C15.0483 10.7796 15.0997 10.8017 15.1539 10.8131C15.2081 10.8246 15.2641 10.8252 15.3185 10.8149C15.373 10.8046 15.4248 10.7836 15.4711 10.7531C15.5174 10.7226 15.5572 10.6833 15.5882 10.6374L15.6119 10.5978C15.9241 10.0743 16.4302 9.69518 17.0204 9.54281C17.4836 9.44835 17.9654 9.54091 18.3607 9.80032C18.756 10.0597 19.0327 10.4649 19.1304 10.9275C19.1304 10.9802 19.1488 11.0304 19.1541 11.0831C19.1983 11.6902 19.0011 12.2901 18.6055 12.7527C18.5293 12.8329 18.4879 12.9401 18.4903 13.0508C18.4928 13.1615 18.539 13.2667 18.6187 13.3435L18.6398 13.3619C18.0402 13.8974 17.4821 14.4775 16.9702 15.0974C16.8946 15.0398 16.8015 15.01 16.7065 15.013C16.1763 15.0471 15.6481 15.1079 15.124 15.195L16.0339 13.9263C16.445 13.7889 16.8773 13.7264 17.3105 13.7417C17.3667 13.7517 17.4244 13.7502 17.48 13.7373C17.5356 13.7243 17.588 13.7002 17.634 13.6665C17.6801 13.6327 17.7188 13.5899 17.7478 13.5407C17.7768 13.4916 17.7956 13.437 17.8029 13.3804C17.8102 13.3237 17.806 13.2662 17.7904 13.2113C17.7749 13.1563 17.7483 13.1051 17.7124 13.0607C17.6765 13.0163 17.6319 12.9797 17.5814 12.9531C17.5309 12.9264 17.4755 12.9103 17.4186 12.9056V12.9056C17.1995 12.8819 16.9784 12.8819 16.7592 12.9056L17.569 11.7741C17.634 11.6836 17.6604 11.5708 17.6424 11.4608C17.6243 11.3507 17.5633 11.2523 17.4727 11.1873C17.3821 11.1222 17.2694 11.0958 17.1593 11.1139C17.0493 11.1319 16.9509 11.193 16.8858 11.2836V11.2836L16.0735 12.4151C16.0282 12.1984 15.9601 11.9871 15.8704 11.7847C15.8467 11.7346 15.8133 11.6898 15.7721 11.6528C15.7309 11.6158 15.6828 11.5874 15.6304 11.5692C15.5781 11.5511 15.5227 11.5435 15.4675 11.547C15.4122 11.5505 15.3582 11.5649 15.3086 11.5895C15.2083 11.6389 15.1317 11.7261 15.0956 11.8319C15.0595 11.9377 15.0668 12.0535 15.1161 12.1539C15.2694 12.5603 15.348 12.9909 15.3482 13.4252L14.4409 14.6939C14.3169 13.9026 14.1085 13.1483 14.1059 13.1377C14.0715 13.0355 13.9993 12.9503 13.904 12.8996C13.8087 12.849 13.6977 12.8367 13.5936 12.8655C13.4896 12.8942 13.4006 12.9616 13.3448 13.0539C13.2889 13.1463 13.2706 13.2565 13.2935 13.3619C13.4518 13.9263 13.7208 15.2082 13.6813 15.7357L12.8056 16.9568C12.8024 16.5529 12.7456 16.1511 12.6368 15.7621C12.4759 15.0499 12.3256 14.3774 12.6922 13.8657C12.7571 13.7747 12.7833 13.6617 12.765 13.5514C12.7467 13.4412 12.6855 13.3426 12.5946 13.2775C12.4232 13.1562 12.4575 12.8054 12.5603 12.5311C12.7265 12.0933 13.0456 11.8084 13.2302 11.8295C13.3324 11.8399 13.4348 11.8127 13.5183 11.7529C13.6018 11.6932 13.6607 11.6051 13.6839 11.5051C13.7351 11.3353 13.8254 11.1799 13.9477 11.0515C14.0838 10.9035 14.2503 10.7866 14.4356 10.7086V10.7086ZM13.6443 17.2232L14.3433 16.25C14.9795 16.0538 15.6361 15.9317 16.3003 15.886C15.9653 16.3054 15.6251 16.7538 15.2822 17.2232H13.6443ZM12.5893 10.5055C12.6903 10.5042 12.7902 10.5259 12.8816 10.5688C12.973 10.6118 13.0534 10.6749 13.1168 10.7534C13.0533 10.8443 12.9977 10.9405 12.9507 11.0409C12.6166 11.1373 12.3242 11.3424 12.1199 11.6238C11.9996 11.4966 11.9346 11.327 11.939 11.1521C11.9435 10.9771 12.017 10.811 12.1436 10.6901C12.2655 10.571 12.4294 10.5047 12.5999 10.5055H12.5893ZM11.6319 14.3404C11.593 14.8903 11.6501 15.4428 11.8007 15.9731C11.9064 16.3243 11.9536 16.6905 11.9405 17.0571C11.9405 17.1125 11.9405 17.1652 11.9405 17.2206H10.722L10.2815 16.7828H11.1677C11.2796 16.7828 11.387 16.7383 11.4661 16.6592C11.5453 16.58 11.5897 16.4727 11.5897 16.3608C11.5897 16.2488 11.5453 16.1415 11.4661 16.0624C11.387 15.9832 11.2796 15.9388 11.1677 15.9388H10.2815L10.904 15.3163C10.9827 15.2373 11.0267 15.1302 11.0265 15.0187C11.0262 14.9071 10.9817 14.8003 10.9026 14.7216C10.8635 14.6826 10.8171 14.6517 10.766 14.6307C10.7149 14.6097 10.6602 14.5989 10.605 14.599C10.4935 14.5993 10.3866 14.6438 10.3079 14.7229L9.68543 15.3427V14.4591C9.69003 14.4011 9.68257 14.3427 9.66351 14.2877C9.64446 14.2327 9.61422 14.1822 9.57471 14.1394C9.5352 14.0966 9.48726 14.0625 9.43392 14.0392C9.38057 14.0158 9.32298 14.0038 9.26475 14.0038C9.20652 14.0038 9.14892 14.0158 9.09558 14.0392C9.04224 14.0625 8.9943 14.0966 8.95479 14.1394C8.91527 14.1822 8.88504 14.2327 8.86598 14.2877C8.84693 14.3427 8.83947 14.4011 8.84407 14.4591V15.3453L8.21634 14.7176C8.13694 14.6389 8.02954 14.595 7.91775 14.5955C7.80597 14.596 7.69895 14.6408 7.62026 14.7202C7.54156 14.7996 7.49763 14.907 7.49813 15.0188C7.49862 15.1306 7.5435 15.2376 7.6229 15.3163L8.24799 15.944H7.36178C7.30374 15.9394 7.24537 15.9469 7.19035 15.966C7.13533 15.985 7.08484 16.0153 7.04208 16.0548C6.99931 16.0943 6.96518 16.1422 6.94184 16.1956C6.9185 16.2489 6.90645 16.3065 6.90645 16.3647C6.90645 16.423 6.9185 16.4806 6.94184 16.5339C6.96518 16.5872 6.99931 16.6352 7.04208 16.6747C7.08484 16.7142 7.13533 16.7444 7.19035 16.7635C7.24537 16.7825 7.30374 16.79 7.36178 16.7854H8.24799L7.81016 17.2259H6.27777C6.08463 16.5627 6.11778 15.8541 6.37199 15.2119C6.62621 14.5696 7.08701 14.0303 7.68171 13.679C8.27641 13.3277 8.97116 13.1844 9.65634 13.2717C10.3415 13.359 10.9781 13.6719 11.4658 14.1611C11.5264 14.2217 11.5818 14.2798 11.6319 14.3404ZM4.09391 15.7858C3.99091 15.7539 3.87965 15.7624 3.78268 15.8095C3.57695 15.9124 3.271 15.7146 3.05736 15.4746C2.71185 15.1 2.60899 14.6649 2.72768 14.4961C2.78483 14.411 2.80888 14.308 2.79528 14.2064C2.78167 14.1049 2.73135 14.0118 2.65383 13.9448C2.51354 13.7949 2.40631 13.6172 2.33906 13.4232C2.27182 13.2291 2.24607 13.0232 2.26347 12.8186C2.26602 12.7101 2.2971 12.6043 2.35359 12.5117C2.41009 12.4191 2.48999 12.343 2.58525 12.2911C2.68419 12.2389 2.75837 12.1496 2.79151 12.0428C2.82464 11.936 2.81401 11.8204 2.76196 11.7214C2.75413 11.7067 2.74532 11.6926 2.73559 11.6792C2.56967 11.4099 2.45841 11.1106 2.40818 10.7984C2.35795 10.4861 2.36972 10.167 2.44282 9.85931C2.50668 9.6036 2.62701 9.36545 2.79497 9.16235C2.96293 8.95924 3.17426 8.79634 3.41343 8.68561C3.64504 8.56179 3.90133 8.49116 4.16368 8.47884C4.42602 8.46652 4.6878 8.51283 4.93 8.6144C5.51459 8.86757 5.97536 9.34162 6.21183 9.93316C6.24846 10.0369 6.32393 10.1223 6.42232 10.1715C6.52072 10.2207 6.63437 10.2298 6.73933 10.1969L6.78153 10.1784C6.87904 10.1341 6.98635 10.1156 7.09309 10.1248C7.19982 10.1341 7.30237 10.1707 7.3908 10.2312C7.56467 10.3397 7.71372 10.4836 7.82825 10.6536C7.94277 10.8235 8.02018 11.0157 8.05545 11.2176C8.05853 11.3221 8.10054 11.4217 8.17324 11.4969C8.24594 11.572 8.34409 11.6173 8.44844 11.6238C8.66471 11.6238 8.92847 11.9931 9.02869 12.4151C8.0635 12.4695 7.15203 12.8769 6.46767 13.5597C6.43074 13.5967 6.39909 13.6336 6.3648 13.6705L5.99028 12.9426C6.06194 12.4903 6.21568 12.055 6.44393 11.6581C6.49995 11.5667 6.51907 11.4573 6.4974 11.3523C6.47573 11.2473 6.4149 11.1545 6.32726 11.0927C6.23962 11.0309 6.13175 11.0048 6.02556 11.0197C5.91937 11.0346 5.82283 11.0893 5.75554 11.1728C5.62499 11.378 5.51626 11.5964 5.43112 11.8243L4.76383 10.4897C4.71129 10.3941 4.62378 10.3225 4.51965 10.2901C4.41551 10.2576 4.30285 10.2667 4.20529 10.3155C4.10772 10.3643 4.03284 10.4489 3.99634 10.5517C3.95984 10.6545 3.96456 10.7674 4.00951 10.8668V10.8668L4.6768 12.2014C4.44469 12.1327 4.20601 12.0885 3.96467 12.0695V12.0695C3.90675 12.0641 3.84834 12.0707 3.7931 12.089C3.73786 12.1072 3.68699 12.1367 3.64368 12.1755C3.60037 12.2144 3.56555 12.2617 3.54142 12.3147C3.51729 12.3676 3.50436 12.4249 3.50345 12.4831C3.50254 12.5413 3.51366 12.599 3.53612 12.6526C3.55858 12.7063 3.5919 12.7547 3.63397 12.7949C3.67604 12.8351 3.72596 12.8661 3.7806 12.8861C3.83524 12.9061 3.89342 12.9145 3.95148 12.9109C4.40467 12.9684 4.84404 13.1059 5.24914 13.3171L5.82148 14.4591C5.774 14.5435 5.72916 14.6279 5.6896 14.7229C5.0988 14.5356 4.54228 14.4011 4.37084 14.3615C4.26269 14.3418 4.1511 14.365 4.05981 14.4263C3.96852 14.4875 3.90474 14.582 3.88206 14.6896C3.85938 14.7972 3.87957 14.9094 3.93835 15.0023C3.99713 15.0952 4.08984 15.1615 4.19677 15.1871C4.4025 15.2293 4.91153 15.3559 5.42849 15.5194C5.33677 15.9312 5.31184 16.3551 5.35464 16.7749C5.14677 16.7206 4.95168 16.6258 4.78058 16.4959C4.60949 16.366 4.46576 16.2035 4.35766 16.0179C4.33325 15.9623 4.29699 15.9128 4.25144 15.8727C4.20588 15.8326 4.15212 15.8029 4.09391 15.7858V15.7858ZM9.36893 29.5325C9.51663 28.3905 10.2235 27.47 10.5927 27.2379H20.7208C21.0927 27.47 21.7969 28.3931 21.9446 29.5325H9.36893ZM20.6443 26.3939H10.6798C6.30414 24.6557 5.11726 20.6124 4.81922 18.0646H26.5048C26.2015 20.6124 25.0226 24.6557 20.6443 26.3939ZM16.3399 17.2232C16.7065 16.7353 17.0678 16.2764 17.4213 15.857C18.9484 14.0345 20.1353 13.1114 21.0056 13.0349C21.7019 12.9742 22.2453 13.4331 22.931 14.0134L23.0523 14.1136L23.0682 14.1268L23.2871 14.3114L23.3952 14.3985L23.4612 14.4539L23.4928 14.4802C24.4107 15.253 24.9276 15.8201 24.3342 17.2153L16.3399 17.2232ZM29.0659 14.2613C29.0342 14.2903 28.8021 14.3484 28.1929 14.0925C27.2069 13.6453 26.1309 13.4323 25.0489 13.4701C25.1703 13.3646 25.289 13.2564 25.405 13.1456C26.2585 12.8575 27.1808 12.8436 28.0425 13.1061C28.2632 13.1714 28.4663 13.2854 28.6371 13.4397C28.8078 13.594 28.9417 13.7846 29.0289 13.9976C29.0707 14.0788 29.0838 14.1718 29.0659 14.2613V14.2613Z" fill="black"/>
<path d="M24.0915 21.3826C23.8024 21.9733 23.439 22.5246 23.0101 23.0231C22.9421 23.1084 22.9097 23.2167 22.9198 23.3253C22.9298 23.4339 22.9816 23.5344 23.0641 23.6057C23.1467 23.677 23.2537 23.7136 23.3626 23.7077C23.4715 23.7019 23.5739 23.6541 23.6484 23.5744C24.1223 23.0213 24.5246 22.4108 24.8458 21.7571C24.8748 21.7072 24.8933 21.6518 24.9 21.5945C24.9068 21.5371 24.9017 21.479 24.8851 21.4237C24.8685 21.3684 24.8407 21.3171 24.8035 21.273C24.7662 21.2288 24.7203 21.1928 24.6686 21.1671C24.6169 21.1414 24.5604 21.1266 24.5028 21.1237C24.4451 21.1207 24.3874 21.1295 24.3333 21.1497C24.2792 21.1699 24.2299 21.201 24.1883 21.2411C24.1467 21.2811 24.1137 21.3293 24.0915 21.3826Z" fill="black"/>
<path d="M14.0685 4.87177C14.3657 4.87125 14.6562 4.78263 14.903 4.61712C15.1499 4.45161 15.3422 4.21663 15.4556 3.94188C15.569 3.66713 15.5984 3.36493 15.5401 3.07348C15.4818 2.78202 15.3384 2.51439 15.128 2.30441C14.9176 2.09442 14.6498 1.9515 14.3582 1.8937C14.0667 1.83591 13.7645 1.86583 13.49 1.9797C13.2154 2.09356 12.9808 2.28625 12.8157 2.53343C12.6506 2.7806 12.5625 3.07116 12.5625 3.36839C12.5625 3.56603 12.6015 3.76174 12.6772 3.94431C12.7529 4.12689 12.8639 4.29273 13.0038 4.43237C13.1436 4.57201 13.3097 4.68269 13.4924 4.75809C13.6751 4.83348 13.8709 4.87211 14.0685 4.87177V4.87177ZM14.0685 2.70637C14.1997 2.70533 14.3282 2.74326 14.4377 2.81537C14.5473 2.88747 14.633 2.9905 14.6839 3.11137C14.7348 3.23224 14.7487 3.36551 14.7237 3.49427C14.6988 3.62304 14.6362 3.74149 14.5438 3.8346C14.4514 3.92772 14.3335 3.99129 14.2049 4.01727C14.0763 4.04324 13.943 4.03044 13.8217 3.9805C13.7004 3.93055 13.5967 3.8457 13.5237 3.73672C13.4507 3.62774 13.4118 3.49954 13.4118 3.36839C13.4118 3.19372 13.4808 3.02613 13.6038 2.90213C13.7268 2.77812 13.8939 2.70776 14.0685 2.70637V2.70637Z" fill="black"/>
<path d="M9.2983 7.3695C9.59564 7.3695 9.88631 7.28132 10.1335 7.11613C10.3808 6.95094 10.5735 6.71614 10.6872 6.44143C10.801 6.16673 10.8308 5.86445 10.7728 5.57282C10.7148 5.28119 10.5716 5.01331 10.3614 4.80306C10.1511 4.59281 9.88323 4.44963 9.5916 4.39162C9.29997 4.33361 8.99769 4.36338 8.72298 4.47717C8.44828 4.59096 8.21348 4.78365 8.04829 5.03088C7.88309 5.27811 7.79492 5.56877 7.79492 5.86611C7.79492 6.26484 7.95331 6.64723 8.23525 6.92917C8.51719 7.2111 8.89958 7.3695 9.2983 7.3695ZM9.2983 5.2041C9.42924 5.2041 9.55723 5.24293 9.6661 5.31567C9.77497 5.38841 9.85982 5.4918 9.90993 5.61277C9.96003 5.73374 9.97314 5.86685 9.9476 5.99527C9.92205 6.12369 9.859 6.24165 9.76642 6.33423C9.67383 6.42681 9.55587 6.48987 9.42746 6.51541C9.29904 6.54095 9.16593 6.52784 9.04496 6.47774C8.92399 6.42763 8.8206 6.34278 8.74786 6.23391C8.67511 6.12504 8.63629 5.99705 8.63629 5.86611C8.63629 5.69054 8.70604 5.52215 8.83019 5.398C8.95434 5.27385 9.12273 5.2041 9.2983 5.2041V5.2041Z" fill="black"/>
<path d="M20.2202 6.91054C20.5175 6.91054 20.8082 6.82237 21.0554 6.65718C21.3026 6.49198 21.4953 6.25719 21.6091 5.98248C21.7229 5.70777 21.7527 5.40549 21.6947 5.11387C21.6367 4.82224 21.4935 4.55436 21.2832 4.34411C21.073 4.13386 20.8051 3.99067 20.5135 3.93267C20.2218 3.87466 19.9196 3.90443 19.6449 4.01822C19.3702 4.132 19.1354 4.3247 18.9702 4.57193C18.805 4.81916 18.7168 5.10982 18.7168 5.40716C18.7168 5.80588 18.8752 6.18827 19.1571 6.47021C19.4391 6.75215 19.8215 6.91054 20.2202 6.91054ZM20.2202 4.74514C20.3511 4.74514 20.4791 4.78397 20.588 4.85671C20.6968 4.92946 20.7817 5.03285 20.8318 5.15382C20.8819 5.27479 20.895 5.40789 20.8695 5.53631C20.8439 5.66473 20.7809 5.78269 20.6883 5.87528C20.5957 5.96786 20.4778 6.03091 20.3493 6.05646C20.2209 6.082 20.0878 6.06889 19.9668 6.01878C19.8459 5.96868 19.7425 5.88382 19.6697 5.77496C19.597 5.66609 19.5582 5.53809 19.5582 5.40716V5.40716C19.5582 5.23158 19.6279 5.0632 19.7521 4.93904C19.8762 4.81489 20.0446 4.74514 20.2202 4.74514Z" fill="black"/>
</g>
<defs>
<filter id="filter0_d_502_792" x="0.171444" y="0.638012" width="30.9862" height="30.9629" filterUnits="userSpaceOnUse" color-interpolation-filters="sRGB">
<feFlood flood-opacity="0" result="BackgroundImageFix"/>
<feColorMatrix in="SourceAlpha" type="matrix" values="0 0 0 0 0 0 0 0 0 0 0 0 0 0 0 0 0 0 127 0" result="hardAlpha"/>
<feOffset/>
<feGaussianBlur stdDeviation="0.613497"/>
<feComposite in2="hardAlpha" operator="out"/>
<feColorMatrix type="matrix" values="0 0 0 0 0 0 0 0 0 0 0 0 0 0 0 0 0 0 0.25 0"/>
<feBlend mode="normal" in2="BackgroundImageFix" result="effect1_dropShadow_502_792"/>
<feBlend mode="normal" in="SourceGraphic" in2="effect1_dropShadow_502_792" result="shape"/>
</filter>
</defs>
</svg>
