<svg width="35" height="34" viewBox="0 0 35 34" fill="none" xmlns="http://www.w3.org/2000/svg">
<g filter="url(#filter0_d_502_1327)">
<path d="M29.4715 24.898H5.11683C4.86709 24.898 4.6198 24.8487 4.38911 24.7531C4.15842 24.6574 3.94884 24.5172 3.77237 24.3405C3.5959 24.1638 3.456 23.954 3.36067 23.7232C3.26534 23.4924 3.21645 23.245 3.2168 22.9953V22.6232C3.21645 22.3735 3.26534 22.1261 3.36067 21.8953C3.456 21.6644 3.5959 21.4547 3.77237 21.278C3.94884 21.1012 4.15842 20.9611 4.38911 20.8654C4.6198 20.7698 4.86709 20.7205 5.11683 20.7205H29.4715C29.7213 20.7205 29.9686 20.7698 30.1993 20.8654C30.43 20.9611 30.6395 21.1012 30.816 21.278C30.9925 21.4547 31.1324 21.6644 31.2277 21.8953C31.323 22.1261 31.3719 22.3735 31.3716 22.6232V22.9953C31.3719 23.245 31.323 23.4924 31.2277 23.7232C31.1324 23.954 30.9925 24.1638 30.816 24.3405C30.6395 24.5172 30.43 24.6574 30.1993 24.7531C29.9686 24.8487 29.7213 24.898 29.4715 24.898V24.898Z" fill="#C32F27"/>
<path d="M29.4715 17.4324H5.11683C4.61291 17.4324 4.12963 17.2322 3.7733 16.8759C3.41698 16.5196 3.2168 16.0363 3.2168 15.5324V15.1577C3.2168 14.6537 3.41698 14.1705 3.7733 13.8141C4.12963 13.4578 4.61291 13.2576 5.11683 13.2576H29.4715C29.9755 13.2576 30.4587 13.4578 30.8151 13.8141C31.1714 14.1705 31.3716 14.6537 31.3716 15.1577V15.5324C31.3716 16.0363 31.1714 16.5196 30.8151 16.8759C30.4587 17.2322 29.9755 17.4324 29.4715 17.4324V17.4324Z" fill="#C32F27"/>
<path d="M31.3701 22.6206V22.9953C31.3705 23.245 31.3216 23.4924 31.2262 23.7232C31.1309 23.954 30.991 24.1638 30.8145 24.3405C30.6381 24.5172 30.4285 24.6574 30.1978 24.7531C29.9671 24.8487 29.7198 24.898 29.4701 24.898H28.3564C28.8611 24.898 29.345 24.6975 29.7018 24.3407C30.0587 23.9839 30.2591 23.4999 30.2591 22.9953V22.6206C30.2584 22.1164 30.0577 21.6331 29.7009 21.2769C29.3442 20.9206 28.8606 20.7205 28.3564 20.7205H29.4701C29.974 20.7205 30.4573 20.9207 30.8136 21.277C31.1699 21.6334 31.3701 22.1166 31.3701 22.6206Z" fill="#9B2623"/>
<path d="M31.3701 15.1577V15.5324C31.3701 15.7819 31.321 16.029 31.2255 16.2595C31.13 16.49 30.99 16.6995 30.8136 16.8759C30.6372 17.0524 30.4277 17.1923 30.1972 17.2878C29.9667 17.3833 29.7196 17.4324 29.4701 17.4324H28.3564C28.6062 17.4328 28.8535 17.3839 29.0844 17.2886C29.3152 17.1932 29.525 17.0533 29.7017 16.8769C29.8784 16.7004 30.0186 16.4908 30.1142 16.2601C30.2099 16.0294 30.2591 15.7821 30.2591 15.5324V15.1577C30.2591 14.9079 30.2099 14.6606 30.1142 14.4299C30.0186 14.1992 29.8784 13.9897 29.7017 13.8132C29.525 13.6367 29.3152 13.4968 29.0844 13.4015C28.8535 13.3062 28.6062 13.2573 28.3564 13.2576H29.4701C29.974 13.2576 30.4573 13.4578 30.8136 13.8141C31.1699 14.1705 31.3701 14.6537 31.3701 15.1577V15.1577Z" fill="#9B2623"/>
<path d="M17.3052 2.87869C7.80506 3.01592 4.60931 8.16711 3.55638 11.1623C3.47184 11.4014 3.44598 11.6573 3.48095 11.9085C3.51593 12.1597 3.61073 12.3988 3.75737 12.6057C3.90402 12.8126 4.09821 12.9812 4.32362 13.0974C4.54903 13.2136 4.79905 13.274 5.05265 13.2734H29.534C29.7872 13.2732 30.0366 13.2122 30.2613 13.0956C30.486 12.979 30.6795 12.8103 30.8256 12.6035C30.9716 12.3967 31.0659 12.1579 31.1006 11.9072C31.1353 11.6564 31.1094 11.401 31.025 11.1623C29.9721 8.146 26.7684 3.01592 17.3052 2.87869Z" fill="#FFB864"/>
<path d="M29.5338 13.2576H29.3992C29.5888 13.0461 29.7179 12.7875 29.7732 12.509C29.8284 12.2304 29.8077 11.9421 29.7133 11.6743C28.6524 8.66851 25.4593 3.54106 15.9855 3.40384C13.8905 3.40134 11.8085 3.73364 9.81836 4.38816C11.7263 3.5094 14.1673 2.92355 17.305 2.87869C26.7788 3.01592 29.9719 8.15656 31.0275 11.1412C31.113 11.3804 31.1397 11.6366 31.1054 11.8883C31.071 12.14 30.9766 12.3797 30.8302 12.5872C30.6837 12.7948 30.4895 12.964 30.2639 13.0807C30.0382 13.1974 29.7878 13.258 29.5338 13.2576V13.2576Z" fill="#FE860A"/>
<path d="M29.471 24.8979H5.11626C5.11626 24.8979 4.27708 28.9513 9.05619 30.5479C9.87221 30.8194 10.7269 30.9567 11.5869 30.9543H23.0003C23.86 30.9584 24.7147 30.8229 25.531 30.5532C30.3102 28.9513 29.471 24.8979 29.471 24.8979Z" fill="#FF9F1C"/>
<path d="M25.5311 30.5479C24.7151 30.8195 23.8604 30.9567 23.0004 30.9543H21.71C22.5697 30.9584 23.4244 30.823 24.2407 30.5532C29.0198 28.9699 28.1806 24.9033 28.1806 24.9033H29.4711C29.4711 24.9033 30.3102 28.9514 25.5311 30.5479Z" fill="#FE860A"/>
<path d="M29.5151 21.4779C29.5172 21.6929 29.4574 21.9039 29.3427 22.0857C29.2281 22.2675 29.0635 22.4124 28.8686 22.5032C28.6738 22.5939 28.4569 22.6266 28.244 22.5974C28.031 22.5681 27.831 22.4782 27.6679 22.3382C27.3306 22.0425 26.8945 21.8843 26.446 21.8949C24.9181 21.8949 24.9181 23.1062 23.3902 23.1062C21.8622 23.1062 21.8622 21.8949 20.3343 21.8949C18.8063 21.8949 18.8037 23.1062 17.2757 23.1062C15.7478 23.1062 15.7478 21.8949 14.2199 21.8949C12.6919 21.8949 12.6919 23.1062 11.1613 23.1062C9.63076 23.1062 9.65187 21.8949 8.11601 21.8949C7.66764 21.8848 7.23175 22.043 6.89418 22.3382C6.73102 22.4782 6.53101 22.5681 6.31806 22.5974C6.10512 22.6266 5.88826 22.5939 5.69341 22.5032C5.49856 22.4124 5.33397 22.2675 5.21932 22.0857C5.10468 21.9039 5.04483 21.6929 5.04693 21.4779V19.2322H29.5019V21.4779H29.5151Z" fill="#95AE45"/>
<path d="M29.5161 19.2322V21.4779C29.5161 21.6754 29.4639 21.8694 29.3648 22.0402C29.2656 22.2109 29.123 22.3524 28.9515 22.4503C28.7799 22.5481 28.5856 22.5988 28.3881 22.5972C28.1906 22.5956 27.9971 22.5418 27.8271 22.4411C27.9983 22.3454 28.1408 22.2056 28.2396 22.0362C28.3385 21.8668 28.3901 21.6741 28.3892 21.4779V19.2322H29.5161Z" fill="#81913F"/>
<path d="M5.07129 17.4324V19.248H7.69439C7.82422 19.248 7.95278 19.2736 8.07269 19.3234C8.19261 19.3732 8.30153 19.4461 8.39321 19.538C8.48489 19.63 8.55754 19.7391 8.60698 19.8591C8.65643 19.9792 8.6817 20.1078 8.68135 20.2376V25.468C8.69621 25.7929 8.83573 26.0996 9.07092 26.3242C9.3061 26.5489 9.61883 26.6743 9.94408 26.6743C10.2693 26.6743 10.5821 26.5489 10.8172 26.3242C11.0524 26.0996 11.192 25.7929 11.2068 25.468V20.2376C11.2068 19.9756 11.3107 19.7243 11.4957 19.5388C11.6807 19.3533 11.9318 19.2487 12.1938 19.248H29.5157V17.4324H5.07129Z" fill="#FF9F1C"/>
<path d="M28.3887 17.4324H29.5287V19.248H28.3887V17.4324Z" fill="#FE860A"/>
<path d="M31.7955 15.5324V15.1577C31.7957 14.7805 31.704 14.4089 31.5284 14.0751C31.3528 13.7413 31.0984 13.4553 30.7875 13.2418C31.1134 12.9803 31.3497 12.6238 31.4637 12.2218C31.5777 11.8199 31.5636 11.3923 31.4234 10.9987C30.676 8.87418 29.3431 7.00427 27.5785 5.60474C25.0135 3.5754 21.5565 2.51455 17.3051 2.45386C15.5121 2.46267 13.7273 2.69763 11.993 3.15317C11.9391 3.1679 11.8886 3.1931 11.8445 3.22733C11.8003 3.26156 11.7634 3.30415 11.7357 3.35267C11.708 3.40119 11.6901 3.45469 11.6831 3.51011C11.6761 3.56553 11.68 3.62179 11.6948 3.67568C11.7095 3.72957 11.7347 3.78003 11.7689 3.82418C11.8032 3.86833 11.8458 3.90531 11.8943 3.933C11.9428 3.96069 11.9963 3.97855 12.0517 3.98557C12.1071 3.99258 12.1634 3.98861 12.2173 3.97388C13.8782 3.53678 15.5877 3.31156 17.3051 3.30359C26.4939 3.43818 29.5999 8.35979 30.6344 11.2811C30.6961 11.456 30.7148 11.6432 30.6891 11.8269C30.6634 12.0106 30.594 12.1854 30.4866 12.3367C30.3808 12.4882 30.2398 12.6117 30.0757 12.6967C29.9116 12.7818 29.7293 12.8257 29.5445 12.8249H5.05258C4.86832 12.8259 4.68652 12.7825 4.52254 12.6985C4.35856 12.6144 4.21723 12.4921 4.11048 12.3419C4.00326 12.1932 3.93379 12.0206 3.90805 11.839C3.88231 11.6574 3.90106 11.4723 3.9627 11.2996C4.71216 9.15675 6.44066 6.25656 10.407 4.59403C10.459 4.57237 10.5062 4.54069 10.5459 4.50078C10.5856 4.46088 10.6171 4.41354 10.6386 4.36147C10.66 4.3094 10.671 4.25361 10.6709 4.1973C10.6708 4.14098 10.6595 4.08524 10.6379 4.03326C10.6162 3.98128 10.5845 3.93407 10.5446 3.89433C10.5047 3.8546 10.4574 3.82311 10.4053 3.80167C10.3532 3.78022 10.2975 3.76925 10.2411 3.76937C10.1848 3.76948 10.1291 3.78069 10.0771 3.80235C8.22061 4.56132 6.57414 5.75612 5.27689 7.28574C4.35521 8.39297 3.64011 9.65689 3.16574 11.0172C3.05948 11.3186 3.02797 11.6413 3.07394 11.9575C3.11991 12.2738 3.24197 12.5741 3.42964 12.8328C3.53942 12.9864 3.66997 13.1241 3.81756 13.2418C3.50348 13.4535 3.24581 13.7387 3.06692 14.0726C2.88803 14.4064 2.79332 14.7789 2.79102 15.1577V15.5324C2.79152 16.0662 2.97525 16.5836 3.31149 16.9981C3.64773 17.4127 4.1161 17.6992 4.63827 17.8098V20.3458C4.11632 20.4569 3.64824 20.7436 3.31208 21.158C2.97592 21.5724 2.79201 22.0896 2.79102 22.6232L2.79102 22.9953C2.79103 23.5292 2.97458 24.0469 3.3109 24.4615C3.64722 24.8761 4.11587 25.1625 4.63827 25.2727C4.60333 25.9457 4.69279 26.6193 4.90216 27.2598C5.5962 29.4343 7.47776 30.4714 8.93445 30.9543C9.7944 31.2375 10.6944 31.3801 11.5998 31.3766H23C23.9053 31.3801 24.8053 31.2375 25.6653 30.9543C27.122 30.4661 29.0035 29.4317 29.6976 27.2598C29.9005 26.6199 29.9828 25.9479 29.9404 25.278C30.4628 25.1678 30.9314 24.8814 31.2677 24.4668C31.6041 24.0521 31.7876 23.5345 31.7876 23.0006V22.6232C31.7876 22.0893 31.6041 21.5717 31.2677 21.157C30.9314 20.7424 30.4628 20.456 29.9404 20.3458V17.8098C30.4625 17.6992 30.9309 17.4127 31.2671 16.9981C31.6034 16.5836 31.7871 16.0662 31.7876 15.5324H31.7955ZM3.64075 22.9953V22.6232C3.64147 22.3158 3.7379 22.0161 3.91666 21.766C4.09541 21.5158 4.34762 21.3275 4.63827 21.2272V21.4911C4.63875 21.7842 4.7225 22.0711 4.87977 22.3184C5.03705 22.5657 5.26136 22.7633 5.52657 22.888C5.79179 23.0127 6.08699 23.0595 6.37778 23.0229C6.66856 22.9863 6.94296 22.8678 7.16901 22.6813C7.42932 22.4477 7.76941 22.323 8.11902 22.3329H8.25889V24.481H5.11592C4.72444 24.4803 4.34923 24.3243 4.07266 24.0473C3.79609 23.7702 3.64075 23.3947 3.64075 23.0032V22.9953ZM20.5669 19.6729H29.0906V21.4779C29.0922 21.6096 29.0556 21.739 28.9854 21.8504C28.9152 21.9618 28.8143 22.0506 28.6948 22.106C28.5743 22.1634 28.4398 22.1849 28.3074 22.1681C28.175 22.1512 28.0503 22.0967 27.948 22.011C27.533 21.6573 27.002 21.4693 26.457 21.4832C25.7924 21.4768 25.1508 21.7263 24.6651 22.1799C24.327 22.5097 23.8734 22.6943 23.4011 22.6943C22.9288 22.6943 22.4751 22.5097 22.137 22.1799C21.6506 21.7274 21.0095 21.4782 20.3452 21.4832C19.6807 21.4812 19.0398 21.73 18.5507 22.1799C18.2126 22.5097 17.759 22.6943 17.2867 22.6943C16.8144 22.6943 16.3607 22.5097 16.0226 22.1799C15.5342 21.7306 14.8944 21.4819 14.2308 21.4832C13.566 21.4757 12.9241 21.7253 12.439 22.1799C12.2078 22.3924 11.9318 22.5502 11.6314 22.6417V20.2376C11.6314 20.0883 11.6906 19.9451 11.7959 19.8392C11.9013 19.7334 12.0442 19.6736 12.1935 19.6729H18.5745C18.6872 19.6729 18.7952 19.6281 18.8749 19.5485C18.9546 19.4688 18.9993 19.3607 18.9993 19.248C18.9993 19.1353 18.9546 19.0273 18.8749 18.9476C18.7952 18.8679 18.6872 18.8232 18.5745 18.8232H12.1935C11.8189 18.8239 11.4598 18.9732 11.1951 19.2384C10.9304 19.5036 10.7817 19.8629 10.7817 20.2376V25.468C10.7697 25.6821 10.6762 25.8834 10.5204 26.0307C10.3646 26.1781 10.1583 26.2601 9.94384 26.2601C9.72942 26.2601 9.52314 26.1781 9.36733 26.0307C9.21151 25.8834 9.118 25.6821 9.10598 25.468V20.2376C9.10703 20.0514 9.0713 19.8669 9.00084 19.6945C8.93039 19.5222 8.8266 19.3654 8.69544 19.2333C8.56427 19.1011 8.40829 18.9962 8.23647 18.9244C8.06465 18.8527 7.88035 18.8156 7.69415 18.8152H5.49592V17.8573H29.0906V18.8152H20.5669C20.4542 18.8152 20.3461 18.86 20.2664 18.9397C20.1868 19.0194 20.142 19.1274 20.142 19.2401C20.142 19.3528 20.1868 19.4609 20.2664 19.5405C20.3461 19.6202 20.4542 19.665 20.5669 19.665V19.6729ZM7.69415 19.6729C7.84347 19.6736 7.98644 19.7334 8.09177 19.8392C8.19711 19.9451 8.25625 20.0883 8.25625 20.2376V21.4726H8.11638C7.57131 21.4588 7.04032 21.6467 6.62539 22.0004C6.52368 22.0864 6.39917 22.1409 6.26703 22.1573C6.13489 22.1737 6.00083 22.1513 5.88121 22.0928C5.76152 22.0384 5.66032 21.9502 5.59001 21.8391C5.5197 21.728 5.48333 21.5988 5.48537 21.4674V19.6729H7.69415ZM28.8874 26.9959C28.4177 28.4685 27.2434 29.5293 25.3961 30.1442C24.6233 30.4001 23.814 30.5285 23 30.5242H11.5866C10.7725 30.5285 9.96321 30.4001 9.19043 30.1442C5.57245 28.9382 5.42203 26.2702 5.49592 25.3229H8.25625V25.468C8.27349 25.904 8.45884 26.3165 8.77344 26.6189C9.08804 26.9213 9.50747 27.0902 9.94384 27.0902C10.3802 27.0902 10.7997 26.9213 11.1143 26.6189C11.4289 26.3165 11.6142 25.904 11.6314 25.468V25.3229H29.0933C29.1286 25.8885 29.0588 26.4557 28.8874 26.9959V26.9959ZM30.9458 22.6232V22.9953C30.9458 23.3868 30.7905 23.7623 30.5139 24.0393C30.2373 24.3164 29.8621 24.4724 29.4706 24.4731H11.6314V23.4941C12.1297 23.404 12.5925 23.1753 12.9667 22.8343C13.3049 22.5045 13.7585 22.3199 14.2308 22.3199C14.7031 22.3199 15.1567 22.5045 15.4948 22.8343C15.9833 23.2836 16.623 23.5324 17.2867 23.531C17.9514 23.5385 18.5934 23.2889 19.0785 22.8343C19.4171 22.5044 19.8711 22.3197 20.3439 22.3197C20.8166 22.3197 21.2707 22.5044 21.6092 22.8343C22.0983 23.2826 22.7377 23.5312 23.4011 23.5312C24.0645 23.5312 24.7038 23.2826 25.1929 22.8343C25.3582 22.6671 25.555 22.5343 25.772 22.4437C25.989 22.3531 26.2218 22.3065 26.457 22.3066C26.8074 22.2967 27.1482 22.4214 27.4096 22.6549C27.6357 22.8414 27.9101 22.9599 28.2009 22.9965C28.4916 23.0331 28.7868 22.9863 29.0521 22.8616C29.3173 22.7369 29.5416 22.5393 29.6989 22.292C29.8561 22.0447 29.9399 21.7578 29.9404 21.4647V21.2008C30.2368 21.3012 30.4938 21.493 30.6744 21.7485C30.855 22.0041 30.9501 22.3103 30.9458 22.6232ZM29.4706 17.0076H5.11592C4.72489 17.0069 4.35008 16.8512 4.07359 16.5747C3.79709 16.2982 3.64145 15.9234 3.64075 15.5324V15.1577C3.64075 14.7664 3.79617 14.3912 4.07282 14.1146C4.34946 13.8379 4.72468 13.6825 5.11592 13.6825H29.4706C29.8619 13.6825 30.2371 13.8379 30.5137 14.1146C30.7904 14.3912 30.9458 14.7664 30.9458 15.1577V15.5324C30.9451 15.9234 30.7895 16.2982 30.513 16.5747C30.2365 16.8512 29.8617 17.0069 29.4706 17.0076V17.0076Z" fill="black"/>
<path d="M24.0446 6.35684C24.1022 6.41079 24.1481 6.47595 24.1795 6.54831C24.2109 6.62066 24.2271 6.69868 24.2273 6.77755C24.2274 6.85643 24.2114 6.93449 24.1802 7.00694C24.149 7.07939 24.1033 7.14469 24.0459 7.19882C23.9885 7.25294 23.9207 7.29475 23.8466 7.32167C23.7724 7.34859 23.6935 7.36004 23.6148 7.35533C23.5361 7.35062 23.4591 7.32984 23.3887 7.29427C23.3183 7.25871 23.256 7.20911 23.2054 7.14852C22.9864 6.9163 22.5827 6.11406 22.8149 5.89503C23.0471 5.676 23.8256 6.12726 24.0446 6.35684Z" fill="#FFF5CC"/>
<path d="M20.9841 9.21215C21.0284 9.35244 21.0175 9.50432 20.9536 9.63684C20.8898 9.76937 20.7778 9.87256 20.6405 9.92539C20.5033 9.97821 20.351 9.9767 20.2148 9.92116C20.0786 9.86562 19.9687 9.76023 19.9075 9.62647C19.7913 9.32827 19.7254 8.43103 20.0236 8.307C20.3218 8.18297 20.8707 8.91395 20.9841 9.21215Z" fill="#FFF5CC"/>
<path d="M17.8336 6.8371C17.8336 6.99038 17.7727 7.13738 17.6643 7.24576C17.5559 7.35414 17.4089 7.41503 17.2557 7.41503C17.1024 7.41503 16.9554 7.35414 16.847 7.24576C16.7386 7.13738 16.6777 6.99038 16.6777 6.8371C16.6777 6.51779 16.9416 5.6575 17.2557 5.6575C17.5697 5.6575 17.8336 6.51779 17.8336 6.8371Z" fill="#FFF5CC"/>
<path d="M14.6658 9.57896C14.6273 9.72734 14.5314 9.85434 14.3993 9.93204C14.2671 10.0097 14.1095 10.0318 13.9612 9.99327C13.8128 9.95478 13.6858 9.85892 13.6081 9.72678C13.5304 9.59465 13.5083 9.43705 13.5468 9.28868C13.6102 8.97728 14.0852 8.20672 14.4019 8.28588C14.7185 8.36505 14.737 9.26493 14.6658 9.57896Z" fill="#FFF5CC"/>
<path d="M11.4814 7.05878C11.4085 7.1857 11.2901 7.28022 11.1502 7.32326C11.0103 7.3663 10.8593 7.35466 10.7276 7.29067C10.596 7.22669 10.4935 7.11514 10.4409 6.97855C10.3883 6.84196 10.3895 6.69049 10.4443 6.55474C10.5841 6.2671 11.1911 5.60737 11.4787 5.74459C11.7664 5.88182 11.6212 6.77114 11.4814 7.05878Z" fill="#FFF5CC"/>
<path d="M22.5514 5.62057C22.3218 5.83696 22.2875 6.1853 22.4828 6.66031C22.6992 7.2224 23.0264 7.71588 23.6255 7.71588C23.8132 7.7154 23.9968 7.66005 24.1535 7.55664C24.3102 7.45323 24.4333 7.30627 24.5076 7.13384C24.5819 6.9614 24.6042 6.77101 24.5717 6.58608C24.5392 6.40115 24.4534 6.22974 24.3248 6.09294V6.09294C24.1058 5.86071 23.066 5.12973 22.5514 5.62057ZM23.6202 6.94004C23.5692 6.93792 23.521 6.91617 23.4856 6.87934C23.3398 6.69225 23.2289 6.48038 23.1584 6.25391C23.3806 6.33725 23.5862 6.4597 23.7653 6.61545C23.7914 6.64313 23.8087 6.67791 23.815 6.71539C23.8213 6.75287 23.8164 6.79139 23.8009 6.82609C23.7854 6.86079 23.7599 6.89013 23.7278 6.9104C23.6956 6.93068 23.6582 6.94099 23.6202 6.94004Z" fill="black"/>
<path d="M19.5458 9.7637C19.591 9.88087 19.6591 9.98787 19.7461 10.0785C19.8331 10.1691 19.9372 10.2415 20.0525 10.2915C20.2264 10.3687 20.4193 10.3926 20.6069 10.3603C20.7944 10.328 20.9682 10.2408 21.1062 10.1098C21.2443 9.97883 21.3405 9.80987 21.3826 9.62428C21.4247 9.43869 21.4109 9.24477 21.3429 9.06702V9.06702C21.2294 8.77146 20.5512 7.69741 19.8836 7.95339C19.2159 8.20937 19.4323 9.4655 19.5458 9.7637ZM20.2082 8.78729C20.3809 8.94935 20.5238 9.1405 20.6304 9.35202V9.35202C20.6484 9.39963 20.6469 9.45244 20.6261 9.49892C20.6054 9.5454 20.5671 9.58177 20.5196 9.60008C20.496 9.60939 20.4709 9.61389 20.4456 9.61334C20.4202 9.61278 20.3953 9.60718 20.3722 9.59686C20.3491 9.58653 20.3283 9.57169 20.311 9.55322C20.2937 9.53474 20.2803 9.51299 20.2715 9.48925C20.2073 9.26117 20.1858 9.02318 20.2082 8.78729Z" fill="black"/>
<path d="M16.2943 6.8371C16.2874 6.96766 16.3073 7.09824 16.3525 7.2209C16.3978 7.34355 16.4675 7.45571 16.5575 7.55054C16.6475 7.64537 16.7558 7.72089 16.876 7.77249C16.9961 7.8241 17.1254 7.85071 17.2562 7.85071C17.3869 7.85071 17.5163 7.8241 17.6364 7.77249C17.7565 7.72089 17.8649 7.64537 17.9549 7.55054C18.0449 7.45571 18.1146 7.34355 18.1599 7.2209C18.2051 7.09824 18.2249 6.96766 18.2181 6.8371C18.2181 6.51779 17.9542 5.27222 17.2549 5.27222C16.5555 5.27222 16.2943 6.51779 16.2943 6.8371ZM17.2549 7.02975C17.2296 7.02975 17.2045 7.02476 17.1811 7.01508C17.1578 7.0054 17.1365 6.99121 17.1186 6.97332C17.1008 6.95543 17.0866 6.9342 17.0769 6.91083C17.0672 6.88745 17.0622 6.8624 17.0622 6.8371C17.0837 6.59766 17.149 6.3642 17.2549 6.14834C17.3595 6.36094 17.4247 6.59071 17.4475 6.82655C17.4489 6.85272 17.445 6.87891 17.436 6.90352C17.4269 6.92812 17.413 6.95062 17.395 6.96964C17.3769 6.98867 17.3552 7.00381 17.3311 7.01414C17.307 7.02448 17.2811 7.02979 17.2549 7.02975V7.02975Z" fill="black"/>
<path d="M13.5736 8.40989C13.2226 8.87962 12.9719 9.41269 13.2701 9.91672C13.3671 10.0801 13.5103 10.2112 13.6816 10.2934C13.8529 10.3756 14.0447 10.4054 14.2328 10.3788C14.421 10.3523 14.5971 10.2707 14.739 10.1444C14.8809 10.018 14.9823 9.8525 15.0303 9.66866C15.1121 9.36255 15.1781 8.0853 14.4893 7.91377C14.1859 7.8346 13.8745 7.99558 13.5736 8.40989ZM14.2861 9.46547C14.2726 9.51509 14.2404 9.55761 14.1964 9.58422C14.1636 9.60289 14.1261 9.61154 14.0885 9.60909C14.0509 9.60664 14.0148 9.5932 13.9847 9.57045C13.9547 9.54769 13.932 9.51661 13.9194 9.48106C13.9068 9.44551 13.905 9.40706 13.914 9.37046C13.9933 9.14661 14.1141 8.93977 14.2703 8.76087C14.3186 8.99636 14.3239 9.23863 14.2861 9.47602V9.46547Z" fill="black"/>
<path d="M10.095 6.38586C10.0376 6.49997 10.0034 6.62436 9.99452 6.75179C9.98563 6.87923 10.0022 7.00715 10.0432 7.12813C10.0842 7.24911 10.1489 7.36072 10.2335 7.45646C10.318 7.55221 10.4208 7.63018 10.5358 7.68583C10.6507 7.74148 10.7756 7.77371 10.9032 7.78063C11.0308 7.78756 11.1584 7.76904 11.2787 7.72616C11.3991 7.68327 11.5097 7.61689 11.6041 7.53086C11.6985 7.44482 11.7749 7.34087 11.8288 7.22504C11.995 6.87934 12.2536 5.69446 11.644 5.3989C11.0344 5.10334 10.2744 6.01905 10.095 6.38586ZM11.1347 6.8899C11.1238 6.91354 11.1081 6.9347 11.0887 6.95212C11.0694 6.96954 11.0466 6.98284 11.022 6.99123C10.9973 6.99962 10.9712 7.00291 10.9452 7.00092C10.9192 6.99892 10.8939 6.99168 10.8708 6.97962C10.8469 6.96896 10.8255 6.95348 10.8079 6.93414C10.7902 6.91481 10.7768 6.89204 10.7684 6.86727C10.7599 6.84249 10.7567 6.81624 10.7589 6.79017C10.7611 6.76409 10.7687 6.73875 10.7811 6.71573C10.903 6.51172 11.0623 6.33263 11.2508 6.18794C11.2547 6.42701 11.2154 6.66482 11.1347 6.8899V6.8899Z" fill="black"/>
</g>
<defs>
<filter id="filter0_d_502_1327" x="0.337028" y="-0.000130415" width="33.9129" height="33.8307" filterUnits="userSpaceOnUse" color-interpolation-filters="sRGB">
<feFlood flood-opacity="0" result="BackgroundImageFix"/>
<feColorMatrix in="SourceAlpha" type="matrix" values="0 0 0 0 0 0 0 0 0 0 0 0 0 0 0 0 0 0 127 0" result="hardAlpha"/>
<feOffset/>
<feGaussianBlur stdDeviation="1.22699"/>
<feComposite in2="hardAlpha" operator="out"/>
<feColorMatrix type="matrix" values="0 0 0 0 0 0 0 0 0 0 0 0 0 0 0 0 0 0 0.35 0"/>
<feBlend mode="normal" in2="BackgroundImageFix" result="effect1_dropShadow_502_1327"/>
<feBlend mode="normal" in="SourceGraphic" in2="effect1_dropShadow_502_1327" result="shape"/>
</filter>
</defs>
</svg>
