<svg width="39" height="39" viewBox="0 0 39 39" fill="none" xmlns="http://www.w3.org/2000/svg">
<g filter="url(#filter0_d_502_1267)">
<g filter="url(#filter1_d_502_1267)">
<path d="M33.4546 27.8393H5.75278C5.62617 27.8393 5.50474 27.8896 5.41521 27.9791C5.32569 28.0686 5.27539 28.1901 5.27539 28.3167C5.27679 29.7097 5.83077 31.0452 6.81577 32.0302C7.80077 33.0152 9.13632 33.5692 10.5293 33.5706H28.678C30.0712 33.5699 31.4072 33.0161 32.3923 32.031C33.3775 31.0458 33.9313 29.7099 33.932 28.3167C33.932 28.1901 33.8817 28.0686 33.7921 27.9791C33.7026 27.8896 33.5812 27.8393 33.4546 27.8393ZM28.678 32.6079H10.5293C9.47328 32.607 8.45442 32.218 7.66658 31.5147C6.87874 30.8115 6.3769 29.8432 6.25655 28.7941H32.9508C32.8304 29.8432 32.3286 30.8115 31.5408 31.5147C30.7529 32.218 29.7341 32.607 28.678 32.6079V32.6079Z" fill="black"/>
<path d="M19.6051 20.6758C17.7226 20.6724 15.9058 21.3679 14.5068 22.6276L15.1451 23.337C16.3672 22.2374 17.9533 21.6295 19.5972 21.6306C22.2347 21.6306 24.5056 23.0126 25.3628 25.1517L26.249 24.7956C25.2547 22.2926 22.6436 20.6758 19.6051 20.6758Z" fill="black"/>
<path d="M23.2556 23.9041C22.083 22.9378 20.5749 22.4762 19.0623 22.6205C17.5497 22.7649 16.1561 23.5036 15.1875 24.6743L15.9234 25.2809C16.3909 24.7137 16.9832 24.2622 17.6541 23.9616C18.3249 23.661 19.0561 23.5195 19.7906 23.5481C20.5252 23.5767 21.2432 23.7746 21.8886 24.1264C22.534 24.4783 23.0894 24.9745 23.5115 25.5763L24.3027 25.0277C24.0055 24.6081 23.6533 24.2302 23.2556 23.9041Z" fill="black"/>
<path d="M22.2802 25.5895C21.5562 24.8806 20.5805 24.4879 19.5672 24.4978C18.5539 24.5077 17.586 24.9193 16.876 25.6423L17.5565 26.3122C17.955 25.9059 18.4654 25.6274 19.0228 25.5122C19.5801 25.397 20.1591 25.4503 20.6861 25.6652C21.2131 25.8802 21.6641 26.2471 21.9818 26.7193C22.2995 27.1915 22.4695 27.7476 22.4701 28.3167H23.4249C23.424 27.809 23.3224 27.3065 23.1259 26.8384C22.9294 26.3703 22.642 25.9458 22.2802 25.5895Z" fill="black"/>
<path d="M24.8793 22.5854H24.3809V23.5401H24.8582C26.1757 23.547 27.4435 24.0439 28.4147 24.9342C29.3859 25.8245 29.991 27.0443 30.1122 28.3562L31.0643 28.2771C30.9271 26.7287 30.2171 25.2871 29.0732 24.2344C27.9293 23.1818 26.4339 22.5937 24.8793 22.5854Z" fill="black"/>
<path d="M27.6942 25.5921C26.8443 24.8339 25.7285 24.4436 24.5913 24.5069C23.4541 24.5702 22.3884 25.0819 21.6279 25.9297L22.3401 26.568C22.7681 26.0924 23.3237 25.7497 23.9407 25.5803C24.5578 25.411 25.2104 25.4222 25.8213 25.6127C26.4321 25.8032 26.9755 26.1649 27.387 26.6549C27.7984 27.145 28.0607 27.7428 28.1426 28.3774L29.0895 28.256C28.9604 27.229 28.465 26.283 27.6942 25.5921V25.5921Z" fill="black"/>
<path d="M25.4286 26.4784C24.8159 26.3237 24.167 26.4178 23.6234 26.74C23.0798 27.0621 22.6858 27.5863 22.5273 28.198L23.4531 28.4354C23.533 28.1279 23.7127 27.8557 23.9641 27.6614C24.2154 27.467 24.5241 27.3616 24.8418 27.3616C25.1594 27.3616 25.4681 27.467 25.7195 27.6614C25.9708 27.8557 26.1505 28.1279 26.2304 28.4354L27.1562 28.198C27.049 27.7827 26.8321 27.4039 26.5281 27.1013C26.2242 26.7988 25.8444 26.5836 25.4286 26.4784V26.4784Z" fill="black"/>
<path d="M14.8392 22.5854C14.0257 22.519 13.2071 22.6136 12.4301 22.8637C11.6532 23.1139 10.9332 23.5147 10.3112 24.0433C9.68931 24.5719 9.17766 25.2179 8.80555 25.9444C8.43343 26.6709 8.20815 27.4635 8.14258 28.2771L9.09472 28.3563C9.15092 27.6676 9.34242 26.9967 9.65824 26.3822C9.97407 25.7676 10.408 25.2214 10.9353 24.7747C11.4625 24.3281 12.0726 23.9899 12.7308 23.7794C13.3889 23.5689 14.0821 23.4903 14.7706 23.5481C15.5519 23.6135 16.3088 23.8523 16.9862 24.247L17.4662 23.4188C16.6629 22.9502 15.7657 22.6655 14.8392 22.5854V22.5854Z" fill="black"/>
<path d="M14.8763 24.5187C13.7452 24.3808 12.6055 24.697 11.7071 25.3981C10.8087 26.0992 10.225 27.1279 10.084 28.2587L11.0335 28.3747C11.1348 27.5648 11.5288 26.8199 12.1413 26.2804C12.7538 25.7408 13.5424 25.4439 14.3586 25.4455C15.1749 25.4472 15.9623 25.7472 16.5726 26.2892C17.1829 26.8312 17.574 27.5776 17.6721 28.3879L18.6216 28.2719C18.5076 27.3173 18.0765 26.4286 17.3975 25.7482C16.7184 25.0677 15.8307 24.6347 14.8763 24.5187V24.5187Z" fill="black"/>
<path d="M14.9555 26.4889C14.3427 26.3291 13.6916 26.4191 13.1451 26.7391C12.5987 27.059 12.2016 27.5828 12.041 28.1954L12.9641 28.438C13.044 28.1312 13.2234 27.8596 13.4742 27.6656C13.725 27.4717 14.0331 27.3665 14.3502 27.3665C14.6672 27.3665 14.9753 27.4717 15.2261 27.6656C15.4769 27.8596 15.6563 28.1312 15.7362 28.438L16.6619 28.1954C16.5538 27.7855 16.3388 27.4116 16.0391 27.1118C15.7393 26.812 15.3654 26.5971 14.9555 26.4889Z" fill="black"/>
<path d="M19.6046 26.4071C19.0979 26.4071 18.6119 26.6082 18.2534 26.9663C17.8949 27.3243 17.6931 27.81 17.6924 28.3167H18.6472C18.66 28.0718 18.7664 27.8412 18.9443 27.6724C19.1222 27.5036 19.358 27.4095 19.6033 27.4095C19.8485 27.4095 20.0844 27.5036 20.2623 27.6724C20.4401 27.8412 20.5465 28.0718 20.5594 28.3167H21.5141C21.5134 27.8105 21.312 27.3252 20.9541 26.9672C20.5961 26.6092 20.1108 26.4078 19.6046 26.4071V26.4071Z" fill="black"/>
<path d="M13.8735 6.82361H10.0518V7.77839H13.8735V6.82361Z" fill="black"/>
<path d="M13.8738 8.73581H11.0068V9.69059H13.8738V8.73581Z" fill="black"/>
<path d="M9.00016 15.1845C8.75135 14.7472 8.62053 14.2528 8.62053 13.7497C8.62053 13.2466 8.75135 12.7522 9.00016 12.3149C9.33079 11.7333 9.50463 11.0757 9.50463 10.4066C9.50463 9.73761 9.33079 9.08004 9.00016 8.49841C8.75135 8.06115 8.62053 7.5667 8.62053 7.0636C8.62053 6.56051 8.75135 6.06606 9.00016 5.6288C9.04155 5.55605 9.06331 5.4738 9.06331 5.3901C9.06331 5.30641 9.04155 5.22415 9.00016 5.15141C8.95763 5.07934 8.8971 5.01957 8.82451 4.97795C8.75191 4.93634 8.66974 4.91431 8.58607 4.91403H7.18555V5.86881H7.85548C7.68996 6.38013 7.63309 6.92039 7.6885 7.45497C7.74391 7.98955 7.91038 8.50666 8.17725 8.97316C8.42557 9.41011 8.55613 9.90407 8.55613 10.4066C8.55613 10.9092 8.42557 11.4032 8.17725 11.8401C7.84538 12.4218 7.67083 13.08 7.67083 13.7497C7.67083 14.4194 7.84538 15.0776 8.17725 15.6593C8.42605 16.0965 8.55688 16.591 8.55688 17.0941C8.55688 17.5972 8.42605 18.0916 8.17725 18.5289C7.84417 19.1044 7.66659 19.7568 7.66196 20.4217C7.65734 21.0867 7.82583 21.7415 8.15088 22.3216C8.29834 22.639 8.42177 22.9669 8.52013 23.3028L9.43535 23.039C9.31888 22.6455 9.17341 22.2611 9.00016 21.8891C8.75184 21.4521 8.62128 20.9581 8.62128 20.4556C8.62128 19.953 8.75184 19.459 9.00016 19.0221C9.33416 18.4377 9.50985 17.7763 9.50985 17.1033C9.50985 16.4302 9.33416 15.7688 9.00016 15.1845V15.1845Z" fill="black"/>
<path d="M33.9321 8.39555C33.9108 7.72417 33.6248 7.08846 33.1367 6.627C32.6486 6.16555 31.9978 5.91577 31.3263 5.93212L17.4081 6.34093L16.6802 5.61298C16.4589 5.39076 16.1958 5.21457 15.9061 5.09461C15.6164 4.97464 15.3057 4.91327 14.9922 4.91404H10.5638C10.4795 4.91439 10.3967 4.93671 10.3236 4.9788C10.2505 5.02089 10.1897 5.08129 10.1471 5.15405C9.81644 5.73617 9.64262 6.39416 9.64262 7.06361C9.64262 7.73307 9.81644 8.39105 10.1471 8.97317C10.3954 9.41012 10.5259 9.90408 10.5259 10.4067C10.5259 10.9092 10.3954 11.4032 10.1471 11.8401C9.81644 12.4223 9.64262 13.0802 9.64262 13.7497C9.64262 14.4192 9.81644 15.0771 10.1471 15.6593C10.3959 16.0965 10.5267 16.591 10.5267 17.0941C10.5267 17.5972 10.3959 18.0916 10.1471 18.5289C9.81642 19.1105 9.64258 19.7681 9.64258 20.4371C9.64258 21.1062 9.81642 21.7637 10.1471 22.3454C10.213 22.46 10.2711 22.579 10.3211 22.7014L11.2073 22.3454C11.141 22.1824 11.0644 22.0238 10.9779 21.8706C10.7295 21.4337 10.599 20.9397 10.599 20.4371C10.599 19.9345 10.7295 19.4406 10.9779 19.0036C11.3085 18.4215 11.4823 17.7635 11.4823 17.0941C11.4823 16.4246 11.3085 15.7666 10.9779 15.1845C10.7291 14.7472 10.5982 14.2528 10.5982 13.7497C10.5982 13.2466 10.7291 12.7522 10.9779 12.3149C11.1064 12.0875 11.2124 11.8481 11.2944 11.6001H14.9869C15.3005 11.6009 15.6111 11.5395 15.9008 11.4196C16.1906 11.2996 16.4536 11.1234 16.6749 10.9012L17.4081 10.1891L31.2551 11.0041H31.4028C32.0748 11.0034 32.7191 10.7361 33.1943 10.2609C33.6694 9.78571 33.9367 9.14142 33.9374 8.4694L33.9321 8.39555ZM31.3869 10.0414C31.3571 10.0388 31.3271 10.0388 31.2973 10.0414L17.2446 9.21318C17.177 9.20848 17.1092 9.21855 17.0459 9.24269C16.9826 9.26683 16.9253 9.30446 16.878 9.35297L16.005 10.226C15.8723 10.3594 15.7145 10.4652 15.5406 10.5372C15.3668 10.6092 15.1803 10.646 14.9922 10.6454H11.4737C11.5223 9.89658 11.3499 9.15003 10.9779 8.49842C10.75 8.09994 10.62 7.65309 10.5985 7.19458C10.5769 6.73607 10.6645 6.279 10.8539 5.86091H14.9922C15.1802 5.86088 15.3665 5.8979 15.5403 5.96985C15.7141 6.04181 15.872 6.14729 16.005 6.28027L16.8806 7.16384C16.9264 7.20981 16.9812 7.24575 17.0416 7.26936C17.102 7.29297 17.1666 7.30374 17.2314 7.30099L31.3526 6.8869C31.5605 6.88413 31.7668 6.92232 31.9599 6.99928C32.1529 7.07625 32.3289 7.19049 32.4778 7.33548C32.6267 7.48047 32.7456 7.65337 32.8277 7.84431C32.9098 8.03525 32.9535 8.24049 32.9563 8.4483C32.959 8.65612 32.9208 8.86245 32.8439 9.05551C32.7669 9.24857 32.6527 9.42458 32.5077 9.57349C32.3627 9.7224 32.1898 9.84129 31.9988 9.92338C31.8079 10.0055 31.6027 10.0491 31.3948 10.0519L31.3869 10.0414Z" fill="black"/>
<path d="M12.8874 15.1845C12.6391 14.7476 12.5085 14.2536 12.5085 13.751C12.5085 13.2485 12.6391 12.7545 12.8874 12.3175C13.0762 11.988 13.2157 11.6326 13.3015 11.2625L12.3704 11.0515C12.3061 11.3291 12.2012 11.5958 12.0592 11.8428C11.7273 12.424 11.5527 13.0817 11.5527 13.751C11.5527 14.4203 11.7273 15.0781 12.0592 15.6593C12.308 16.0965 12.4388 16.591 12.4388 17.0941C12.4388 17.5972 12.308 18.0916 12.0592 18.5289C11.7526 19.0691 11.5808 19.6753 11.5583 20.296C11.5358 20.9168 11.6633 21.5338 11.93 22.0948L12.7924 21.6834C12.5919 21.2618 12.4961 20.7981 12.5131 20.3315C12.53 19.865 12.6594 19.4095 12.89 19.0036C13.2202 18.4213 13.3936 17.7632 13.3931 17.0937C13.3927 16.4243 13.2184 15.7664 12.8874 15.1845V15.1845Z" fill="black"/>
<path d="M8.14033 6.82361H7.18555V7.77839H8.14033V6.82361Z" fill="black"/>
<path d="M8.61772 8.73581H7.18555V9.69059H8.61772V8.73581Z" fill="black"/>
<path d="M9.09511 10.6454H7.18555V11.6001H9.09511V10.6454Z" fill="black"/>
</g>
</g>
<defs>
<filter id="filter0_d_502_1267" x="0.366438" y="0.00605631" width="38.479" height="38.4725" filterUnits="userSpaceOnUse" color-interpolation-filters="sRGB">
<feFlood flood-opacity="0" result="BackgroundImageFix"/>
<feColorMatrix in="SourceAlpha" type="matrix" values="0 0 0 0 0 0 0 0 0 0 0 0 0 0 0 0 0 0 127 0" result="hardAlpha"/>
<feOffset/>
<feGaussianBlur stdDeviation="2.45399"/>
<feComposite in2="hardAlpha" operator="out"/>
<feColorMatrix type="matrix" values="0 0 0 0 0 0 0 0 0 0 0 0 0 0 0 0 0 0 0.35 0"/>
<feBlend mode="normal" in2="BackgroundImageFix" result="effect1_dropShadow_502_1267"/>
<feBlend mode="normal" in="SourceGraphic" in2="effect1_dropShadow_502_1267" result="shape"/>
</filter>
<filter id="filter1_d_502_1267" x="4.0484" y="3.68704" width="31.1161" height="31.1106" filterUnits="userSpaceOnUse" color-interpolation-filters="sRGB">
<feFlood flood-opacity="0" result="BackgroundImageFix"/>
<feColorMatrix in="SourceAlpha" type="matrix" values="0 0 0 0 0 0 0 0 0 0 0 0 0 0 0 0 0 0 127 0" result="hardAlpha"/>
<feOffset/>
<feGaussianBlur stdDeviation="0.613497"/>
<feComposite in2="hardAlpha" operator="out"/>
<feColorMatrix type="matrix" values="0 0 0 0 0 0 0 0 0 0 0 0 0 0 0 0 0 0 0.25 0"/>
<feBlend mode="normal" in2="BackgroundImageFix" result="effect1_dropShadow_502_1267"/>
<feBlend mode="normal" in="SourceGraphic" in2="effect1_dropShadow_502_1267" result="shape"/>
</filter>
</defs>
</svg>
