<svg width="17" height="17" viewBox="0 0 17 17" fill="none" xmlns="http://www.w3.org/2000/svg">
<path d="M8.30787 0.821075C9.36873 0.821075 10.3861 1.2425 11.1363 1.99265C11.8864 2.74279 12.3079 3.76021 12.3079 4.82108C12.3079 5.88194 11.8864 6.89936 11.1363 7.6495C10.3861 8.39965 9.36873 8.82108 8.30787 8.82108C7.247 8.82108 6.22958 8.39965 5.47944 7.6495C4.72929 6.89936 4.30787 5.88194 4.30787 4.82108C4.30787 3.76021 4.72929 2.74279 5.47944 1.99265C6.22958 1.2425 7.247 0.821075 8.30787 0.821075V0.821075ZM8.30787 2.82108C7.77743 2.82108 7.26872 3.03179 6.89365 3.40686C6.51858 3.78193 6.30787 4.29064 6.30787 4.82108C6.30787 5.35151 6.51858 5.86022 6.89365 6.23529C7.26872 6.61036 7.77743 6.82108 8.30787 6.82108C8.8383 6.82108 9.34701 6.61036 9.72208 6.23529C10.0972 5.86022 10.3079 5.35151 10.3079 4.82108C10.3079 4.29064 10.0972 3.78193 9.72208 3.40686C9.34701 3.03179 8.8383 2.82108 8.30787 2.82108V2.82108ZM8.30787 9.82108C10.9779 9.82108 16.3079 11.1511 16.3079 13.8211V16.8211H0.307865V13.8211C0.307865 11.1511 5.63787 9.82108 8.30787 9.82108ZM8.30787 11.7211C5.33787 11.7211 2.20787 13.1811 2.20787 13.8211V14.9211H14.4079V13.8211C14.4079 13.1811 11.2779 11.7211 8.30787 11.7211Z" fill="#02A3AF"/>
</svg>
