<svg width="42" height="45" viewBox="0 0 42 45" fill="none" xmlns="http://www.w3.org/2000/svg">
<ellipse cx="21" cy="22.8798" rx="21" ry="21.9628" fill="#F4F7FF"/>
<mask id="mask0_1092_27583" style="mask-type:alpha" maskUnits="userSpaceOnUse" x="0" y="0" width="42" height="45">
<ellipse cx="21" cy="22.8798" rx="21" ry="21.9628" fill="#E8F7F0"/>
</mask>
<g mask="url(#mask0_1092_27583)">
<path d="M10.7982 51.8862C10.3358 51.7852 9.87333 51.7145 9.43058 51.5832C6.5576 50.7552 4.74723 48.4832 4.61933 45.3933C4.49142 42.1924 4.82594 39.0419 6.01646 36.053C6.7839 34.1243 7.88586 32.4481 9.75526 31.4282C10.9064 30.8022 12.1363 30.4992 13.4252 30.5295C13.8286 30.5396 14.2615 30.7517 14.6255 30.9536C15.2257 31.2869 15.7767 31.7009 16.3572 32.0644C19.732 34.2051 23.0969 34.195 26.4717 32.0543C26.9439 31.7615 27.4162 31.4686 27.859 31.1354C28.6657 30.5194 29.5513 30.4387 30.5056 30.58C33.1228 30.9738 34.9627 32.4481 36.2122 34.7908C37.324 36.881 37.8258 39.153 38.0423 41.4956C38.1603 42.6973 38.2095 43.909 38.1997 45.1207C38.1603 48.7256 35.74 51.4116 32.2471 51.8054C32.1586 51.8155 32.0799 51.8559 31.9913 51.8761C24.9171 51.8862 17.8626 51.8862 10.7982 51.8862Z" fill="#C8CEDE"/>
<path d="M30.85 20.6664C30.8893 26.2256 26.5012 30.8275 21.1586 30.8481C15.8161 30.8687 11.4279 26.2565 11.4181 20.7179C11.4181 15.1174 15.698 10.5671 21.0897 10.5259C26.4618 10.4847 30.8204 15.0145 30.85 20.6664Z" fill="#C8CEDE"/>
</g>
</svg>
